<svg xmlns="http://www.w3.org/2000/svg" xmlns:xlink="http://www.w3.org/1999/xlink" width="800" zoomAndPan="magnify" viewBox="0 0 600 449.999984" height="600" preserveAspectRatio="xMidYMid meet" version="1.0"><defs><g/></defs><g fill="#ff66c4" fill-opacity="1"><g transform="translate(107.672414, 109.81394)"><g><path d="M 30.765625 -62.828125 C 40.960938 -62.828125 48.742188 -60.191406 54.109375 -54.921875 C 59.484375 -49.648438 62.171875 -41.8125 62.171875 -31.40625 C 62.171875 -21.039062 59.484375 -13.210938 54.109375 -7.921875 C 48.742188 -2.640625 40.960938 0 30.765625 0 L 8.171875 0 L 8.171875 -62.828125 Z M 30.03125 -10.4375 C 36.507812 -10.4375 41.351562 -12.09375 44.5625 -15.40625 C 47.769531 -18.71875 49.375 -24.050781 49.375 -31.40625 C 49.375 -38.769531 47.769531 -44.101562 44.5625 -47.40625 C 41.351562 -50.71875 36.507812 -52.375 30.03125 -52.375 L 20.578125 -52.375 L 20.578125 -10.4375 Z M 30.03125 -10.4375 "/></g></g></g><g fill="#ff66c4" fill-opacity="1"><g transform="translate(174.82959, 109.81394)"><g><path d="M 18.484375 0.90625 C 15.441406 0.90625 12.800781 0.347656 10.5625 -0.765625 C 8.332031 -1.890625 6.613281 -3.53125 5.40625 -5.6875 C 4.207031 -7.851562 3.609375 -10.457031 3.609375 -13.5 C 3.609375 -16.300781 4.207031 -18.65625 5.40625 -20.5625 C 6.613281 -22.46875 8.476562 -24.03125 11 -25.25 C 13.519531 -26.46875 16.816406 -27.40625 20.890625 -28.0625 C 23.722656 -28.519531 25.875 -29.019531 27.34375 -29.5625 C 28.820312 -30.101562 29.816406 -30.71875 30.328125 -31.40625 C 30.847656 -32.09375 31.109375 -32.96875 31.109375 -34.03125 C 31.109375 -35.550781 30.578125 -36.710938 29.515625 -37.515625 C 28.460938 -38.316406 26.703125 -38.71875 24.234375 -38.71875 C 21.597656 -38.71875 19.09375 -38.128906 16.71875 -36.953125 C 14.34375 -35.773438 12.28125 -34.226562 10.53125 -32.3125 L 9.671875 -32.3125 L 4.6875 -39.828125 C 7.09375 -42.492188 10.023438 -44.570312 13.484375 -46.0625 C 16.953125 -47.550781 20.738281 -48.296875 24.84375 -48.296875 C 31.113281 -48.296875 35.648438 -46.960938 38.453125 -44.296875 C 41.265625 -41.640625 42.671875 -37.859375 42.671875 -32.953125 L 42.671875 -12.375 C 42.671875 -10.257812 43.601562 -9.203125 45.46875 -9.203125 C 46.175781 -9.203125 46.875 -9.328125 47.5625 -9.578125 L 48.171875 -9.40625 L 49.03125 -1.125 C 48.375 -0.6875 47.457031 -0.332031 46.28125 -0.0625 C 45.101562 0.207031 43.8125 0.34375 42.40625 0.34375 C 39.570312 0.34375 37.359375 -0.195312 35.765625 -1.28125 C 34.179688 -2.375 33.046875 -4.082031 32.359375 -6.40625 L 31.453125 -6.484375 C 29.128906 -1.554688 24.804688 0.90625 18.484375 0.90625 Z M 22.265625 -8 C 25.015625 -8 27.210938 -8.921875 28.859375 -10.765625 C 30.503906 -12.609375 31.328125 -15.179688 31.328125 -18.484375 L 31.328125 -23.296875 L 30.515625 -23.46875 C 29.796875 -22.894531 28.851562 -22.410156 27.6875 -22.015625 C 26.53125 -21.628906 24.863281 -21.253906 22.6875 -20.890625 C 20.113281 -20.453125 18.257812 -19.710938 17.125 -18.671875 C 15.988281 -17.628906 15.421875 -16.144531 15.421875 -14.21875 C 15.421875 -12.1875 16.019531 -10.640625 17.21875 -9.578125 C 18.425781 -8.523438 20.109375 -8 22.265625 -8 Z M 22.265625 -8 "/></g></g></g><g fill="#ff66c4" fill-opacity="1"><g transform="translate(224.800029, 109.81394)"><g><path d="M 32.703125 -11.296875 L 35.796875 -2.5 C 34.503906 -1.4375 32.882812 -0.601562 30.9375 0 C 28.988281 0.601562 26.785156 0.90625 24.328125 0.90625 C 19.191406 0.90625 15.289062 -0.488281 12.625 -3.28125 C 9.96875 -6.082031 8.640625 -10.144531 8.640625 -15.46875 L 8.640625 -37.984375 L 1.421875 -37.984375 L 1.421875 -47.4375 L 8.640625 -47.4375 L 8.640625 -56.671875 L 20.546875 -58.609375 L 20.546875 -47.4375 L 33.984375 -47.4375 L 33.984375 -37.984375 L 20.546875 -37.984375 L 20.546875 -16.328125 C 20.546875 -13.984375 21.03125 -12.269531 22 -11.1875 C 22.976562 -10.113281 24.394531 -9.578125 26.25 -9.578125 C 28.375 -9.578125 30.222656 -10.148438 31.796875 -11.296875 Z M 32.703125 -11.296875 "/></g></g></g><g fill="#ff66c4" fill-opacity="1"><g transform="translate(261.622616, 109.81394)"><g><path d="M 18.484375 0.90625 C 15.441406 0.90625 12.800781 0.347656 10.5625 -0.765625 C 8.332031 -1.890625 6.613281 -3.53125 5.40625 -5.6875 C 4.207031 -7.851562 3.609375 -10.457031 3.609375 -13.5 C 3.609375 -16.300781 4.207031 -18.65625 5.40625 -20.5625 C 6.613281 -22.46875 8.476562 -24.03125 11 -25.25 C 13.519531 -26.46875 16.816406 -27.40625 20.890625 -28.0625 C 23.722656 -28.519531 25.875 -29.019531 27.34375 -29.5625 C 28.820312 -30.101562 29.816406 -30.71875 30.328125 -31.40625 C 30.847656 -32.09375 31.109375 -32.96875 31.109375 -34.03125 C 31.109375 -35.550781 30.578125 -36.710938 29.515625 -37.515625 C 28.460938 -38.316406 26.703125 -38.71875 24.234375 -38.71875 C 21.597656 -38.71875 19.09375 -38.128906 16.71875 -36.953125 C 14.34375 -35.773438 12.28125 -34.226562 10.53125 -32.3125 L 9.671875 -32.3125 L 4.6875 -39.828125 C 7.09375 -42.492188 10.023438 -44.570312 13.484375 -46.0625 C 16.953125 -47.550781 20.738281 -48.296875 24.84375 -48.296875 C 31.113281 -48.296875 35.648438 -46.960938 38.453125 -44.296875 C 41.265625 -41.640625 42.671875 -37.859375 42.671875 -32.953125 L 42.671875 -12.375 C 42.671875 -10.257812 43.601562 -9.203125 45.46875 -9.203125 C 46.175781 -9.203125 46.875 -9.328125 47.5625 -9.578125 L 48.171875 -9.40625 L 49.03125 -1.125 C 48.375 -0.6875 47.457031 -0.332031 46.28125 -0.0625 C 45.101562 0.207031 43.8125 0.34375 42.40625 0.34375 C 39.570312 0.34375 37.359375 -0.195312 35.765625 -1.28125 C 34.179688 -2.375 33.046875 -4.082031 32.359375 -6.40625 L 31.453125 -6.484375 C 29.128906 -1.554688 24.804688 0.90625 18.484375 0.90625 Z M 22.265625 -8 C 25.015625 -8 27.210938 -8.921875 28.859375 -10.765625 C 30.503906 -12.609375 31.328125 -15.179688 31.328125 -18.484375 L 31.328125 -23.296875 L 30.515625 -23.46875 C 29.796875 -22.894531 28.851562 -22.410156 27.6875 -22.015625 C 26.53125 -21.628906 24.863281 -21.253906 22.6875 -20.890625 C 20.113281 -20.453125 18.257812 -19.710938 17.125 -18.671875 C 15.988281 -17.628906 15.421875 -16.144531 15.421875 -14.21875 C 15.421875 -12.1875 16.019531 -10.640625 17.21875 -9.578125 C 18.425781 -8.523438 20.109375 -8 22.265625 -8 Z M 22.265625 -8 "/></g></g></g><g fill="#ff66c4" fill-opacity="1"><g transform="translate(311.593068, 109.81394)"><g/></g></g><g fill="#ff66c4" fill-opacity="1"><g transform="translate(332.346056, 109.81394)"><g><path d="M 8.171875 0 L 8.171875 -62.828125 L 34.984375 -62.828125 C 38.847656 -62.828125 42.117188 -62.21875 44.796875 -61 C 47.472656 -59.78125 49.5 -58.046875 50.875 -55.796875 C 52.25 -53.546875 52.9375 -50.890625 52.9375 -47.828125 C 52.9375 -45.046875 52.265625 -42.59375 50.921875 -40.46875 C 49.578125 -38.351562 47.644531 -36.648438 45.125 -35.359375 L 45.125 -34.46875 C 49.070312 -33.4375 52.117188 -31.554688 54.265625 -28.828125 C 56.421875 -26.109375 57.5 -22.773438 57.5 -18.828125 C 57.5 -12.804688 55.6875 -8.160156 52.0625 -4.890625 C 48.4375 -1.628906 43.054688 0 35.921875 0 Z M 32.40625 -37.765625 C 38.1875 -37.765625 41.078125 -40.375 41.078125 -45.59375 C 41.078125 -48.257812 40.359375 -50.242188 38.921875 -51.546875 C 37.492188 -52.847656 35.320312 -53.5 32.40625 -53.5 L 20.578125 -53.5 L 20.578125 -37.765625 Z M 34.671875 -9.84375 C 41.523438 -9.84375 44.953125 -12.953125 44.953125 -19.171875 C 44.953125 -25.410156 41.523438 -28.53125 34.671875 -28.53125 L 20.578125 -28.53125 L 20.578125 -9.84375 Z M 34.671875 -9.84375 "/></g></g></g><g fill="#ff66c4" fill-opacity="1"><g transform="translate(393.788648, 109.81394)"><g><path d="M 21.703125 0.90625 C 16.367188 0.90625 12.4375 -0.546875 9.90625 -3.453125 C 7.375 -6.367188 6.109375 -10.546875 6.109375 -15.984375 L 6.109375 -47.390625 L 18 -47.390625 L 18 -17.484375 C 18 -14.597656 18.625 -12.488281 19.875 -11.15625 C 21.125 -9.820312 23.050781 -9.15625 25.65625 -9.15625 C 28.945312 -9.15625 31.507812 -10.234375 33.34375 -12.390625 C 35.175781 -14.554688 36.09375 -17.960938 36.09375 -22.609375 L 36.09375 -47.390625 L 48 -47.390625 L 48 0 L 36.5625 0 L 36.5625 -6.96875 L 35.671875 -7.171875 C 34.148438 -4.453125 32.289062 -2.425781 30.09375 -1.09375 C 27.90625 0.238281 25.109375 0.90625 21.703125 0.90625 Z M 21.703125 0.90625 "/></g></g></g><g fill="#ff66c4" fill-opacity="1"><g transform="translate(448.614335, 109.81394)"><g><path d="M 22.171875 0.90625 C 18.929688 0.90625 15.960938 0.523438 13.265625 -0.234375 C 10.578125 -0.992188 8.28125 -2.039062 6.375 -3.375 C 4.476562 -4.707031 3.070312 -6.234375 2.15625 -7.953125 L 8.765625 -15.078125 L 9.671875 -15.078125 C 11.242188 -12.960938 13.101562 -11.375 15.25 -10.3125 C 17.40625 -9.25 19.742188 -8.71875 22.265625 -8.71875 C 24.578125 -8.71875 26.320312 -9.132812 27.5 -9.96875 C 28.675781 -10.800781 29.265625 -11.988281 29.265625 -13.53125 C 29.265625 -14.738281 28.84375 -15.75 28 -16.5625 C 27.15625 -17.382812 25.785156 -18.023438 23.890625 -18.484375 L 17.625 -19.984375 C 12.925781 -21.097656 9.492188 -22.804688 7.328125 -25.109375 C 5.160156 -27.421875 4.078125 -30.351562 4.078125 -33.90625 C 4.078125 -36.851562 4.828125 -39.414062 6.328125 -41.59375 C 7.835938 -43.769531 9.957031 -45.429688 12.6875 -46.578125 C 15.425781 -47.722656 18.617188 -48.296875 22.265625 -48.296875 C 26.523438 -48.296875 30.054688 -47.679688 32.859375 -46.453125 C 35.671875 -45.222656 37.867188 -43.578125 39.453125 -41.515625 L 33.09375 -34.640625 L 32.234375 -34.640625 C 30.910156 -36.128906 29.425781 -37.21875 27.78125 -37.90625 C 26.132812 -38.59375 24.296875 -38.9375 22.265625 -38.9375 C 17.566406 -38.9375 15.21875 -37.472656 15.21875 -34.546875 C 15.21875 -33.316406 15.648438 -32.3125 16.515625 -31.53125 C 17.390625 -30.757812 18.929688 -30.132812 21.140625 -29.65625 L 26.984375 -28.359375 C 31.796875 -27.328125 35.3125 -25.671875 37.53125 -23.390625 C 39.75 -21.117188 40.859375 -18.0625 40.859375 -14.21875 C 40.859375 -11.21875 40.113281 -8.570312 38.625 -6.28125 C 37.132812 -3.988281 34.984375 -2.21875 32.171875 -0.96875 C 29.367188 0.28125 26.035156 0.90625 22.171875 0.90625 Z M 22.171875 0.90625 "/></g></g></g><g fill="#ffde59" fill-opacity="1"><g transform="translate(6.539073, 194.549985)"><g><path d="M 27.46875 -34.265625 L 27.46875 -28.578125 L 17.578125 -28.578125 L 17.578125 0 L 10.828125 0 L 10.828125 -28.578125 L 0.9375 -28.578125 L 0.9375 -34.265625 Z M 27.46875 -34.265625 "/></g></g><g transform="translate(34.945321, 194.549985)"><g><path d="M 3.734375 0 L 3.734375 -25.859375 L 10.03125 -25.859375 L 10.03125 -22.015625 L 10.53125 -21.921875 C 11.15625 -23.359375 11.972656 -24.410156 12.984375 -25.078125 C 14.003906 -25.753906 15.238281 -26.09375 16.6875 -26.09375 C 18.15625 -26.09375 19.273438 -25.84375 20.046875 -25.34375 L 18.9375 -19.734375 L 18.453125 -19.640625 C 18.023438 -19.816406 17.613281 -19.941406 17.21875 -20.015625 C 16.832031 -20.097656 16.359375 -20.140625 15.796875 -20.140625 C 13.984375 -20.140625 12.597656 -19.5 11.640625 -18.21875 C 10.691406 -16.945312 10.21875 -14.90625 10.21875 -12.09375 L 10.21875 0 Z M 3.734375 0 "/></g></g><g transform="translate(55.218757, 194.549985)"><g><path d="M 10.078125 0.5 C 8.421875 0.5 6.984375 0.191406 5.765625 -0.421875 C 4.546875 -1.035156 3.609375 -1.929688 2.953125 -3.109375 C 2.296875 -4.285156 1.96875 -5.703125 1.96875 -7.359375 C 1.96875 -8.890625 2.296875 -10.175781 2.953125 -11.21875 C 3.609375 -12.257812 4.625 -13.109375 6 -13.765625 C 7.375 -14.429688 9.171875 -14.945312 11.390625 -15.3125 C 12.941406 -15.5625 14.117188 -15.832031 14.921875 -16.125 C 15.722656 -16.425781 16.265625 -16.765625 16.546875 -17.140625 C 16.828125 -17.515625 16.96875 -17.988281 16.96875 -18.5625 C 16.96875 -19.394531 16.675781 -20.03125 16.09375 -20.46875 C 15.519531 -20.90625 14.5625 -21.125 13.21875 -21.125 C 11.78125 -21.125 10.410156 -20.800781 9.109375 -20.15625 C 7.816406 -19.519531 6.695312 -18.675781 5.75 -17.625 L 5.28125 -17.625 L 2.5625 -21.734375 C 3.875 -23.179688 5.472656 -24.3125 7.359375 -25.125 C 9.253906 -25.9375 11.316406 -26.34375 13.546875 -26.34375 C 16.972656 -26.34375 19.453125 -25.613281 20.984375 -24.15625 C 22.515625 -22.707031 23.28125 -20.648438 23.28125 -17.984375 L 23.28125 -6.75 C 23.28125 -5.59375 23.785156 -5.015625 24.796875 -5.015625 C 25.191406 -5.015625 25.578125 -5.085938 25.953125 -5.234375 L 26.28125 -5.140625 L 26.75 -0.609375 C 26.382812 -0.378906 25.878906 -0.1875 25.234375 -0.03125 C 24.597656 0.113281 23.898438 0.1875 23.140625 0.1875 C 21.585938 0.1875 20.378906 -0.109375 19.515625 -0.703125 C 18.648438 -1.296875 18.03125 -2.226562 17.65625 -3.5 L 17.15625 -3.546875 C 15.894531 -0.847656 13.535156 0.5 10.078125 0.5 Z M 12.140625 -4.359375 C 13.640625 -4.359375 14.835938 -4.863281 15.734375 -5.875 C 16.640625 -6.882812 17.09375 -8.285156 17.09375 -10.078125 L 17.09375 -12.703125 L 16.640625 -12.796875 C 16.253906 -12.484375 15.742188 -12.222656 15.109375 -12.015625 C 14.472656 -11.804688 13.5625 -11.597656 12.375 -11.390625 C 10.96875 -11.160156 9.957031 -10.757812 9.34375 -10.1875 C 8.726562 -9.613281 8.421875 -8.804688 8.421875 -7.765625 C 8.421875 -6.648438 8.75 -5.800781 9.40625 -5.21875 C 10.0625 -4.644531 10.972656 -4.359375 12.140625 -4.359375 Z M 12.140625 -4.359375 "/></g></g><g transform="translate(82.476567, 194.549985)"><g><path d="M 3.734375 0 L 3.734375 -25.859375 L 9.96875 -25.859375 L 9.96875 -22.0625 L 10.453125 -21.9375 C 12.066406 -24.875 14.675781 -26.34375 18.28125 -26.34375 C 21.269531 -26.34375 23.460938 -25.53125 24.859375 -23.90625 C 26.253906 -22.28125 26.953125 -19.914062 26.953125 -16.8125 L 26.953125 0 L 20.46875 0 L 20.46875 -16.015625 C 20.46875 -17.734375 20.125 -18.96875 19.4375 -19.71875 C 18.75 -20.476562 17.644531 -20.859375 16.125 -20.859375 C 14.269531 -20.859375 12.820312 -20.253906 11.78125 -19.046875 C 10.738281 -17.847656 10.21875 -15.960938 10.21875 -13.390625 L 10.21875 0 Z M 3.734375 0 "/></g></g><g transform="translate(112.757815, 194.549985)"><g><path d="M 12.09375 0.5 C 10.332031 0.5 8.71875 0.289062 7.25 -0.125 C 5.78125 -0.539062 4.523438 -1.113281 3.484375 -1.84375 C 2.441406 -2.570312 1.671875 -3.40625 1.171875 -4.34375 L 4.78125 -8.234375 L 5.28125 -8.234375 C 6.132812 -7.078125 7.144531 -6.207031 8.3125 -5.625 C 9.488281 -5.050781 10.765625 -4.765625 12.140625 -4.765625 C 13.410156 -4.765625 14.363281 -4.988281 15 -5.4375 C 15.644531 -5.894531 15.96875 -6.546875 15.96875 -7.390625 C 15.96875 -8.046875 15.734375 -8.59375 15.265625 -9.03125 C 14.804688 -9.476562 14.0625 -9.828125 13.03125 -10.078125 L 9.609375 -10.90625 C 7.046875 -11.507812 5.175781 -12.441406 4 -13.703125 C 2.820312 -14.960938 2.234375 -16.5625 2.234375 -18.5 C 2.234375 -20.101562 2.640625 -21.5 3.453125 -22.6875 C 4.273438 -23.875 5.429688 -24.78125 6.921875 -25.40625 C 8.421875 -26.03125 10.160156 -26.34375 12.140625 -26.34375 C 14.472656 -26.34375 16.40625 -26.003906 17.9375 -25.328125 C 19.46875 -24.660156 20.660156 -23.765625 21.515625 -22.640625 L 18.046875 -18.890625 L 17.578125 -18.890625 C 16.859375 -19.703125 16.050781 -20.296875 15.15625 -20.671875 C 14.257812 -21.046875 13.253906 -21.234375 12.140625 -21.234375 C 9.578125 -21.234375 8.296875 -20.4375 8.296875 -18.84375 C 8.296875 -18.175781 8.535156 -17.628906 9.015625 -17.203125 C 9.492188 -16.785156 10.332031 -16.441406 11.53125 -16.171875 L 14.71875 -15.46875 C 17.34375 -14.90625 19.257812 -14.003906 20.46875 -12.765625 C 21.6875 -11.523438 22.296875 -9.859375 22.296875 -7.765625 C 22.296875 -6.117188 21.890625 -4.671875 21.078125 -3.421875 C 20.265625 -2.171875 19.09375 -1.203125 17.5625 -0.515625 C 16.03125 0.160156 14.207031 0.5 12.09375 0.5 Z M 12.09375 0.5 "/></g></g><g transform="translate(136.59375, 194.549985)"><g><path d="M 3.734375 10.484375 L 3.734375 -25.859375 L 10.21875 -25.859375 L 10.21875 -22.484375 L 10.71875 -22.390625 C 11.476562 -23.703125 12.5 -24.6875 13.78125 -25.34375 C 15.0625 -26.007812 16.5625 -26.34375 18.28125 -26.34375 C 20.363281 -26.34375 22.179688 -25.847656 23.734375 -24.859375 C 25.285156 -23.878906 26.492188 -22.382812 27.359375 -20.375 C 28.234375 -18.375 28.671875 -15.890625 28.671875 -12.921875 C 28.671875 -9.960938 28.210938 -7.484375 27.296875 -5.484375 C 26.378906 -3.484375 25.109375 -1.984375 23.484375 -0.984375 C 21.859375 0.00390625 19.984375 0.5 17.859375 0.5 C 16.253906 0.5 14.863281 0.226562 13.6875 -0.3125 C 12.519531 -0.851562 11.53125 -1.695312 10.71875 -2.84375 L 10.21875 -2.75 L 10.21875 10.484375 Z M 16.0625 -5.015625 C 18 -5.015625 19.46875 -5.644531 20.46875 -6.90625 C 21.46875 -8.175781 21.96875 -10.179688 21.96875 -12.921875 C 21.96875 -15.648438 21.46875 -17.648438 20.46875 -18.921875 C 19.46875 -20.203125 18 -20.84375 16.0625 -20.84375 C 14.25 -20.84375 12.8125 -20.1875 11.75 -18.875 C 10.6875 -17.5625 10.15625 -15.578125 10.15625 -12.921875 C 10.15625 -10.273438 10.6875 -8.296875 11.75 -6.984375 C 12.8125 -5.671875 14.25 -5.015625 16.0625 -5.015625 Z M 16.0625 -5.015625 "/></g></g><g transform="translate(167.554685, 194.549985)"><g><path d="M 15.03125 0.5 C 12.5 0.5 10.273438 -0.0195312 8.359375 -1.0625 C 6.441406 -2.101562 4.957031 -3.628906 3.90625 -5.640625 C 2.851562 -7.648438 2.328125 -10.078125 2.328125 -12.921875 C 2.328125 -15.765625 2.851562 -18.191406 3.90625 -20.203125 C 4.957031 -22.222656 6.441406 -23.75 8.359375 -24.78125 C 10.273438 -25.820312 12.5 -26.34375 15.03125 -26.34375 C 17.5625 -26.34375 19.78125 -25.820312 21.6875 -24.78125 C 23.601562 -23.75 25.09375 -22.222656 26.15625 -20.203125 C 27.21875 -18.191406 27.75 -15.765625 27.75 -12.921875 C 27.75 -10.078125 27.21875 -7.648438 26.15625 -5.640625 C 25.09375 -3.628906 23.601562 -2.101562 21.6875 -1.0625 C 19.78125 -0.0195312 17.5625 0.5 15.03125 0.5 Z M 15.03125 -5.015625 C 19.039062 -5.015625 21.046875 -7.648438 21.046875 -12.921875 C 21.046875 -15.648438 20.53125 -17.648438 19.5 -18.921875 C 18.46875 -20.203125 16.976562 -20.84375 15.03125 -20.84375 C 11.007812 -20.84375 9 -18.203125 9 -12.921875 C 9 -7.648438 11.007812 -5.015625 15.03125 -5.015625 Z M 15.03125 -5.015625 "/></g></g><g transform="translate(197.601558, 194.549985)"><g><path d="M 3.734375 0 L 3.734375 -25.859375 L 10.03125 -25.859375 L 10.03125 -22.015625 L 10.53125 -21.921875 C 11.15625 -23.359375 11.972656 -24.410156 12.984375 -25.078125 C 14.003906 -25.753906 15.238281 -26.09375 16.6875 -26.09375 C 18.15625 -26.09375 19.273438 -25.84375 20.046875 -25.34375 L 18.9375 -19.734375 L 18.453125 -19.640625 C 18.023438 -19.816406 17.613281 -19.941406 17.21875 -20.015625 C 16.832031 -20.097656 16.359375 -20.140625 15.796875 -20.140625 C 13.984375 -20.140625 12.597656 -19.5 11.640625 -18.21875 C 10.691406 -16.945312 10.21875 -14.90625 10.21875 -12.09375 L 10.21875 0 Z M 3.734375 0 "/></g></g><g transform="translate(217.874994, 194.549985)"><g><path d="M 17.84375 -6.171875 L 19.53125 -1.359375 C 18.820312 -0.785156 17.9375 -0.332031 16.875 0 C 15.8125 0.332031 14.609375 0.5 13.265625 0.5 C 10.472656 0.5 8.347656 -0.257812 6.890625 -1.78125 C 5.441406 -3.3125 4.71875 -5.53125 4.71875 -8.4375 L 4.71875 -20.71875 L 0.78125 -20.71875 L 0.78125 -25.875 L 4.71875 -25.875 L 4.71875 -30.921875 L 11.203125 -31.96875 L 11.203125 -25.875 L 18.546875 -25.875 L 18.546875 -20.71875 L 11.203125 -20.71875 L 11.203125 -8.90625 C 11.203125 -7.625 11.46875 -6.691406 12 -6.109375 C 12.53125 -5.523438 13.304688 -5.234375 14.328125 -5.234375 C 15.484375 -5.234375 16.488281 -5.546875 17.34375 -6.171875 Z M 17.84375 -6.171875 "/></g></g><g transform="translate(237.96093, 194.549985)"><g><path d="M 12.09375 0.5 C 10.332031 0.5 8.71875 0.289062 7.25 -0.125 C 5.78125 -0.539062 4.523438 -1.113281 3.484375 -1.84375 C 2.441406 -2.570312 1.671875 -3.40625 1.171875 -4.34375 L 4.78125 -8.234375 L 5.28125 -8.234375 C 6.132812 -7.078125 7.144531 -6.207031 8.3125 -5.625 C 9.488281 -5.050781 10.765625 -4.765625 12.140625 -4.765625 C 13.410156 -4.765625 14.363281 -4.988281 15 -5.4375 C 15.644531 -5.894531 15.96875 -6.546875 15.96875 -7.390625 C 15.96875 -8.046875 15.734375 -8.59375 15.265625 -9.03125 C 14.804688 -9.476562 14.0625 -9.828125 13.03125 -10.078125 L 9.609375 -10.90625 C 7.046875 -11.507812 5.175781 -12.441406 4 -13.703125 C 2.820312 -14.960938 2.234375 -16.5625 2.234375 -18.5 C 2.234375 -20.101562 2.640625 -21.5 3.453125 -22.6875 C 4.273438 -23.875 5.429688 -24.78125 6.921875 -25.40625 C 8.421875 -26.03125 10.160156 -26.34375 12.140625 -26.34375 C 14.472656 -26.34375 16.40625 -26.003906 17.9375 -25.328125 C 19.46875 -24.660156 20.660156 -23.765625 21.515625 -22.640625 L 18.046875 -18.890625 L 17.578125 -18.890625 C 16.859375 -19.703125 16.050781 -20.296875 15.15625 -20.671875 C 14.257812 -21.046875 13.253906 -21.234375 12.140625 -21.234375 C 9.578125 -21.234375 8.296875 -20.4375 8.296875 -18.84375 C 8.296875 -18.175781 8.535156 -17.628906 9.015625 -17.203125 C 9.492188 -16.785156 10.332031 -16.441406 11.53125 -16.171875 L 14.71875 -15.46875 C 17.34375 -14.90625 19.257812 -14.003906 20.46875 -12.765625 C 21.6875 -11.523438 22.296875 -9.859375 22.296875 -7.765625 C 22.296875 -6.117188 21.890625 -4.671875 21.078125 -3.421875 C 20.265625 -2.171875 19.09375 -1.203125 17.5625 -0.515625 C 16.03125 0.160156 14.207031 0.5 12.09375 0.5 Z M 12.09375 0.5 "/></g></g><g transform="translate(261.796865, 194.549985)"><g/></g><g transform="translate(273.117177, 194.549985)"><g><path d="M 12.78125 0.5 C 10.726562 0.5 8.914062 0.00390625 7.34375 -0.984375 C 5.78125 -1.984375 4.550781 -3.488281 3.65625 -5.5 C 2.769531 -7.507812 2.328125 -9.984375 2.328125 -12.921875 C 2.328125 -15.867188 2.78125 -18.347656 3.6875 -20.359375 C 4.601562 -22.367188 5.867188 -23.867188 7.484375 -24.859375 C 9.109375 -25.847656 10.984375 -26.34375 13.109375 -26.34375 C 14.710938 -26.34375 16.101562 -26.066406 17.28125 -25.515625 C 18.46875 -24.960938 19.46875 -24.097656 20.28125 -22.921875 L 20.765625 -23.046875 L 20.765625 -36.234375 L 27.265625 -36.234375 L 27.265625 0 L 20.765625 0 L 20.765625 -3.359375 L 20.28125 -3.453125 C 19.5625 -2.234375 18.578125 -1.269531 17.328125 -0.5625 C 16.078125 0.144531 14.5625 0.5 12.78125 0.5 Z M 14.890625 -5.015625 C 16.710938 -5.015625 18.15625 -5.664062 19.21875 -6.96875 C 20.28125 -8.28125 20.8125 -10.265625 20.8125 -12.921875 C 20.8125 -15.578125 20.28125 -17.5625 19.21875 -18.875 C 18.15625 -20.1875 16.710938 -20.84375 14.890625 -20.84375 C 12.984375 -20.84375 11.523438 -20.203125 10.515625 -18.921875 C 9.503906 -17.648438 9 -15.648438 9 -12.921875 C 9 -10.203125 9.503906 -8.203125 10.515625 -6.921875 C 11.523438 -5.648438 12.984375 -5.015625 14.890625 -5.015625 Z M 14.890625 -5.015625 "/></g></g><g transform="translate(304.101549, 194.549985)"><g><path d="M 10.078125 0.5 C 8.421875 0.5 6.984375 0.191406 5.765625 -0.421875 C 4.546875 -1.035156 3.609375 -1.929688 2.953125 -3.109375 C 2.296875 -4.285156 1.96875 -5.703125 1.96875 -7.359375 C 1.96875 -8.890625 2.296875 -10.175781 2.953125 -11.21875 C 3.609375 -12.257812 4.625 -13.109375 6 -13.765625 C 7.375 -14.429688 9.171875 -14.945312 11.390625 -15.3125 C 12.941406 -15.5625 14.117188 -15.832031 14.921875 -16.125 C 15.722656 -16.425781 16.265625 -16.765625 16.546875 -17.140625 C 16.828125 -17.515625 16.96875 -17.988281 16.96875 -18.5625 C 16.96875 -19.394531 16.675781 -20.03125 16.09375 -20.46875 C 15.519531 -20.90625 14.5625 -21.125 13.21875 -21.125 C 11.78125 -21.125 10.410156 -20.800781 9.109375 -20.15625 C 7.816406 -19.519531 6.695312 -18.675781 5.75 -17.625 L 5.28125 -17.625 L 2.5625 -21.734375 C 3.875 -23.179688 5.472656 -24.3125 7.359375 -25.125 C 9.253906 -25.9375 11.316406 -26.34375 13.546875 -26.34375 C 16.972656 -26.34375 19.453125 -25.613281 20.984375 -24.15625 C 22.515625 -22.707031 23.28125 -20.648438 23.28125 -17.984375 L 23.28125 -6.75 C 23.28125 -5.59375 23.785156 -5.015625 24.796875 -5.015625 C 25.191406 -5.015625 25.578125 -5.085938 25.953125 -5.234375 L 26.28125 -5.140625 L 26.75 -0.609375 C 26.382812 -0.378906 25.878906 -0.1875 25.234375 -0.03125 C 24.597656 0.113281 23.898438 0.1875 23.140625 0.1875 C 21.585938 0.1875 20.378906 -0.109375 19.515625 -0.703125 C 18.648438 -1.296875 18.03125 -2.226562 17.65625 -3.5 L 17.15625 -3.546875 C 15.894531 -0.847656 13.535156 0.5 10.078125 0.5 Z M 12.140625 -4.359375 C 13.640625 -4.359375 14.835938 -4.863281 15.734375 -5.875 C 16.640625 -6.882812 17.09375 -8.285156 17.09375 -10.078125 L 17.09375 -12.703125 L 16.640625 -12.796875 C 16.253906 -12.484375 15.742188 -12.222656 15.109375 -12.015625 C 14.472656 -11.804688 13.5625 -11.597656 12.375 -11.390625 C 10.96875 -11.160156 9.957031 -10.757812 9.34375 -10.1875 C 8.726562 -9.613281 8.421875 -8.804688 8.421875 -7.765625 C 8.421875 -6.648438 8.75 -5.800781 9.40625 -5.21875 C 10.0625 -4.644531 10.972656 -4.359375 12.140625 -4.359375 Z M 12.140625 -4.359375 "/></g></g><g transform="translate(331.359359, 194.549985)"><g><path d="M 17.84375 -6.171875 L 19.53125 -1.359375 C 18.820312 -0.785156 17.9375 -0.332031 16.875 0 C 15.8125 0.332031 14.609375 0.5 13.265625 0.5 C 10.472656 0.5 8.347656 -0.257812 6.890625 -1.78125 C 5.441406 -3.3125 4.71875 -5.53125 4.71875 -8.4375 L 4.71875 -20.71875 L 0.78125 -20.71875 L 0.78125 -25.875 L 4.71875 -25.875 L 4.71875 -30.921875 L 11.203125 -31.96875 L 11.203125 -25.875 L 18.546875 -25.875 L 18.546875 -20.71875 L 11.203125 -20.71875 L 11.203125 -8.90625 C 11.203125 -7.625 11.46875 -6.691406 12 -6.109375 C 12.53125 -5.523438 13.304688 -5.234375 14.328125 -5.234375 C 15.484375 -5.234375 16.488281 -5.546875 17.34375 -6.171875 Z M 17.84375 -6.171875 "/></g></g><g transform="translate(351.445295, 194.549985)"><g><path d="M 10.078125 0.5 C 8.421875 0.5 6.984375 0.191406 5.765625 -0.421875 C 4.546875 -1.035156 3.609375 -1.929688 2.953125 -3.109375 C 2.296875 -4.285156 1.96875 -5.703125 1.96875 -7.359375 C 1.96875 -8.890625 2.296875 -10.175781 2.953125 -11.21875 C 3.609375 -12.257812 4.625 -13.109375 6 -13.765625 C 7.375 -14.429688 9.171875 -14.945312 11.390625 -15.3125 C 12.941406 -15.5625 14.117188 -15.832031 14.921875 -16.125 C 15.722656 -16.425781 16.265625 -16.765625 16.546875 -17.140625 C 16.828125 -17.515625 16.96875 -17.988281 16.96875 -18.5625 C 16.96875 -19.394531 16.675781 -20.03125 16.09375 -20.46875 C 15.519531 -20.90625 14.5625 -21.125 13.21875 -21.125 C 11.78125 -21.125 10.410156 -20.800781 9.109375 -20.15625 C 7.816406 -19.519531 6.695312 -18.675781 5.75 -17.625 L 5.28125 -17.625 L 2.5625 -21.734375 C 3.875 -23.179688 5.472656 -24.3125 7.359375 -25.125 C 9.253906 -25.9375 11.316406 -26.34375 13.546875 -26.34375 C 16.972656 -26.34375 19.453125 -25.613281 20.984375 -24.15625 C 22.515625 -22.707031 23.28125 -20.648438 23.28125 -17.984375 L 23.28125 -6.75 C 23.28125 -5.59375 23.785156 -5.015625 24.796875 -5.015625 C 25.191406 -5.015625 25.578125 -5.085938 25.953125 -5.234375 L 26.28125 -5.140625 L 26.75 -0.609375 C 26.382812 -0.378906 25.878906 -0.1875 25.234375 -0.03125 C 24.597656 0.113281 23.898438 0.1875 23.140625 0.1875 C 21.585938 0.1875 20.378906 -0.109375 19.515625 -0.703125 C 18.648438 -1.296875 18.03125 -2.226562 17.65625 -3.5 L 17.15625 -3.546875 C 15.894531 -0.847656 13.535156 0.5 10.078125 0.5 Z M 12.140625 -4.359375 C 13.640625 -4.359375 14.835938 -4.863281 15.734375 -5.875 C 16.640625 -6.882812 17.09375 -8.285156 17.09375 -10.078125 L 17.09375 -12.703125 L 16.640625 -12.796875 C 16.253906 -12.484375 15.742188 -12.222656 15.109375 -12.015625 C 14.472656 -11.804688 13.5625 -11.597656 12.375 -11.390625 C 10.96875 -11.160156 9.957031 -10.757812 9.34375 -10.1875 C 8.726562 -9.613281 8.421875 -8.804688 8.421875 -7.765625 C 8.421875 -6.648438 8.75 -5.800781 9.40625 -5.21875 C 10.0625 -4.644531 10.972656 -4.359375 12.140625 -4.359375 Z M 12.140625 -4.359375 "/></g></g><g transform="translate(378.703105, 194.549985)"><g/></g><g transform="translate(390.023417, 194.549985)"><g><path d="M 18.078125 0.5 C 14.773438 0.5 12.320312 -0.738281 10.71875 -3.21875 L 10.21875 -3.125 L 10.21875 0 L 3.734375 0 L 3.734375 -36.234375 L 10.21875 -36.234375 L 10.21875 -22.8125 L 10.71875 -22.71875 C 11.601562 -23.945312 12.648438 -24.859375 13.859375 -25.453125 C 15.078125 -26.046875 16.53125 -26.34375 18.21875 -26.34375 C 20.3125 -26.34375 22.140625 -25.847656 23.703125 -24.859375 C 25.265625 -23.878906 26.484375 -22.382812 27.359375 -20.375 C 28.234375 -18.375 28.671875 -15.890625 28.671875 -12.921875 C 28.671875 -9.984375 28.21875 -7.507812 27.3125 -5.5 C 26.40625 -3.488281 25.15625 -1.984375 23.5625 -0.984375 C 21.96875 0.00390625 20.140625 0.5 18.078125 0.5 Z M 16.109375 -5.015625 C 18.015625 -5.015625 19.46875 -5.648438 20.46875 -6.921875 C 21.46875 -8.203125 21.96875 -10.203125 21.96875 -12.921875 C 21.96875 -15.648438 21.46875 -17.648438 20.46875 -18.921875 C 19.46875 -20.203125 18.015625 -20.84375 16.109375 -20.84375 C 14.273438 -20.84375 12.820312 -20.1875 11.75 -18.875 C 10.6875 -17.5625 10.15625 -15.578125 10.15625 -12.921875 C 10.15625 -10.265625 10.6875 -8.28125 11.75 -6.96875 C 12.820312 -5.664062 14.273438 -5.015625 16.109375 -5.015625 Z M 16.109375 -5.015625 "/></g></g><g transform="translate(420.984352, 194.549985)"><g><path d="M 25.546875 -11.46875 L 8.9375 -11.46875 C 9.125 -9.21875 9.765625 -7.578125 10.859375 -6.546875 C 11.953125 -5.523438 13.441406 -5.015625 15.328125 -5.015625 C 16.816406 -5.015625 18.019531 -5.289062 18.9375 -5.84375 C 19.863281 -6.40625 20.609375 -7.25 21.171875 -8.375 L 21.65625 -8.375 L 25.96875 -5.609375 C 25.125 -3.796875 23.847656 -2.320312 22.140625 -1.1875 C 20.441406 -0.0625 18.171875 0.5 15.328125 0.5 C 12.660156 0.5 10.351562 -0.0078125 8.40625 -1.03125 C 6.457031 -2.050781 4.957031 -3.5625 3.90625 -5.5625 C 2.851562 -7.570312 2.328125 -10.023438 2.328125 -12.921875 C 2.328125 -15.859375 2.878906 -18.332031 3.984375 -20.34375 C 5.097656 -22.363281 6.597656 -23.867188 8.484375 -24.859375 C 10.378906 -25.847656 12.503906 -26.34375 14.859375 -26.34375 C 18.515625 -26.34375 21.316406 -25.375 23.265625 -23.4375 C 25.210938 -21.5 26.1875 -18.65625 26.1875 -14.90625 C 26.1875 -13.550781 26.140625 -12.5 26.046875 -11.75 Z M 19.96875 -15.65625 C 19.90625 -17.625 19.445312 -19.054688 18.59375 -19.953125 C 17.75 -20.859375 16.503906 -21.3125 14.859375 -21.3125 C 11.578125 -21.3125 9.648438 -19.425781 9.078125 -15.65625 Z M 19.96875 -15.65625 "/></g></g><g transform="translate(449.085912, 194.549985)"><g><path d="M 17.84375 -6.171875 L 19.53125 -1.359375 C 18.820312 -0.785156 17.9375 -0.332031 16.875 0 C 15.8125 0.332031 14.609375 0.5 13.265625 0.5 C 10.472656 0.5 8.347656 -0.257812 6.890625 -1.78125 C 5.441406 -3.3125 4.71875 -5.53125 4.71875 -8.4375 L 4.71875 -20.71875 L 0.78125 -20.71875 L 0.78125 -25.875 L 4.71875 -25.875 L 4.71875 -30.921875 L 11.203125 -31.96875 L 11.203125 -25.875 L 18.546875 -25.875 L 18.546875 -20.71875 L 11.203125 -20.71875 L 11.203125 -8.90625 C 11.203125 -7.625 11.46875 -6.691406 12 -6.109375 C 12.53125 -5.523438 13.304688 -5.234375 14.328125 -5.234375 C 15.484375 -5.234375 16.488281 -5.546875 17.34375 -6.171875 Z M 17.84375 -6.171875 "/></g></g><g transform="translate(469.171848, 194.549985)"><g><path d="M 13.875 0 L 7.078125 0 L 0.9375 -25.859375 L 6.96875 -25.859375 L 10.765625 -8.375 L 11.25 -8.375 L 16.171875 -25.859375 L 21.796875 -25.859375 L 26.890625 -8.375 L 27.375 -8.375 L 31.03125 -25.859375 L 36.890625 -25.859375 L 30.828125 0 L 24 0 L 19.109375 -17.609375 L 18.609375 -17.609375 Z M 13.875 0 "/></g></g><g transform="translate(506.976533, 194.549985)"><g><path d="M 25.546875 -11.46875 L 8.9375 -11.46875 C 9.125 -9.21875 9.765625 -7.578125 10.859375 -6.546875 C 11.953125 -5.523438 13.441406 -5.015625 15.328125 -5.015625 C 16.816406 -5.015625 18.019531 -5.289062 18.9375 -5.84375 C 19.863281 -6.40625 20.609375 -7.25 21.171875 -8.375 L 21.65625 -8.375 L 25.96875 -5.609375 C 25.125 -3.796875 23.847656 -2.320312 22.140625 -1.1875 C 20.441406 -0.0625 18.171875 0.5 15.328125 0.5 C 12.660156 0.5 10.351562 -0.0078125 8.40625 -1.03125 C 6.457031 -2.050781 4.957031 -3.5625 3.90625 -5.5625 C 2.851562 -7.570312 2.328125 -10.023438 2.328125 -12.921875 C 2.328125 -15.859375 2.878906 -18.332031 3.984375 -20.34375 C 5.097656 -22.363281 6.597656 -23.867188 8.484375 -24.859375 C 10.378906 -25.847656 12.503906 -26.34375 14.859375 -26.34375 C 18.515625 -26.34375 21.316406 -25.375 23.265625 -23.4375 C 25.210938 -21.5 26.1875 -18.65625 26.1875 -14.90625 C 26.1875 -13.550781 26.140625 -12.5 26.046875 -11.75 Z M 19.96875 -15.65625 C 19.90625 -17.625 19.445312 -19.054688 18.59375 -19.953125 C 17.75 -20.859375 16.503906 -21.3125 14.859375 -21.3125 C 11.578125 -21.3125 9.648438 -19.425781 9.078125 -15.65625 Z M 19.96875 -15.65625 "/></g></g><g transform="translate(535.078093, 194.549985)"><g><path d="M 25.546875 -11.46875 L 8.9375 -11.46875 C 9.125 -9.21875 9.765625 -7.578125 10.859375 -6.546875 C 11.953125 -5.523438 13.441406 -5.015625 15.328125 -5.015625 C 16.816406 -5.015625 18.019531 -5.289062 18.9375 -5.84375 C 19.863281 -6.40625 20.609375 -7.25 21.171875 -8.375 L 21.65625 -8.375 L 25.96875 -5.609375 C 25.125 -3.796875 23.847656 -2.320312 22.140625 -1.1875 C 20.441406 -0.0625 18.171875 0.5 15.328125 0.5 C 12.660156 0.5 10.351562 -0.0078125 8.40625 -1.03125 C 6.457031 -2.050781 4.957031 -3.5625 3.90625 -5.5625 C 2.851562 -7.570312 2.328125 -10.023438 2.328125 -12.921875 C 2.328125 -15.859375 2.878906 -18.332031 3.984375 -20.34375 C 5.097656 -22.363281 6.597656 -23.867188 8.484375 -24.859375 C 10.378906 -25.847656 12.503906 -26.34375 14.859375 -26.34375 C 18.515625 -26.34375 21.316406 -25.375 23.265625 -23.4375 C 25.210938 -21.5 26.1875 -18.65625 26.1875 -14.90625 C 26.1875 -13.550781 26.140625 -12.5 26.046875 -11.75 Z M 19.96875 -15.65625 C 19.90625 -17.625 19.445312 -19.054688 18.59375 -19.953125 C 17.75 -20.859375 16.503906 -21.3125 14.859375 -21.3125 C 11.578125 -21.3125 9.648438 -19.425781 9.078125 -15.65625 Z M 19.96875 -15.65625 "/></g></g><g transform="translate(563.179654, 194.549985)"><g><path d="M 3.734375 0 L 3.734375 -25.859375 L 9.96875 -25.859375 L 9.96875 -22.0625 L 10.453125 -21.9375 C 12.066406 -24.875 14.675781 -26.34375 18.28125 -26.34375 C 21.269531 -26.34375 23.460938 -25.53125 24.859375 -23.90625 C 26.253906 -22.28125 26.953125 -19.914062 26.953125 -16.8125 L 26.953125 0 L 20.46875 0 L 20.46875 -16.015625 C 20.46875 -17.734375 20.125 -18.96875 19.4375 -19.71875 C 18.75 -20.476562 17.644531 -20.859375 16.125 -20.859375 C 14.269531 -20.859375 12.820312 -20.253906 11.78125 -19.046875 C 10.738281 -17.847656 10.21875 -15.960938 10.21875 -13.390625 L 10.21875 0 Z M 3.734375 0 "/></g></g></g><g fill="#ffde59" fill-opacity="1"><g transform="translate(22.933603, 261.29998)"><g><path d="M 3.734375 0 L 3.734375 -25.859375 L 9.96875 -25.859375 L 9.96875 -22.390625 L 10.453125 -22.296875 C 11.296875 -23.679688 12.285156 -24.703125 13.421875 -25.359375 C 14.554688 -26.015625 16.003906 -26.34375 17.765625 -26.34375 C 19.722656 -26.34375 21.296875 -25.957031 22.484375 -25.1875 C 23.671875 -24.414062 24.535156 -23.285156 25.078125 -21.796875 L 25.578125 -21.796875 C 26.367188 -23.347656 27.394531 -24.492188 28.65625 -25.234375 C 29.914062 -25.972656 31.484375 -26.34375 33.359375 -26.34375 C 38.710938 -26.34375 41.390625 -23.359375 41.390625 -17.390625 L 41.390625 0 L 34.90625 0 L 34.90625 -16.578125 C 34.90625 -18.085938 34.609375 -19.175781 34.015625 -19.84375 C 33.421875 -20.519531 32.46875 -20.859375 31.15625 -20.859375 C 27.59375 -20.859375 25.8125 -18.476562 25.8125 -13.71875 L 25.8125 0 L 19.3125 0 L 19.3125 -16.578125 C 19.3125 -18.085938 19.007812 -19.175781 18.40625 -19.84375 C 17.8125 -20.519531 16.859375 -20.859375 15.546875 -20.859375 C 13.867188 -20.859375 12.5625 -20.300781 11.625 -19.1875 C 10.6875 -18.070312 10.21875 -16.296875 10.21875 -13.859375 L 10.21875 0 Z M 3.734375 0 "/></g></g><g transform="translate(67.65235, 261.29998)"><g><path d="M 25.546875 -11.46875 L 8.9375 -11.46875 C 9.125 -9.21875 9.765625 -7.578125 10.859375 -6.546875 C 11.953125 -5.523438 13.441406 -5.015625 15.328125 -5.015625 C 16.816406 -5.015625 18.019531 -5.289062 18.9375 -5.84375 C 19.863281 -6.40625 20.609375 -7.25 21.171875 -8.375 L 21.65625 -8.375 L 25.96875 -5.609375 C 25.125 -3.796875 23.847656 -2.320312 22.140625 -1.1875 C 20.441406 -0.0625 18.171875 0.5 15.328125 0.5 C 12.660156 0.5 10.351562 -0.0078125 8.40625 -1.03125 C 6.457031 -2.050781 4.957031 -3.5625 3.90625 -5.5625 C 2.851562 -7.570312 2.328125 -10.023438 2.328125 -12.921875 C 2.328125 -15.859375 2.878906 -18.332031 3.984375 -20.34375 C 5.097656 -22.363281 6.597656 -23.867188 8.484375 -24.859375 C 10.378906 -25.847656 12.503906 -26.34375 14.859375 -26.34375 C 18.515625 -26.34375 21.316406 -25.375 23.265625 -23.4375 C 25.210938 -21.5 26.1875 -18.65625 26.1875 -14.90625 C 26.1875 -13.550781 26.140625 -12.5 26.046875 -11.75 Z M 19.96875 -15.65625 C 19.90625 -17.625 19.445312 -19.054688 18.59375 -19.953125 C 17.75 -20.859375 16.503906 -21.3125 14.859375 -21.3125 C 11.578125 -21.3125 9.648438 -19.425781 9.078125 -15.65625 Z M 19.96875 -15.65625 "/></g></g><g transform="translate(95.75391, 261.29998)"><g><path d="M 3.734375 0 L 3.734375 -25.859375 L 9.96875 -25.859375 L 9.96875 -22.390625 L 10.453125 -22.296875 C 11.296875 -23.679688 12.285156 -24.703125 13.421875 -25.359375 C 14.554688 -26.015625 16.003906 -26.34375 17.765625 -26.34375 C 19.722656 -26.34375 21.296875 -25.957031 22.484375 -25.1875 C 23.671875 -24.414062 24.535156 -23.285156 25.078125 -21.796875 L 25.578125 -21.796875 C 26.367188 -23.347656 27.394531 -24.492188 28.65625 -25.234375 C 29.914062 -25.972656 31.484375 -26.34375 33.359375 -26.34375 C 38.710938 -26.34375 41.390625 -23.359375 41.390625 -17.390625 L 41.390625 0 L 34.90625 0 L 34.90625 -16.578125 C 34.90625 -18.085938 34.609375 -19.175781 34.015625 -19.84375 C 33.421875 -20.519531 32.46875 -20.859375 31.15625 -20.859375 C 27.59375 -20.859375 25.8125 -18.476562 25.8125 -13.71875 L 25.8125 0 L 19.3125 0 L 19.3125 -16.578125 C 19.3125 -18.085938 19.007812 -19.175781 18.40625 -19.84375 C 17.8125 -20.519531 16.859375 -20.859375 15.546875 -20.859375 C 13.867188 -20.859375 12.5625 -20.300781 11.625 -19.1875 C 10.6875 -18.070312 10.21875 -16.296875 10.21875 -13.859375 L 10.21875 0 Z M 3.734375 0 "/></g></g><g transform="translate(140.472657, 261.29998)"><g><path d="M 15.03125 0.5 C 12.5 0.5 10.273438 -0.0195312 8.359375 -1.0625 C 6.441406 -2.101562 4.957031 -3.628906 3.90625 -5.640625 C 2.851562 -7.648438 2.328125 -10.078125 2.328125 -12.921875 C 2.328125 -15.765625 2.851562 -18.191406 3.90625 -20.203125 C 4.957031 -22.222656 6.441406 -23.75 8.359375 -24.78125 C 10.273438 -25.820312 12.5 -26.34375 15.03125 -26.34375 C 17.5625 -26.34375 19.78125 -25.820312 21.6875 -24.78125 C 23.601562 -23.75 25.09375 -22.222656 26.15625 -20.203125 C 27.21875 -18.191406 27.75 -15.765625 27.75 -12.921875 C 27.75 -10.078125 27.21875 -7.648438 26.15625 -5.640625 C 25.09375 -3.628906 23.601562 -2.101562 21.6875 -1.0625 C 19.78125 -0.0195312 17.5625 0.5 15.03125 0.5 Z M 15.03125 -5.015625 C 19.039062 -5.015625 21.046875 -7.648438 21.046875 -12.921875 C 21.046875 -15.648438 20.53125 -17.648438 19.5 -18.921875 C 18.46875 -20.203125 16.976562 -20.84375 15.03125 -20.84375 C 11.007812 -20.84375 9 -18.203125 9 -12.921875 C 9 -7.648438 11.007812 -5.015625 15.03125 -5.015625 Z M 15.03125 -5.015625 "/></g></g><g transform="translate(170.519529, 261.29998)"><g><path d="M 3.734375 0 L 3.734375 -25.859375 L 10.03125 -25.859375 L 10.03125 -22.015625 L 10.53125 -21.921875 C 11.15625 -23.359375 11.972656 -24.410156 12.984375 -25.078125 C 14.003906 -25.753906 15.238281 -26.09375 16.6875 -26.09375 C 18.15625 -26.09375 19.273438 -25.84375 20.046875 -25.34375 L 18.9375 -19.734375 L 18.453125 -19.640625 C 18.023438 -19.816406 17.613281 -19.941406 17.21875 -20.015625 C 16.832031 -20.097656 16.359375 -20.140625 15.796875 -20.140625 C 13.984375 -20.140625 12.597656 -19.5 11.640625 -18.21875 C 10.691406 -16.945312 10.21875 -14.90625 10.21875 -12.09375 L 10.21875 0 Z M 3.734375 0 "/></g></g><g transform="translate(190.792965, 261.29998)"><g><path d="M 5.71875 10.96875 C 4.613281 10.96875 3.609375 10.878906 2.703125 10.703125 C 1.804688 10.535156 1.078125 10.3125 0.515625 10.03125 L 1.546875 4.78125 L 1.96875 4.640625 C 2.363281 4.847656 2.847656 5.015625 3.421875 5.140625 C 4.003906 5.265625 4.597656 5.328125 5.203125 5.328125 C 6.253906 5.328125 7.125 5.1875 7.8125 4.90625 C 8.507812 4.632812 9.097656 4.179688 9.578125 3.546875 C 10.066406 2.921875 10.5 2.046875 10.875 0.921875 L 0.5625 -25.859375 L 7.359375 -25.859375 L 13.78125 -7.875 L 14.34375 -7.875 L 20.609375 -25.859375 L 27.21875 -25.859375 L 16.828125 1.625 C 16.003906 3.84375 15.09375 5.625 14.09375 6.96875 C 13.101562 8.320312 11.929688 9.328125 10.578125 9.984375 C 9.234375 10.640625 7.613281 10.96875 5.71875 10.96875 Z M 5.71875 10.96875 "/></g></g><g transform="translate(218.542963, 261.29998)"><g/></g><g transform="translate(229.863274, 261.29998)"><g><path d="M 10.078125 0.5 C 8.421875 0.5 6.984375 0.191406 5.765625 -0.421875 C 4.546875 -1.035156 3.609375 -1.929688 2.953125 -3.109375 C 2.296875 -4.285156 1.96875 -5.703125 1.96875 -7.359375 C 1.96875 -8.890625 2.296875 -10.175781 2.953125 -11.21875 C 3.609375 -12.257812 4.625 -13.109375 6 -13.765625 C 7.375 -14.429688 9.171875 -14.945312 11.390625 -15.3125 C 12.941406 -15.5625 14.117188 -15.832031 14.921875 -16.125 C 15.722656 -16.425781 16.265625 -16.765625 16.546875 -17.140625 C 16.828125 -17.515625 16.96875 -17.988281 16.96875 -18.5625 C 16.96875 -19.394531 16.675781 -20.03125 16.09375 -20.46875 C 15.519531 -20.90625 14.5625 -21.125 13.21875 -21.125 C 11.78125 -21.125 10.410156 -20.800781 9.109375 -20.15625 C 7.816406 -19.519531 6.695312 -18.675781 5.75 -17.625 L 5.28125 -17.625 L 2.5625 -21.734375 C 3.875 -23.179688 5.472656 -24.3125 7.359375 -25.125 C 9.253906 -25.9375 11.316406 -26.34375 13.546875 -26.34375 C 16.972656 -26.34375 19.453125 -25.613281 20.984375 -24.15625 C 22.515625 -22.707031 23.28125 -20.648438 23.28125 -17.984375 L 23.28125 -6.75 C 23.28125 -5.59375 23.785156 -5.015625 24.796875 -5.015625 C 25.191406 -5.015625 25.578125 -5.085938 25.953125 -5.234375 L 26.28125 -5.140625 L 26.75 -0.609375 C 26.382812 -0.378906 25.878906 -0.1875 25.234375 -0.03125 C 24.597656 0.113281 23.898438 0.1875 23.140625 0.1875 C 21.585938 0.1875 20.378906 -0.109375 19.515625 -0.703125 C 18.648438 -1.296875 18.03125 -2.226562 17.65625 -3.5 L 17.15625 -3.546875 C 15.894531 -0.847656 13.535156 0.5 10.078125 0.5 Z M 12.140625 -4.359375 C 13.640625 -4.359375 14.835938 -4.863281 15.734375 -5.875 C 16.640625 -6.882812 17.09375 -8.285156 17.09375 -10.078125 L 17.09375 -12.703125 L 16.640625 -12.796875 C 16.253906 -12.484375 15.742188 -12.222656 15.109375 -12.015625 C 14.472656 -11.804688 13.5625 -11.597656 12.375 -11.390625 C 10.96875 -11.160156 9.957031 -10.757812 9.34375 -10.1875 C 8.726562 -9.613281 8.421875 -8.804688 8.421875 -7.765625 C 8.421875 -6.648438 8.75 -5.800781 9.40625 -5.21875 C 10.0625 -4.644531 10.972656 -4.359375 12.140625 -4.359375 Z M 12.140625 -4.359375 "/></g></g><g transform="translate(257.121085, 261.29998)"><g><path d="M 3.734375 0 L 3.734375 -25.859375 L 9.96875 -25.859375 L 9.96875 -22.0625 L 10.453125 -21.9375 C 12.066406 -24.875 14.675781 -26.34375 18.28125 -26.34375 C 21.269531 -26.34375 23.460938 -25.53125 24.859375 -23.90625 C 26.253906 -22.28125 26.953125 -19.914062 26.953125 -16.8125 L 26.953125 0 L 20.46875 0 L 20.46875 -16.015625 C 20.46875 -17.734375 20.125 -18.96875 19.4375 -19.71875 C 18.75 -20.476562 17.644531 -20.859375 16.125 -20.859375 C 14.269531 -20.859375 12.820312 -20.253906 11.78125 -19.046875 C 10.738281 -17.847656 10.21875 -15.960938 10.21875 -13.390625 L 10.21875 0 Z M 3.734375 0 "/></g></g><g transform="translate(287.402332, 261.29998)"><g><path d="M 12.78125 0.5 C 10.726562 0.5 8.914062 0.00390625 7.34375 -0.984375 C 5.78125 -1.984375 4.550781 -3.488281 3.65625 -5.5 C 2.769531 -7.507812 2.328125 -9.984375 2.328125 -12.921875 C 2.328125 -15.867188 2.78125 -18.347656 3.6875 -20.359375 C 4.601562 -22.367188 5.867188 -23.867188 7.484375 -24.859375 C 9.109375 -25.847656 10.984375 -26.34375 13.109375 -26.34375 C 14.710938 -26.34375 16.101562 -26.066406 17.28125 -25.515625 C 18.46875 -24.960938 19.46875 -24.097656 20.28125 -22.921875 L 20.765625 -23.046875 L 20.765625 -36.234375 L 27.265625 -36.234375 L 27.265625 0 L 20.765625 0 L 20.765625 -3.359375 L 20.28125 -3.453125 C 19.5625 -2.234375 18.578125 -1.269531 17.328125 -0.5625 C 16.078125 0.144531 14.5625 0.5 12.78125 0.5 Z M 14.890625 -5.015625 C 16.710938 -5.015625 18.15625 -5.664062 19.21875 -6.96875 C 20.28125 -8.28125 20.8125 -10.265625 20.8125 -12.921875 C 20.8125 -15.578125 20.28125 -17.5625 19.21875 -18.875 C 18.15625 -20.1875 16.710938 -20.84375 14.890625 -20.84375 C 12.984375 -20.84375 11.523438 -20.203125 10.515625 -18.921875 C 9.503906 -17.648438 9 -15.648438 9 -12.921875 C 9 -10.203125 9.503906 -8.203125 10.515625 -6.921875 C 11.523438 -5.648438 12.984375 -5.015625 14.890625 -5.015625 Z M 14.890625 -5.015625 "/></g></g><g transform="translate(318.386705, 261.29998)"><g/></g><g transform="translate(329.707016, 261.29998)"><g><path d="M 3.734375 10.484375 L 3.734375 -25.859375 L 10.21875 -25.859375 L 10.21875 -22.484375 L 10.71875 -22.390625 C 11.476562 -23.703125 12.5 -24.6875 13.78125 -25.34375 C 15.0625 -26.007812 16.5625 -26.34375 18.28125 -26.34375 C 20.363281 -26.34375 22.179688 -25.847656 23.734375 -24.859375 C 25.285156 -23.878906 26.492188 -22.382812 27.359375 -20.375 C 28.234375 -18.375 28.671875 -15.890625 28.671875 -12.921875 C 28.671875 -9.960938 28.210938 -7.484375 27.296875 -5.484375 C 26.378906 -3.484375 25.109375 -1.984375 23.484375 -0.984375 C 21.859375 0.00390625 19.984375 0.5 17.859375 0.5 C 16.253906 0.5 14.863281 0.226562 13.6875 -0.3125 C 12.519531 -0.851562 11.53125 -1.695312 10.71875 -2.84375 L 10.21875 -2.75 L 10.21875 10.484375 Z M 16.0625 -5.015625 C 18 -5.015625 19.46875 -5.644531 20.46875 -6.90625 C 21.46875 -8.175781 21.96875 -10.179688 21.96875 -12.921875 C 21.96875 -15.648438 21.46875 -17.648438 20.46875 -18.921875 C 19.46875 -20.203125 18 -20.84375 16.0625 -20.84375 C 14.25 -20.84375 12.8125 -20.1875 11.75 -18.875 C 10.6875 -17.5625 10.15625 -15.578125 10.15625 -12.921875 C 10.15625 -10.273438 10.6875 -8.296875 11.75 -6.984375 C 12.8125 -5.671875 14.25 -5.015625 16.0625 -5.015625 Z M 16.0625 -5.015625 "/></g></g><g transform="translate(360.667951, 261.29998)"><g><path d="M 3.734375 0 L 3.734375 -25.859375 L 10.03125 -25.859375 L 10.03125 -22.015625 L 10.53125 -21.921875 C 11.15625 -23.359375 11.972656 -24.410156 12.984375 -25.078125 C 14.003906 -25.753906 15.238281 -26.09375 16.6875 -26.09375 C 18.15625 -26.09375 19.273438 -25.84375 20.046875 -25.34375 L 18.9375 -19.734375 L 18.453125 -19.640625 C 18.023438 -19.816406 17.613281 -19.941406 17.21875 -20.015625 C 16.832031 -20.097656 16.359375 -20.140625 15.796875 -20.140625 C 13.984375 -20.140625 12.597656 -19.5 11.640625 -18.21875 C 10.691406 -16.945312 10.21875 -14.90625 10.21875 -12.09375 L 10.21875 0 Z M 3.734375 0 "/></g></g><g transform="translate(380.941387, 261.29998)"><g><path d="M 15.03125 0.5 C 12.5 0.5 10.273438 -0.0195312 8.359375 -1.0625 C 6.441406 -2.101562 4.957031 -3.628906 3.90625 -5.640625 C 2.851562 -7.648438 2.328125 -10.078125 2.328125 -12.921875 C 2.328125 -15.765625 2.851562 -18.191406 3.90625 -20.203125 C 4.957031 -22.222656 6.441406 -23.75 8.359375 -24.78125 C 10.273438 -25.820312 12.5 -26.34375 15.03125 -26.34375 C 17.5625 -26.34375 19.78125 -25.820312 21.6875 -24.78125 C 23.601562 -23.75 25.09375 -22.222656 26.15625 -20.203125 C 27.21875 -18.191406 27.75 -15.765625 27.75 -12.921875 C 27.75 -10.078125 27.21875 -7.648438 26.15625 -5.640625 C 25.09375 -3.628906 23.601562 -2.101562 21.6875 -1.0625 C 19.78125 -0.0195312 17.5625 0.5 15.03125 0.5 Z M 15.03125 -5.015625 C 19.039062 -5.015625 21.046875 -7.648438 21.046875 -12.921875 C 21.046875 -15.648438 20.53125 -17.648438 19.5 -18.921875 C 18.46875 -20.203125 16.976562 -20.84375 15.03125 -20.84375 C 11.007812 -20.84375 9 -18.203125 9 -12.921875 C 9 -7.648438 11.007812 -5.015625 15.03125 -5.015625 Z M 15.03125 -5.015625 "/></g></g><g transform="translate(410.98826, 261.29998)"><g><path d="M 15.078125 0.5 C 12.578125 0.5 10.363281 -0.0195312 8.4375 -1.0625 C 6.519531 -2.101562 5.019531 -3.628906 3.9375 -5.640625 C 2.863281 -7.660156 2.328125 -10.085938 2.328125 -12.921875 C 2.328125 -15.765625 2.863281 -18.191406 3.9375 -20.203125 C 5.019531 -22.222656 6.515625 -23.75 8.421875 -24.78125 C 10.328125 -25.820312 12.503906 -26.34375 14.953125 -26.34375 C 20.410156 -26.34375 23.90625 -24.367188 25.4375 -20.421875 L 20.984375 -17.234375 L 20.484375 -17.234375 C 19.953125 -18.453125 19.257812 -19.359375 18.40625 -19.953125 C 17.5625 -20.546875 16.410156 -20.84375 14.953125 -20.84375 C 13.078125 -20.84375 11.613281 -20.191406 10.5625 -18.890625 C 9.519531 -17.597656 9 -15.609375 9 -12.921875 C 9 -10.265625 9.53125 -8.28125 10.59375 -6.96875 C 11.65625 -5.664062 13.148438 -5.015625 15.078125 -5.015625 C 16.484375 -5.015625 17.671875 -5.394531 18.640625 -6.15625 C 19.617188 -6.914062 20.320312 -8.003906 20.75 -9.421875 L 21.234375 -9.46875 L 25.859375 -6.9375 C 25.203125 -4.75 23.984375 -2.960938 22.203125 -1.578125 C 20.429688 -0.191406 18.054688 0.5 15.078125 0.5 Z M 15.078125 0.5 "/></g></g><g transform="translate(437.636695, 261.29998)"><g><path d="M 25.546875 -11.46875 L 8.9375 -11.46875 C 9.125 -9.21875 9.765625 -7.578125 10.859375 -6.546875 C 11.953125 -5.523438 13.441406 -5.015625 15.328125 -5.015625 C 16.816406 -5.015625 18.019531 -5.289062 18.9375 -5.84375 C 19.863281 -6.40625 20.609375 -7.25 21.171875 -8.375 L 21.65625 -8.375 L 25.96875 -5.609375 C 25.125 -3.796875 23.847656 -2.320312 22.140625 -1.1875 C 20.441406 -0.0625 18.171875 0.5 15.328125 0.5 C 12.660156 0.5 10.351562 -0.0078125 8.40625 -1.03125 C 6.457031 -2.050781 4.957031 -3.5625 3.90625 -5.5625 C 2.851562 -7.570312 2.328125 -10.023438 2.328125 -12.921875 C 2.328125 -15.859375 2.878906 -18.332031 3.984375 -20.34375 C 5.097656 -22.363281 6.597656 -23.867188 8.484375 -24.859375 C 10.378906 -25.847656 12.503906 -26.34375 14.859375 -26.34375 C 18.515625 -26.34375 21.316406 -25.375 23.265625 -23.4375 C 25.210938 -21.5 26.1875 -18.65625 26.1875 -14.90625 C 26.1875 -13.550781 26.140625 -12.5 26.046875 -11.75 Z M 19.96875 -15.65625 C 19.90625 -17.625 19.445312 -19.054688 18.59375 -19.953125 C 17.75 -20.859375 16.503906 -21.3125 14.859375 -21.3125 C 11.578125 -21.3125 9.648438 -19.425781 9.078125 -15.65625 Z M 19.96875 -15.65625 "/></g></g><g transform="translate(465.738256, 261.29998)"><g><path d="M 12.09375 0.5 C 10.332031 0.5 8.71875 0.289062 7.25 -0.125 C 5.78125 -0.539062 4.523438 -1.113281 3.484375 -1.84375 C 2.441406 -2.570312 1.671875 -3.40625 1.171875 -4.34375 L 4.78125 -8.234375 L 5.28125 -8.234375 C 6.132812 -7.078125 7.144531 -6.207031 8.3125 -5.625 C 9.488281 -5.050781 10.765625 -4.765625 12.140625 -4.765625 C 13.410156 -4.765625 14.363281 -4.988281 15 -5.4375 C 15.644531 -5.894531 15.96875 -6.546875 15.96875 -7.390625 C 15.96875 -8.046875 15.734375 -8.59375 15.265625 -9.03125 C 14.804688 -9.476562 14.0625 -9.828125 13.03125 -10.078125 L 9.609375 -10.90625 C 7.046875 -11.507812 5.175781 -12.441406 4 -13.703125 C 2.820312 -14.960938 2.234375 -16.5625 2.234375 -18.5 C 2.234375 -20.101562 2.640625 -21.5 3.453125 -22.6875 C 4.273438 -23.875 5.429688 -24.78125 6.921875 -25.40625 C 8.421875 -26.03125 10.160156 -26.34375 12.140625 -26.34375 C 14.472656 -26.34375 16.40625 -26.003906 17.9375 -25.328125 C 19.46875 -24.660156 20.660156 -23.765625 21.515625 -22.640625 L 18.046875 -18.890625 L 17.578125 -18.890625 C 16.859375 -19.703125 16.050781 -20.296875 15.15625 -20.671875 C 14.257812 -21.046875 13.253906 -21.234375 12.140625 -21.234375 C 9.578125 -21.234375 8.296875 -20.4375 8.296875 -18.84375 C 8.296875 -18.175781 8.535156 -17.628906 9.015625 -17.203125 C 9.492188 -16.785156 10.332031 -16.441406 11.53125 -16.171875 L 14.71875 -15.46875 C 17.34375 -14.90625 19.257812 -14.003906 20.46875 -12.765625 C 21.6875 -11.523438 22.296875 -9.859375 22.296875 -7.765625 C 22.296875 -6.117188 21.890625 -4.671875 21.078125 -3.421875 C 20.265625 -2.171875 19.09375 -1.203125 17.5625 -0.515625 C 16.03125 0.160156 14.207031 0.5 12.09375 0.5 Z M 12.09375 0.5 "/></g></g><g transform="translate(489.574191, 261.29998)"><g><path d="M 12.09375 0.5 C 10.332031 0.5 8.71875 0.289062 7.25 -0.125 C 5.78125 -0.539062 4.523438 -1.113281 3.484375 -1.84375 C 2.441406 -2.570312 1.671875 -3.40625 1.171875 -4.34375 L 4.78125 -8.234375 L 5.28125 -8.234375 C 6.132812 -7.078125 7.144531 -6.207031 8.3125 -5.625 C 9.488281 -5.050781 10.765625 -4.765625 12.140625 -4.765625 C 13.410156 -4.765625 14.363281 -4.988281 15 -5.4375 C 15.644531 -5.894531 15.96875 -6.546875 15.96875 -7.390625 C 15.96875 -8.046875 15.734375 -8.59375 15.265625 -9.03125 C 14.804688 -9.476562 14.0625 -9.828125 13.03125 -10.078125 L 9.609375 -10.90625 C 7.046875 -11.507812 5.175781 -12.441406 4 -13.703125 C 2.820312 -14.960938 2.234375 -16.5625 2.234375 -18.5 C 2.234375 -20.101562 2.640625 -21.5 3.453125 -22.6875 C 4.273438 -23.875 5.429688 -24.78125 6.921875 -25.40625 C 8.421875 -26.03125 10.160156 -26.34375 12.140625 -26.34375 C 14.472656 -26.34375 16.40625 -26.003906 17.9375 -25.328125 C 19.46875 -24.660156 20.660156 -23.765625 21.515625 -22.640625 L 18.046875 -18.890625 L 17.578125 -18.890625 C 16.859375 -19.703125 16.050781 -20.296875 15.15625 -20.671875 C 14.257812 -21.046875 13.253906 -21.234375 12.140625 -21.234375 C 9.578125 -21.234375 8.296875 -20.4375 8.296875 -18.84375 C 8.296875 -18.175781 8.535156 -17.628906 9.015625 -17.203125 C 9.492188 -16.785156 10.332031 -16.441406 11.53125 -16.171875 L 14.71875 -15.46875 C 17.34375 -14.90625 19.257812 -14.003906 20.46875 -12.765625 C 21.6875 -11.523438 22.296875 -9.859375 22.296875 -7.765625 C 22.296875 -6.117188 21.890625 -4.671875 21.078125 -3.421875 C 20.265625 -2.171875 19.09375 -1.203125 17.5625 -0.515625 C 16.03125 0.160156 14.207031 0.5 12.09375 0.5 Z M 12.09375 0.5 "/></g></g><g transform="translate(513.410127, 261.29998)"><g><path d="M 15.03125 0.5 C 12.5 0.5 10.273438 -0.0195312 8.359375 -1.0625 C 6.441406 -2.101562 4.957031 -3.628906 3.90625 -5.640625 C 2.851562 -7.648438 2.328125 -10.078125 2.328125 -12.921875 C 2.328125 -15.765625 2.851562 -18.191406 3.90625 -20.203125 C 4.957031 -22.222656 6.441406 -23.75 8.359375 -24.78125 C 10.273438 -25.820312 12.5 -26.34375 15.03125 -26.34375 C 17.5625 -26.34375 19.78125 -25.820312 21.6875 -24.78125 C 23.601562 -23.75 25.09375 -22.222656 26.15625 -20.203125 C 27.21875 -18.191406 27.75 -15.765625 27.75 -12.921875 C 27.75 -10.078125 27.21875 -7.648438 26.15625 -5.640625 C 25.09375 -3.628906 23.601562 -2.101562 21.6875 -1.0625 C 19.78125 -0.0195312 17.5625 0.5 15.03125 0.5 Z M 15.03125 -5.015625 C 19.039062 -5.015625 21.046875 -7.648438 21.046875 -12.921875 C 21.046875 -15.648438 20.53125 -17.648438 19.5 -18.921875 C 18.46875 -20.203125 16.976562 -20.84375 15.03125 -20.84375 C 11.007812 -20.84375 9 -18.203125 9 -12.921875 C 9 -7.648438 11.007812 -5.015625 15.03125 -5.015625 Z M 15.03125 -5.015625 "/></g></g><g transform="translate(543.456999, 261.29998)"><g><path d="M 3.734375 0 L 3.734375 -25.859375 L 10.03125 -25.859375 L 10.03125 -22.015625 L 10.53125 -21.921875 C 11.15625 -23.359375 11.972656 -24.410156 12.984375 -25.078125 C 14.003906 -25.753906 15.238281 -26.09375 16.6875 -26.09375 C 18.15625 -26.09375 19.273438 -25.84375 20.046875 -25.34375 L 18.9375 -19.734375 L 18.453125 -19.640625 C 18.023438 -19.816406 17.613281 -19.941406 17.21875 -20.015625 C 16.832031 -20.097656 16.359375 -20.140625 15.796875 -20.140625 C 13.984375 -20.140625 12.597656 -19.5 11.640625 -18.21875 C 10.691406 -16.945312 10.21875 -14.90625 10.21875 -12.09375 L 10.21875 0 Z M 3.734375 0 "/></g></g><g transform="translate(563.730435, 261.29998)"><g><path d="M 0.9375 6.890625 C 2.3125 6.046875 3.539062 5.023438 4.625 3.828125 C 5.71875 2.640625 6.300781 1.425781 6.375 0.1875 C 5.15625 0.1875 4.195312 -0.175781 3.5 -0.90625 C 2.8125 -1.632812 2.46875 -2.578125 2.46875 -3.734375 C 2.46875 -4.460938 2.632812 -5.128906 2.96875 -5.734375 C 3.300781 -6.335938 3.78125 -6.8125 4.40625 -7.15625 C 5.03125 -7.5 5.75 -7.671875 6.5625 -7.671875 C 7.875 -7.671875 8.921875 -7.238281 9.703125 -6.375 C 10.484375 -5.519531 10.875 -4.285156 10.875 -2.671875 C 10.875 0.128906 10.164062 2.5625 8.75 4.625 C 7.34375 6.6875 5.457031 8.425781 3.09375 9.84375 Z M 6.609375 -18.25 C 5.785156 -18.25 5.054688 -18.414062 4.421875 -18.75 C 3.785156 -19.09375 3.300781 -19.5625 2.96875 -20.15625 C 2.632812 -20.75 2.46875 -21.421875 2.46875 -22.171875 C 2.46875 -22.921875 2.632812 -23.59375 2.96875 -24.1875 C 3.300781 -24.78125 3.785156 -25.25 4.421875 -25.59375 C 5.054688 -25.9375 5.785156 -26.109375 6.609375 -26.109375 C 7.453125 -26.109375 8.191406 -25.941406 8.828125 -25.609375 C 9.460938 -25.273438 9.945312 -24.8125 10.28125 -24.21875 C 10.613281 -23.625 10.78125 -22.953125 10.78125 -22.203125 C 10.78125 -21.054688 10.398438 -20.109375 9.640625 -19.359375 C 8.890625 -18.617188 7.878906 -18.25 6.609375 -18.25 Z M 6.609375 -18.25 "/></g></g></g><g fill="#ffde59" fill-opacity="1"><g transform="translate(140.121097, 328.049974)"><g><path d="M 18.078125 0.5 C 14.773438 0.5 12.320312 -0.738281 10.71875 -3.21875 L 10.21875 -3.125 L 10.21875 0 L 3.734375 0 L 3.734375 -36.234375 L 10.21875 -36.234375 L 10.21875 -22.8125 L 10.71875 -22.71875 C 11.601562 -23.945312 12.648438 -24.859375 13.859375 -25.453125 C 15.078125 -26.046875 16.53125 -26.34375 18.21875 -26.34375 C 20.3125 -26.34375 22.140625 -25.847656 23.703125 -24.859375 C 25.265625 -23.878906 26.484375 -22.382812 27.359375 -20.375 C 28.234375 -18.375 28.671875 -15.890625 28.671875 -12.921875 C 28.671875 -9.984375 28.21875 -7.507812 27.3125 -5.5 C 26.40625 -3.488281 25.15625 -1.984375 23.5625 -0.984375 C 21.96875 0.00390625 20.140625 0.5 18.078125 0.5 Z M 16.109375 -5.015625 C 18.015625 -5.015625 19.46875 -5.648438 20.46875 -6.921875 C 21.46875 -8.203125 21.96875 -10.203125 21.96875 -12.921875 C 21.96875 -15.648438 21.46875 -17.648438 20.46875 -18.921875 C 19.46875 -20.203125 18.015625 -20.84375 16.109375 -20.84375 C 14.273438 -20.84375 12.820312 -20.1875 11.75 -18.875 C 10.6875 -17.5625 10.15625 -15.578125 10.15625 -12.921875 C 10.15625 -10.265625 10.6875 -8.28125 11.75 -6.96875 C 12.820312 -5.664062 14.273438 -5.015625 16.109375 -5.015625 Z M 16.109375 -5.015625 "/></g></g><g transform="translate(171.082032, 328.049974)"><g><path d="M 6.96875 -28.953125 C 5.789062 -28.953125 4.832031 -29.304688 4.09375 -30.015625 C 3.363281 -30.722656 3 -31.640625 3 -32.765625 C 3 -33.878906 3.363281 -34.789062 4.09375 -35.5 C 4.832031 -36.207031 5.789062 -36.5625 6.96875 -36.5625 C 7.75 -36.5625 8.441406 -36.394531 9.046875 -36.0625 C 9.660156 -35.738281 10.132812 -35.289062 10.46875 -34.71875 C 10.800781 -34.15625 10.96875 -33.503906 10.96875 -32.765625 C 10.96875 -32.035156 10.800781 -31.378906 10.46875 -30.796875 C 10.132812 -30.222656 9.660156 -29.769531 9.046875 -29.4375 C 8.441406 -29.113281 7.75 -28.953125 6.96875 -28.953125 Z M 3.734375 0 L 3.734375 -25.859375 L 10.21875 -25.859375 L 10.21875 0 Z M 3.734375 0 "/></g></g><g transform="translate(185.003906, 328.049974)"><g><path d="M 16.40625 -13.78125 L 2.046875 -13.78125 L 2.046875 -19.5 L 16.40625 -19.5 Z M 16.40625 -13.78125 "/></g></g><g transform="translate(203.496093, 328.049974)"><g><path d="M 12.78125 0.5 C 10.726562 0.5 8.914062 0.00390625 7.34375 -0.984375 C 5.78125 -1.984375 4.550781 -3.488281 3.65625 -5.5 C 2.769531 -7.507812 2.328125 -9.984375 2.328125 -12.921875 C 2.328125 -15.867188 2.78125 -18.347656 3.6875 -20.359375 C 4.601562 -22.367188 5.867188 -23.867188 7.484375 -24.859375 C 9.109375 -25.847656 10.984375 -26.34375 13.109375 -26.34375 C 14.710938 -26.34375 16.101562 -26.066406 17.28125 -25.515625 C 18.46875 -24.960938 19.46875 -24.097656 20.28125 -22.921875 L 20.765625 -23.046875 L 20.765625 -36.234375 L 27.265625 -36.234375 L 27.265625 0 L 20.765625 0 L 20.765625 -3.359375 L 20.28125 -3.453125 C 19.5625 -2.234375 18.578125 -1.269531 17.328125 -0.5625 C 16.078125 0.144531 14.5625 0.5 12.78125 0.5 Z M 14.890625 -5.015625 C 16.710938 -5.015625 18.15625 -5.664062 19.21875 -6.96875 C 20.28125 -8.28125 20.8125 -10.265625 20.8125 -12.921875 C 20.8125 -15.578125 20.28125 -17.5625 19.21875 -18.875 C 18.15625 -20.1875 16.710938 -20.84375 14.890625 -20.84375 C 12.984375 -20.84375 11.523438 -20.203125 10.515625 -18.921875 C 9.503906 -17.648438 9 -15.648438 9 -12.921875 C 9 -10.203125 9.503906 -8.203125 10.515625 -6.921875 C 11.523438 -5.648438 12.984375 -5.015625 14.890625 -5.015625 Z M 14.890625 -5.015625 "/></g></g><g transform="translate(234.480465, 328.049974)"><g><path d="M 6.96875 -28.953125 C 5.789062 -28.953125 4.832031 -29.304688 4.09375 -30.015625 C 3.363281 -30.722656 3 -31.640625 3 -32.765625 C 3 -33.878906 3.363281 -34.789062 4.09375 -35.5 C 4.832031 -36.207031 5.789062 -36.5625 6.96875 -36.5625 C 7.75 -36.5625 8.441406 -36.394531 9.046875 -36.0625 C 9.660156 -35.738281 10.132812 -35.289062 10.46875 -34.71875 C 10.800781 -34.15625 10.96875 -33.503906 10.96875 -32.765625 C 10.96875 -32.035156 10.800781 -31.378906 10.46875 -30.796875 C 10.132812 -30.222656 9.660156 -29.769531 9.046875 -29.4375 C 8.441406 -29.113281 7.75 -28.953125 6.96875 -28.953125 Z M 3.734375 0 L 3.734375 -25.859375 L 10.21875 -25.859375 L 10.21875 0 Z M 3.734375 0 "/></g></g><g transform="translate(248.402339, 328.049974)"><g><path d="M 3.734375 0 L 3.734375 -25.859375 L 10.03125 -25.859375 L 10.03125 -22.015625 L 10.53125 -21.921875 C 11.15625 -23.359375 11.972656 -24.410156 12.984375 -25.078125 C 14.003906 -25.753906 15.238281 -26.09375 16.6875 -26.09375 C 18.15625 -26.09375 19.273438 -25.84375 20.046875 -25.34375 L 18.9375 -19.734375 L 18.453125 -19.640625 C 18.023438 -19.816406 17.613281 -19.941406 17.21875 -20.015625 C 16.832031 -20.097656 16.359375 -20.140625 15.796875 -20.140625 C 13.984375 -20.140625 12.597656 -19.5 11.640625 -18.21875 C 10.691406 -16.945312 10.21875 -14.90625 10.21875 -12.09375 L 10.21875 0 Z M 3.734375 0 "/></g></g><g transform="translate(268.675775, 328.049974)"><g><path d="M 25.546875 -11.46875 L 8.9375 -11.46875 C 9.125 -9.21875 9.765625 -7.578125 10.859375 -6.546875 C 11.953125 -5.523438 13.441406 -5.015625 15.328125 -5.015625 C 16.816406 -5.015625 18.019531 -5.289062 18.9375 -5.84375 C 19.863281 -6.40625 20.609375 -7.25 21.171875 -8.375 L 21.65625 -8.375 L 25.96875 -5.609375 C 25.125 -3.796875 23.847656 -2.320312 22.140625 -1.1875 C 20.441406 -0.0625 18.171875 0.5 15.328125 0.5 C 12.660156 0.5 10.351562 -0.0078125 8.40625 -1.03125 C 6.457031 -2.050781 4.957031 -3.5625 3.90625 -5.5625 C 2.851562 -7.570312 2.328125 -10.023438 2.328125 -12.921875 C 2.328125 -15.859375 2.878906 -18.332031 3.984375 -20.34375 C 5.097656 -22.363281 6.597656 -23.867188 8.484375 -24.859375 C 10.378906 -25.847656 12.503906 -26.34375 14.859375 -26.34375 C 18.515625 -26.34375 21.316406 -25.375 23.265625 -23.4375 C 25.210938 -21.5 26.1875 -18.65625 26.1875 -14.90625 C 26.1875 -13.550781 26.140625 -12.5 26.046875 -11.75 Z M 19.96875 -15.65625 C 19.90625 -17.625 19.445312 -19.054688 18.59375 -19.953125 C 17.75 -20.859375 16.503906 -21.3125 14.859375 -21.3125 C 11.578125 -21.3125 9.648438 -19.425781 9.078125 -15.65625 Z M 19.96875 -15.65625 "/></g></g><g transform="translate(296.777335, 328.049974)"><g><path d="M 15.078125 0.5 C 12.578125 0.5 10.363281 -0.0195312 8.4375 -1.0625 C 6.519531 -2.101562 5.019531 -3.628906 3.9375 -5.640625 C 2.863281 -7.660156 2.328125 -10.085938 2.328125 -12.921875 C 2.328125 -15.765625 2.863281 -18.191406 3.9375 -20.203125 C 5.019531 -22.222656 6.515625 -23.75 8.421875 -24.78125 C 10.328125 -25.820312 12.503906 -26.34375 14.953125 -26.34375 C 20.410156 -26.34375 23.90625 -24.367188 25.4375 -20.421875 L 20.984375 -17.234375 L 20.484375 -17.234375 C 19.953125 -18.453125 19.257812 -19.359375 18.40625 -19.953125 C 17.5625 -20.546875 16.410156 -20.84375 14.953125 -20.84375 C 13.078125 -20.84375 11.613281 -20.191406 10.5625 -18.890625 C 9.519531 -17.597656 9 -15.609375 9 -12.921875 C 9 -10.265625 9.53125 -8.28125 10.59375 -6.96875 C 11.65625 -5.664062 13.148438 -5.015625 15.078125 -5.015625 C 16.484375 -5.015625 17.671875 -5.394531 18.640625 -6.15625 C 19.617188 -6.914062 20.320312 -8.003906 20.75 -9.421875 L 21.234375 -9.46875 L 25.859375 -6.9375 C 25.203125 -4.75 23.984375 -2.960938 22.203125 -1.578125 C 20.429688 -0.191406 18.054688 0.5 15.078125 0.5 Z M 15.078125 0.5 "/></g></g><g transform="translate(323.42577, 328.049974)"><g><path d="M 17.84375 -6.171875 L 19.53125 -1.359375 C 18.820312 -0.785156 17.9375 -0.332031 16.875 0 C 15.8125 0.332031 14.609375 0.5 13.265625 0.5 C 10.472656 0.5 8.347656 -0.257812 6.890625 -1.78125 C 5.441406 -3.3125 4.71875 -5.53125 4.71875 -8.4375 L 4.71875 -20.71875 L 0.78125 -20.71875 L 0.78125 -25.875 L 4.71875 -25.875 L 4.71875 -30.921875 L 11.203125 -31.96875 L 11.203125 -25.875 L 18.546875 -25.875 L 18.546875 -20.71875 L 11.203125 -20.71875 L 11.203125 -8.90625 C 11.203125 -7.625 11.46875 -6.691406 12 -6.109375 C 12.53125 -5.523438 13.304688 -5.234375 14.328125 -5.234375 C 15.484375 -5.234375 16.488281 -5.546875 17.34375 -6.171875 Z M 17.84375 -6.171875 "/></g></g><g transform="translate(343.511706, 328.049974)"><g><path d="M 6.96875 -28.953125 C 5.789062 -28.953125 4.832031 -29.304688 4.09375 -30.015625 C 3.363281 -30.722656 3 -31.640625 3 -32.765625 C 3 -33.878906 3.363281 -34.789062 4.09375 -35.5 C 4.832031 -36.207031 5.789062 -36.5625 6.96875 -36.5625 C 7.75 -36.5625 8.441406 -36.394531 9.046875 -36.0625 C 9.660156 -35.738281 10.132812 -35.289062 10.46875 -34.71875 C 10.800781 -34.15625 10.96875 -33.503906 10.96875 -32.765625 C 10.96875 -32.035156 10.800781 -31.378906 10.46875 -30.796875 C 10.132812 -30.222656 9.660156 -29.769531 9.046875 -29.4375 C 8.441406 -29.113281 7.75 -28.953125 6.96875 -28.953125 Z M 3.734375 0 L 3.734375 -25.859375 L 10.21875 -25.859375 L 10.21875 0 Z M 3.734375 0 "/></g></g><g transform="translate(357.43358, 328.049974)"><g><path d="M 15.03125 0.5 C 12.5 0.5 10.273438 -0.0195312 8.359375 -1.0625 C 6.441406 -2.101562 4.957031 -3.628906 3.90625 -5.640625 C 2.851562 -7.648438 2.328125 -10.078125 2.328125 -12.921875 C 2.328125 -15.765625 2.851562 -18.191406 3.90625 -20.203125 C 4.957031 -22.222656 6.441406 -23.75 8.359375 -24.78125 C 10.273438 -25.820312 12.5 -26.34375 15.03125 -26.34375 C 17.5625 -26.34375 19.78125 -25.820312 21.6875 -24.78125 C 23.601562 -23.75 25.09375 -22.222656 26.15625 -20.203125 C 27.21875 -18.191406 27.75 -15.765625 27.75 -12.921875 C 27.75 -10.078125 27.21875 -7.648438 26.15625 -5.640625 C 25.09375 -3.628906 23.601562 -2.101562 21.6875 -1.0625 C 19.78125 -0.0195312 17.5625 0.5 15.03125 0.5 Z M 15.03125 -5.015625 C 19.039062 -5.015625 21.046875 -7.648438 21.046875 -12.921875 C 21.046875 -15.648438 20.53125 -17.648438 19.5 -18.921875 C 18.46875 -20.203125 16.976562 -20.84375 15.03125 -20.84375 C 11.007812 -20.84375 9 -18.203125 9 -12.921875 C 9 -7.648438 11.007812 -5.015625 15.03125 -5.015625 Z M 15.03125 -5.015625 "/></g></g><g transform="translate(387.480453, 328.049974)"><g><path d="M 3.734375 0 L 3.734375 -25.859375 L 9.96875 -25.859375 L 9.96875 -22.0625 L 10.453125 -21.9375 C 12.066406 -24.875 14.675781 -26.34375 18.28125 -26.34375 C 21.269531 -26.34375 23.460938 -25.53125 24.859375 -23.90625 C 26.253906 -22.28125 26.953125 -19.914062 26.953125 -16.8125 L 26.953125 0 L 20.46875 0 L 20.46875 -16.015625 C 20.46875 -17.734375 20.125 -18.96875 19.4375 -19.71875 C 18.75 -20.476562 17.644531 -20.859375 16.125 -20.859375 C 14.269531 -20.859375 12.820312 -20.253906 11.78125 -19.046875 C 10.738281 -17.847656 10.21875 -15.960938 10.21875 -13.390625 L 10.21875 0 Z M 3.734375 0 "/></g></g><g transform="translate(417.7617, 328.049974)"><g><path d="M 10.078125 0.5 C 8.421875 0.5 6.984375 0.191406 5.765625 -0.421875 C 4.546875 -1.035156 3.609375 -1.929688 2.953125 -3.109375 C 2.296875 -4.285156 1.96875 -5.703125 1.96875 -7.359375 C 1.96875 -8.890625 2.296875 -10.175781 2.953125 -11.21875 C 3.609375 -12.257812 4.625 -13.109375 6 -13.765625 C 7.375 -14.429688 9.171875 -14.945312 11.390625 -15.3125 C 12.941406 -15.5625 14.117188 -15.832031 14.921875 -16.125 C 15.722656 -16.425781 16.265625 -16.765625 16.546875 -17.140625 C 16.828125 -17.515625 16.96875 -17.988281 16.96875 -18.5625 C 16.96875 -19.394531 16.675781 -20.03125 16.09375 -20.46875 C 15.519531 -20.90625 14.5625 -21.125 13.21875 -21.125 C 11.78125 -21.125 10.410156 -20.800781 9.109375 -20.15625 C 7.816406 -19.519531 6.695312 -18.675781 5.75 -17.625 L 5.28125 -17.625 L 2.5625 -21.734375 C 3.875 -23.179688 5.472656 -24.3125 7.359375 -25.125 C 9.253906 -25.9375 11.316406 -26.34375 13.546875 -26.34375 C 16.972656 -26.34375 19.453125 -25.613281 20.984375 -24.15625 C 22.515625 -22.707031 23.28125 -20.648438 23.28125 -17.984375 L 23.28125 -6.75 C 23.28125 -5.59375 23.785156 -5.015625 24.796875 -5.015625 C 25.191406 -5.015625 25.578125 -5.085938 25.953125 -5.234375 L 26.28125 -5.140625 L 26.75 -0.609375 C 26.382812 -0.378906 25.878906 -0.1875 25.234375 -0.03125 C 24.597656 0.113281 23.898438 0.1875 23.140625 0.1875 C 21.585938 0.1875 20.378906 -0.109375 19.515625 -0.703125 C 18.648438 -1.296875 18.03125 -2.226562 17.65625 -3.5 L 17.15625 -3.546875 C 15.894531 -0.847656 13.535156 0.5 10.078125 0.5 Z M 12.140625 -4.359375 C 13.640625 -4.359375 14.835938 -4.863281 15.734375 -5.875 C 16.640625 -6.882812 17.09375 -8.285156 17.09375 -10.078125 L 17.09375 -12.703125 L 16.640625 -12.796875 C 16.253906 -12.484375 15.742188 -12.222656 15.109375 -12.015625 C 14.472656 -11.804688 13.5625 -11.597656 12.375 -11.390625 C 10.96875 -11.160156 9.957031 -10.757812 9.34375 -10.1875 C 8.726562 -9.613281 8.421875 -8.804688 8.421875 -7.765625 C 8.421875 -6.648438 8.75 -5.800781 9.40625 -5.21875 C 10.0625 -4.644531 10.972656 -4.359375 12.140625 -4.359375 Z M 12.140625 -4.359375 "/></g></g><g transform="translate(445.019511, 328.049974)"><g><path d="M 10.734375 0.5 C 8.410156 0.5 6.632812 -0.128906 5.40625 -1.390625 C 4.175781 -2.648438 3.5625 -4.5625 3.5625 -7.125 L 3.5625 -36.234375 L 10.0625 -36.234375 L 10.0625 -7.390625 C 10.0625 -5.804688 10.71875 -5.015625 12.03125 -5.015625 C 12.40625 -5.015625 12.800781 -5.078125 13.21875 -5.203125 L 13.546875 -5.109375 L 14.140625 -0.125 C 13.773438 0.0703125 13.296875 0.222656 12.703125 0.328125 C 12.109375 0.441406 11.453125 0.5 10.734375 0.5 Z M 10.734375 0.5 "/></g></g></g></svg>