<svg xmlns="http://www.w3.org/2000/svg" xmlns:xlink="http://www.w3.org/1999/xlink" width="800" zoomAndPan="magnify" viewBox="0 0 600 449.999984" height="600" preserveAspectRatio="xMidYMid meet" version="1.0"><defs><g/></defs><g fill="#ff66c4" fill-opacity="1"><g transform="translate(22.371639, 82.613916)"><g><path d="M 18.984375 0.609375 C 16.015625 0.609375 13.375 0.242188 11.0625 -0.484375 C 8.75 -1.210938 6.816406 -2.171875 5.265625 -3.359375 C 3.722656 -4.554688 2.546875 -5.867188 1.734375 -7.296875 L 6.390625 -12.984375 L 7.125 -12.984375 C 8.40625 -11.066406 10.035156 -9.539062 12.015625 -8.40625 C 14.003906 -7.269531 16.328125 -6.703125 18.984375 -6.703125 C 21.253906 -6.703125 22.960938 -7.179688 24.109375 -8.140625 C 25.265625 -9.097656 25.84375 -10.414062 25.84375 -12.09375 C 25.84375 -13.113281 25.65625 -13.960938 25.28125 -14.640625 C 24.914062 -15.328125 24.300781 -15.914062 23.4375 -16.40625 C 22.582031 -16.894531 21.421875 -17.316406 19.953125 -17.671875 L 14.4375 -18.921875 C 10.59375 -19.804688 7.726562 -21.269531 5.84375 -23.3125 C 3.957031 -25.351562 3.015625 -28.003906 3.015625 -31.265625 C 3.015625 -33.679688 3.617188 -35.804688 4.828125 -37.640625 C 6.046875 -39.484375 7.8125 -40.910156 10.125 -41.921875 C 12.4375 -42.941406 15.203125 -43.453125 18.421875 -43.453125 C 21.722656 -43.453125 24.550781 -43.015625 26.90625 -42.140625 C 29.257812 -41.273438 31.25 -39.941406 32.875 -38.140625 L 28.6875 -32.40625 L 27.953125 -32.40625 C 26.742188 -33.675781 25.359375 -34.628906 23.796875 -35.265625 C 22.234375 -35.898438 20.441406 -36.21875 18.421875 -36.21875 C 16.097656 -36.21875 14.332031 -35.804688 13.125 -34.984375 C 11.914062 -34.160156 11.3125 -33.023438 11.3125 -31.578125 C 11.3125 -30.234375 11.734375 -29.160156 12.578125 -28.359375 C 13.429688 -27.554688 14.90625 -26.929688 17 -26.484375 L 22.625 -25.3125 C 26.78125 -24.4375 29.796875 -22.945312 31.671875 -20.84375 C 33.546875 -18.75 34.484375 -16.007812 34.484375 -12.625 C 34.484375 -9.945312 33.90625 -7.617188 32.75 -5.640625 C 31.601562 -3.660156 29.863281 -2.125 27.53125 -1.03125 C 25.207031 0.0625 22.359375 0.609375 18.984375 0.609375 Z M 18.984375 0.609375 "/></g></g><g transform="translate(59.168511, 82.613916)"><g><path d="M 31.9375 -14.328125 L 11.15625 -14.328125 C 11.394531 -11.515625 12.195312 -9.46875 13.5625 -8.1875 C 14.925781 -6.90625 16.789062 -6.265625 19.15625 -6.265625 C 21.007812 -6.265625 22.515625 -6.609375 23.671875 -7.296875 C 24.828125 -7.992188 25.753906 -9.046875 26.453125 -10.453125 L 27.078125 -10.453125 L 32.46875 -7 C 31.40625 -4.738281 29.8125 -2.90625 27.6875 -1.5 C 25.5625 -0.09375 22.71875 0.609375 19.15625 0.609375 C 15.820312 0.609375 12.9375 -0.0195312 10.5 -1.28125 C 8.070312 -2.550781 6.195312 -4.441406 4.875 -6.953125 C 3.5625 -9.460938 2.90625 -12.523438 2.90625 -16.140625 C 2.90625 -19.816406 3.597656 -22.910156 4.984375 -25.421875 C 6.367188 -27.941406 8.242188 -29.820312 10.609375 -31.0625 C 12.972656 -32.3125 15.628906 -32.9375 18.578125 -32.9375 C 23.148438 -32.9375 26.648438 -31.722656 29.078125 -29.296875 C 31.503906 -26.878906 32.71875 -23.328125 32.71875 -18.640625 C 32.71875 -16.929688 32.660156 -15.609375 32.546875 -14.671875 Z M 24.96875 -19.578125 C 24.882812 -22.035156 24.3125 -23.820312 23.25 -24.9375 C 22.1875 -26.0625 20.628906 -26.625 18.578125 -26.625 C 14.472656 -26.625 12.0625 -24.273438 11.34375 -19.578125 Z M 24.96875 -19.578125 "/></g></g><g transform="translate(94.295462, 82.613916)"><g><path d="M 18.84375 0.609375 C 15.71875 0.609375 12.953125 -0.0351562 10.546875 -1.328125 C 8.140625 -2.628906 6.265625 -4.539062 4.921875 -7.0625 C 3.578125 -9.582031 2.90625 -12.609375 2.90625 -16.140625 C 2.90625 -19.691406 3.578125 -22.726562 4.921875 -25.25 C 6.265625 -27.769531 8.128906 -29.679688 10.515625 -30.984375 C 12.898438 -32.285156 15.625 -32.9375 18.6875 -32.9375 C 25.507812 -32.9375 29.875 -30.460938 31.78125 -25.515625 L 26.21875 -21.53125 L 25.609375 -21.53125 C 24.941406 -23.050781 24.078125 -24.179688 23.015625 -24.921875 C 21.953125 -25.671875 20.507812 -26.046875 18.6875 -26.046875 C 16.34375 -26.046875 14.515625 -25.234375 13.203125 -23.609375 C 11.898438 -21.992188 11.25 -19.503906 11.25 -16.140625 C 11.25 -12.816406 11.910156 -10.335938 13.234375 -8.703125 C 14.566406 -7.078125 16.4375 -6.265625 18.84375 -6.265625 C 20.59375 -6.265625 22.078125 -6.738281 23.296875 -7.6875 C 24.523438 -8.632812 25.398438 -10 25.921875 -11.78125 L 26.546875 -11.84375 L 32.3125 -8.671875 C 31.488281 -5.941406 29.96875 -3.710938 27.75 -1.984375 C 25.539062 -0.253906 22.570312 0.609375 18.84375 0.609375 Z M 18.84375 0.609375 "/></g></g><g transform="translate(127.606006, 82.613916)"><g><path d="M 18.78125 0.609375 C 15.613281 0.609375 12.832031 -0.0351562 10.4375 -1.328125 C 8.050781 -2.628906 6.195312 -4.535156 4.875 -7.046875 C 3.5625 -9.554688 2.90625 -12.585938 2.90625 -16.140625 C 2.90625 -19.691406 3.5625 -22.726562 4.875 -25.25 C 6.195312 -27.769531 8.050781 -29.679688 10.4375 -30.984375 C 12.832031 -32.285156 15.613281 -32.9375 18.78125 -32.9375 C 21.945312 -32.9375 24.722656 -32.285156 27.109375 -30.984375 C 29.503906 -29.679688 31.363281 -27.769531 32.6875 -25.25 C 34.019531 -22.726562 34.6875 -19.691406 34.6875 -16.140625 C 34.6875 -12.585938 34.019531 -9.554688 32.6875 -7.046875 C 31.363281 -4.535156 29.503906 -2.628906 27.109375 -1.328125 C 24.722656 -0.0351562 21.945312 0.609375 18.78125 0.609375 Z M 18.78125 -6.265625 C 23.800781 -6.265625 26.3125 -9.554688 26.3125 -16.140625 C 26.3125 -19.554688 25.664062 -22.0625 24.375 -23.65625 C 23.082031 -25.25 21.21875 -26.046875 18.78125 -26.046875 C 13.757812 -26.046875 11.25 -22.742188 11.25 -16.140625 C 11.25 -9.554688 13.757812 -6.265625 18.78125 -6.265625 Z M 18.78125 -6.265625 "/></g></g><g transform="translate(165.164597, 82.613916)"><g><path d="M 4.65625 0 L 4.65625 -32.3125 L 12.453125 -32.3125 L 12.453125 -27.5625 L 13.0625 -27.421875 C 15.070312 -31.097656 18.335938 -32.9375 22.859375 -32.9375 C 26.585938 -32.9375 29.320312 -31.921875 31.0625 -29.890625 C 32.8125 -27.859375 33.6875 -24.894531 33.6875 -21 L 33.6875 0 L 25.578125 0 L 25.578125 -20.015625 C 25.578125 -22.160156 25.144531 -23.707031 24.28125 -24.65625 C 23.425781 -25.601562 22.050781 -26.078125 20.15625 -26.078125 C 17.832031 -26.078125 16.019531 -25.320312 14.71875 -23.8125 C 13.425781 -22.3125 12.78125 -19.953125 12.78125 -16.734375 L 12.78125 0 Z M 4.65625 0 "/></g></g><g transform="translate(203.016157, 82.613916)"><g><path d="M 15.96875 0.609375 C 13.40625 0.609375 11.140625 -0.0078125 9.171875 -1.25 C 7.210938 -2.488281 5.675781 -4.363281 4.5625 -6.875 C 3.457031 -9.382812 2.90625 -12.472656 2.90625 -16.140625 C 2.90625 -19.835938 3.472656 -22.9375 4.609375 -25.4375 C 5.753906 -27.945312 7.335938 -29.820312 9.359375 -31.0625 C 11.378906 -32.3125 13.71875 -32.9375 16.375 -32.9375 C 18.382812 -32.9375 20.125 -32.585938 21.59375 -31.890625 C 23.070312 -31.191406 24.320312 -30.113281 25.34375 -28.65625 L 25.953125 -28.796875 L 25.953125 -45.296875 L 34.078125 -45.296875 L 34.078125 0 L 25.953125 0 L 25.953125 -4.1875 L 25.34375 -4.3125 C 24.445312 -2.78125 23.21875 -1.578125 21.65625 -0.703125 C 20.09375 0.171875 18.195312 0.609375 15.96875 0.609375 Z M 18.609375 -6.265625 C 20.890625 -6.265625 22.691406 -7.078125 24.015625 -8.703125 C 25.347656 -10.335938 26.015625 -12.816406 26.015625 -16.140625 C 26.015625 -19.460938 25.347656 -21.941406 24.015625 -23.578125 C 22.691406 -25.222656 20.890625 -26.046875 18.609375 -26.046875 C 16.222656 -26.046875 14.398438 -25.25 13.140625 -23.65625 C 11.878906 -22.0625 11.25 -19.554688 11.25 -16.140625 C 11.25 -12.742188 11.878906 -10.25 13.140625 -8.65625 C 14.398438 -7.0625 16.222656 -6.265625 18.609375 -6.265625 Z M 18.609375 -6.265625 "/></g></g><g transform="translate(241.746622, 82.613916)"><g><path d="M 12.59375 0.609375 C 10.53125 0.609375 8.734375 0.226562 7.203125 -0.53125 C 5.679688 -1.289062 4.507812 -2.40625 3.6875 -3.875 C 2.875 -5.351562 2.46875 -7.128906 2.46875 -9.203125 C 2.46875 -11.117188 2.875 -12.722656 3.6875 -14.015625 C 4.507812 -15.316406 5.78125 -16.378906 7.5 -17.203125 C 9.21875 -18.035156 11.460938 -18.675781 14.234375 -19.125 C 16.171875 -19.4375 17.640625 -19.78125 18.640625 -20.15625 C 19.648438 -20.53125 20.332031 -20.953125 20.6875 -21.421875 C 21.039062 -21.890625 21.21875 -22.484375 21.21875 -23.203125 C 21.21875 -24.234375 20.851562 -25.019531 20.125 -25.5625 C 19.40625 -26.113281 18.207031 -26.390625 16.53125 -26.390625 C 14.726562 -26.390625 13.015625 -25.988281 11.390625 -25.1875 C 9.773438 -24.394531 8.367188 -23.34375 7.171875 -22.03125 L 6.59375 -22.03125 L 3.1875 -27.15625 C 4.832031 -28.976562 6.835938 -30.394531 9.203125 -31.40625 C 11.566406 -32.425781 14.144531 -32.9375 16.9375 -32.9375 C 21.207031 -32.9375 24.300781 -32.023438 26.21875 -30.203125 C 28.132812 -28.390625 29.09375 -25.8125 29.09375 -22.46875 L 29.09375 -8.4375 C 29.09375 -6.988281 29.726562 -6.265625 31 -6.265625 C 31.488281 -6.265625 31.96875 -6.351562 32.4375 -6.53125 L 32.84375 -6.421875 L 33.421875 -0.765625 C 32.972656 -0.472656 32.347656 -0.234375 31.546875 -0.046875 C 30.753906 0.140625 29.878906 0.234375 28.921875 0.234375 C 26.984375 0.234375 25.472656 -0.132812 24.390625 -0.875 C 23.304688 -1.625 22.53125 -2.785156 22.0625 -4.359375 L 21.453125 -4.421875 C 19.867188 -1.066406 16.914062 0.609375 12.59375 0.609375 Z M 15.171875 -5.453125 C 17.046875 -5.453125 18.546875 -6.082031 19.671875 -7.34375 C 20.796875 -8.601562 21.359375 -10.351562 21.359375 -12.59375 L 21.359375 -15.875 L 20.796875 -16 C 20.304688 -15.601562 19.664062 -15.273438 18.875 -15.015625 C 18.09375 -14.753906 16.957031 -14.492188 15.46875 -14.234375 C 13.707031 -13.941406 12.441406 -13.4375 11.671875 -12.71875 C 10.898438 -12.007812 10.515625 -11.003906 10.515625 -9.703125 C 10.515625 -8.316406 10.925781 -7.257812 11.75 -6.53125 C 12.570312 -5.8125 13.710938 -5.453125 15.171875 -5.453125 Z M 15.171875 -5.453125 "/></g></g><g transform="translate(275.818885, 82.613916)"><g><path d="M 4.65625 0 L 4.65625 -32.3125 L 12.546875 -32.3125 L 12.546875 -27.515625 L 13.15625 -27.390625 C 13.9375 -29.191406 14.960938 -30.507812 16.234375 -31.34375 C 17.503906 -32.1875 19.046875 -32.609375 20.859375 -32.609375 C 22.691406 -32.609375 24.085938 -32.296875 25.046875 -31.671875 L 23.671875 -24.671875 L 23.0625 -24.546875 C 22.53125 -24.765625 22.019531 -24.921875 21.53125 -25.015625 C 21.039062 -25.117188 20.445312 -25.171875 19.75 -25.171875 C 17.476562 -25.171875 15.75 -24.375 14.5625 -22.78125 C 13.375 -21.1875 12.78125 -18.632812 12.78125 -15.125 L 12.78125 0 Z M 4.65625 0 "/></g></g><g transform="translate(301.16068, 82.613916)"><g><path d="M 7.15625 13.71875 C 5.757812 13.71875 4.5 13.609375 3.375 13.390625 C 2.257812 13.171875 1.347656 12.890625 0.640625 12.546875 L 1.9375 5.984375 L 2.46875 5.796875 C 2.945312 6.054688 3.546875 6.265625 4.265625 6.421875 C 4.992188 6.578125 5.738281 6.65625 6.5 6.65625 C 7.8125 6.65625 8.898438 6.484375 9.765625 6.140625 C 10.640625 5.796875 11.378906 5.226562 11.984375 4.4375 C 12.585938 3.644531 13.125 2.546875 13.59375 1.140625 L 0.703125 -32.3125 L 9.203125 -32.3125 L 17.234375 -9.84375 L 17.9375 -9.84375 L 25.75 -32.3125 L 34.015625 -32.3125 L 21.03125 2.015625 C 20 4.796875 18.863281 7.03125 17.625 8.71875 C 16.382812 10.40625 14.914062 11.660156 13.21875 12.484375 C 11.53125 13.304688 9.507812 13.71875 7.15625 13.71875 Z M 7.15625 13.71875 "/></g></g><g transform="translate(335.848177, 82.613916)"><g/></g><g transform="translate(349.998566, 82.613916)"><g><path d="M 18.984375 0.609375 C 16.015625 0.609375 13.375 0.242188 11.0625 -0.484375 C 8.75 -1.210938 6.816406 -2.171875 5.265625 -3.359375 C 3.722656 -4.554688 2.546875 -5.867188 1.734375 -7.296875 L 6.390625 -12.984375 L 7.125 -12.984375 C 8.40625 -11.066406 10.035156 -9.539062 12.015625 -8.40625 C 14.003906 -7.269531 16.328125 -6.703125 18.984375 -6.703125 C 21.253906 -6.703125 22.960938 -7.179688 24.109375 -8.140625 C 25.265625 -9.097656 25.84375 -10.414062 25.84375 -12.09375 C 25.84375 -13.113281 25.65625 -13.960938 25.28125 -14.640625 C 24.914062 -15.328125 24.300781 -15.914062 23.4375 -16.40625 C 22.582031 -16.894531 21.421875 -17.316406 19.953125 -17.671875 L 14.4375 -18.921875 C 10.59375 -19.804688 7.726562 -21.269531 5.84375 -23.3125 C 3.957031 -25.351562 3.015625 -28.003906 3.015625 -31.265625 C 3.015625 -33.679688 3.617188 -35.804688 4.828125 -37.640625 C 6.046875 -39.484375 7.8125 -40.910156 10.125 -41.921875 C 12.4375 -42.941406 15.203125 -43.453125 18.421875 -43.453125 C 21.722656 -43.453125 24.550781 -43.015625 26.90625 -42.140625 C 29.257812 -41.273438 31.25 -39.941406 32.875 -38.140625 L 28.6875 -32.40625 L 27.953125 -32.40625 C 26.742188 -33.675781 25.359375 -34.628906 23.796875 -35.265625 C 22.234375 -35.898438 20.441406 -36.21875 18.421875 -36.21875 C 16.097656 -36.21875 14.332031 -35.804688 13.125 -34.984375 C 11.914062 -34.160156 11.3125 -33.023438 11.3125 -31.578125 C 11.3125 -30.234375 11.734375 -29.160156 12.578125 -28.359375 C 13.429688 -27.554688 14.90625 -26.929688 17 -26.484375 L 22.625 -25.3125 C 26.78125 -24.4375 29.796875 -22.945312 31.671875 -20.84375 C 33.546875 -18.75 34.484375 -16.007812 34.484375 -12.625 C 34.484375 -9.945312 33.90625 -7.617188 32.75 -5.640625 C 31.601562 -3.660156 29.863281 -2.125 27.53125 -1.03125 C 25.207031 0.0625 22.359375 0.609375 18.984375 0.609375 Z M 18.984375 0.609375 "/></g></g><g transform="translate(386.795439, 82.613916)"><g><path d="M 22.296875 -7.703125 L 24.40625 -1.703125 C 23.53125 -0.972656 22.425781 -0.40625 21.09375 0 C 19.769531 0.40625 18.265625 0.609375 16.578125 0.609375 C 13.085938 0.609375 10.429688 -0.335938 8.609375 -2.234375 C 6.796875 -4.140625 5.890625 -6.910156 5.890625 -10.546875 L 5.890625 -25.90625 L 0.96875 -25.90625 L 0.96875 -32.34375 L 5.890625 -32.34375 L 5.890625 -38.640625 L 14 -39.96875 L 14 -32.34375 L 23.171875 -32.34375 L 23.171875 -25.90625 L 14 -25.90625 L 14 -11.140625 C 14 -9.535156 14.332031 -8.363281 15 -7.625 C 15.664062 -6.894531 16.632812 -6.53125 17.90625 -6.53125 C 19.34375 -6.53125 20.601562 -6.921875 21.6875 -7.703125 Z M 22.296875 -7.703125 "/></g></g><g transform="translate(411.902858, 82.613916)"><g><path d="M 18.78125 0.609375 C 15.613281 0.609375 12.832031 -0.0351562 10.4375 -1.328125 C 8.050781 -2.628906 6.195312 -4.535156 4.875 -7.046875 C 3.5625 -9.554688 2.90625 -12.585938 2.90625 -16.140625 C 2.90625 -19.691406 3.5625 -22.726562 4.875 -25.25 C 6.195312 -27.769531 8.050781 -29.679688 10.4375 -30.984375 C 12.832031 -32.285156 15.613281 -32.9375 18.78125 -32.9375 C 21.945312 -32.9375 24.722656 -32.285156 27.109375 -30.984375 C 29.503906 -29.679688 31.363281 -27.769531 32.6875 -25.25 C 34.019531 -22.726562 34.6875 -19.691406 34.6875 -16.140625 C 34.6875 -12.585938 34.019531 -9.554688 32.6875 -7.046875 C 31.363281 -4.535156 29.503906 -2.628906 27.109375 -1.328125 C 24.722656 -0.0351562 21.945312 0.609375 18.78125 0.609375 Z M 18.78125 -6.265625 C 23.800781 -6.265625 26.3125 -9.554688 26.3125 -16.140625 C 26.3125 -19.554688 25.664062 -22.0625 24.375 -23.65625 C 23.082031 -25.25 21.21875 -26.046875 18.78125 -26.046875 C 13.757812 -26.046875 11.25 -22.742188 11.25 -16.140625 C 11.25 -9.554688 13.757812 -6.265625 18.78125 -6.265625 Z M 18.78125 -6.265625 "/></g></g><g transform="translate(449.461449, 82.613916)"><g><path d="M 4.65625 0 L 4.65625 -32.3125 L 12.546875 -32.3125 L 12.546875 -27.515625 L 13.15625 -27.390625 C 13.9375 -29.191406 14.960938 -30.507812 16.234375 -31.34375 C 17.503906 -32.1875 19.046875 -32.609375 20.859375 -32.609375 C 22.691406 -32.609375 24.085938 -32.296875 25.046875 -31.671875 L 23.671875 -24.671875 L 23.0625 -24.546875 C 22.53125 -24.765625 22.019531 -24.921875 21.53125 -25.015625 C 21.039062 -25.117188 20.445312 -25.171875 19.75 -25.171875 C 17.476562 -25.171875 15.75 -24.375 14.5625 -22.78125 C 13.375 -21.1875 12.78125 -18.632812 12.78125 -15.125 L 12.78125 0 Z M 4.65625 0 "/></g></g><g transform="translate(474.803244, 82.613916)"><g><path d="M 12.59375 0.609375 C 10.53125 0.609375 8.734375 0.226562 7.203125 -0.53125 C 5.679688 -1.289062 4.507812 -2.40625 3.6875 -3.875 C 2.875 -5.351562 2.46875 -7.128906 2.46875 -9.203125 C 2.46875 -11.117188 2.875 -12.722656 3.6875 -14.015625 C 4.507812 -15.316406 5.78125 -16.378906 7.5 -17.203125 C 9.21875 -18.035156 11.460938 -18.675781 14.234375 -19.125 C 16.171875 -19.4375 17.640625 -19.78125 18.640625 -20.15625 C 19.648438 -20.53125 20.332031 -20.953125 20.6875 -21.421875 C 21.039062 -21.890625 21.21875 -22.484375 21.21875 -23.203125 C 21.21875 -24.234375 20.851562 -25.019531 20.125 -25.5625 C 19.40625 -26.113281 18.207031 -26.390625 16.53125 -26.390625 C 14.726562 -26.390625 13.015625 -25.988281 11.390625 -25.1875 C 9.773438 -24.394531 8.367188 -23.34375 7.171875 -22.03125 L 6.59375 -22.03125 L 3.1875 -27.15625 C 4.832031 -28.976562 6.835938 -30.394531 9.203125 -31.40625 C 11.566406 -32.425781 14.144531 -32.9375 16.9375 -32.9375 C 21.207031 -32.9375 24.300781 -32.023438 26.21875 -30.203125 C 28.132812 -28.390625 29.09375 -25.8125 29.09375 -22.46875 L 29.09375 -8.4375 C 29.09375 -6.988281 29.726562 -6.265625 31 -6.265625 C 31.488281 -6.265625 31.96875 -6.351562 32.4375 -6.53125 L 32.84375 -6.421875 L 33.421875 -0.765625 C 32.972656 -0.472656 32.347656 -0.234375 31.546875 -0.046875 C 30.753906 0.140625 29.878906 0.234375 28.921875 0.234375 C 26.984375 0.234375 25.472656 -0.132812 24.390625 -0.875 C 23.304688 -1.625 22.53125 -2.785156 22.0625 -4.359375 L 21.453125 -4.421875 C 19.867188 -1.066406 16.914062 0.609375 12.59375 0.609375 Z M 15.171875 -5.453125 C 17.046875 -5.453125 18.546875 -6.082031 19.671875 -7.34375 C 20.796875 -8.601562 21.359375 -10.351562 21.359375 -12.59375 L 21.359375 -15.875 L 20.796875 -16 C 20.304688 -15.601562 19.664062 -15.273438 18.875 -15.015625 C 18.09375 -14.753906 16.957031 -14.492188 15.46875 -14.234375 C 13.707031 -13.941406 12.441406 -13.4375 11.671875 -12.71875 C 10.898438 -12.007812 10.515625 -11.003906 10.515625 -9.703125 C 10.515625 -8.316406 10.925781 -7.257812 11.75 -6.53125 C 12.570312 -5.8125 13.710938 -5.453125 15.171875 -5.453125 Z M 15.171875 -5.453125 "/></g></g><g transform="translate(508.875507, 82.613916)"><g><path d="M 16.765625 13.71875 C 11.429688 13.71875 7.492188 12.9375 4.953125 11.375 C 2.410156 9.8125 1.140625 7.628906 1.140625 4.828125 C 1.140625 3.128906 1.679688 1.738281 2.765625 0.65625 C 3.847656 -0.425781 5.40625 -1.15625 7.4375 -1.53125 L 7.4375 -2.140625 C 6.34375 -2.804688 5.554688 -3.539062 5.078125 -4.34375 C 4.597656 -5.15625 4.359375 -6.097656 4.359375 -7.171875 C 4.359375 -9.773438 6.050781 -11.523438 9.4375 -12.421875 L 9.4375 -13.03125 C 7.695312 -14.03125 6.382812 -15.265625 5.5 -16.734375 C 4.625 -18.210938 4.1875 -20 4.1875 -22.09375 C 4.1875 -24.238281 4.679688 -26.125 5.671875 -27.75 C 6.660156 -29.382812 8.101562 -30.65625 10 -31.5625 C 11.90625 -32.476562 14.1875 -32.9375 16.84375 -32.9375 C 19.539062 -32.9375 21.691406 -32.46875 23.296875 -31.53125 C 24.285156 -32.96875 24.859375 -34.632812 25.015625 -36.53125 L 25.640625 -36.921875 L 31.46875 -35.484375 C 31.289062 -33.941406 30.835938 -32.644531 30.109375 -31.59375 C 29.390625 -30.550781 28.269531 -29.617188 26.75 -28.796875 L 26.75 -28.15625 C 28.5625 -26.550781 29.46875 -24.316406 29.46875 -21.453125 C 29.46875 -19.453125 28.96875 -17.660156 27.96875 -16.078125 C 26.976562 -14.503906 25.53125 -13.253906 23.625 -12.328125 C 21.71875 -11.410156 19.457031 -10.953125 16.84375 -10.953125 L 15.609375 -10.984375 C 14.828125 -11.023438 14.28125 -11.046875 13.96875 -11.046875 C 13.226562 -11.046875 12.648438 -10.84375 12.234375 -10.4375 C 11.816406 -10.039062 11.609375 -9.53125 11.609375 -8.90625 C 11.609375 -8.21875 11.878906 -7.679688 12.421875 -7.296875 C 12.972656 -6.921875 13.773438 -6.71875 14.828125 -6.6875 L 22.0625 -6.421875 C 29.207031 -6.203125 32.78125 -3.125 32.78125 2.8125 C 32.78125 4.90625 32.25 6.765625 31.1875 8.390625 C 30.125 10.023438 28.398438 11.320312 26.015625 12.28125 C 23.628906 13.238281 20.546875 13.71875 16.765625 13.71875 Z M 16.84375 -16.640625 C 18.40625 -16.640625 19.625 -17.097656 20.5 -18.015625 C 21.382812 -18.929688 21.828125 -20.238281 21.828125 -21.9375 C 21.828125 -23.644531 21.382812 -24.953125 20.5 -25.859375 C 19.625 -26.765625 18.40625 -27.21875 16.84375 -27.21875 C 15.257812 -27.21875 14.035156 -26.765625 13.171875 -25.859375 C 12.316406 -24.953125 11.890625 -23.644531 11.890625 -21.9375 C 11.890625 -20.21875 12.316406 -18.90625 13.171875 -18 C 14.035156 -17.09375 15.257812 -16.640625 16.84375 -16.640625 Z M 16.765625 7.828125 C 19.535156 7.828125 21.550781 7.4375 22.8125 6.65625 C 24.070312 5.875 24.703125 4.859375 24.703125 3.609375 C 24.703125 2.585938 24.378906 1.835938 23.734375 1.359375 C 23.085938 0.878906 22.0625 0.625 20.65625 0.59375 L 14.265625 0.296875 C 14.054688 0.296875 13.859375 0.285156 13.671875 0.265625 C 13.484375 0.242188 13.300781 0.234375 13.125 0.234375 C 11.757812 0.234375 10.71875 0.523438 10 1.109375 C 9.289062 1.703125 8.9375 2.515625 8.9375 3.546875 C 8.9375 4.910156 9.585938 5.960938 10.890625 6.703125 C 12.203125 7.453125 14.160156 7.828125 16.765625 7.828125 Z M 16.765625 7.828125 "/></g></g><g transform="translate(542.479019, 82.613916)"><g><path d="M 31.9375 -14.328125 L 11.15625 -14.328125 C 11.394531 -11.515625 12.195312 -9.46875 13.5625 -8.1875 C 14.925781 -6.90625 16.789062 -6.265625 19.15625 -6.265625 C 21.007812 -6.265625 22.515625 -6.609375 23.671875 -7.296875 C 24.828125 -7.992188 25.753906 -9.046875 26.453125 -10.453125 L 27.078125 -10.453125 L 32.46875 -7 C 31.40625 -4.738281 29.8125 -2.90625 27.6875 -1.5 C 25.5625 -0.09375 22.71875 0.609375 19.15625 0.609375 C 15.820312 0.609375 12.9375 -0.0195312 10.5 -1.28125 C 8.070312 -2.550781 6.195312 -4.441406 4.875 -6.953125 C 3.5625 -9.460938 2.90625 -12.523438 2.90625 -16.140625 C 2.90625 -19.816406 3.597656 -22.910156 4.984375 -25.421875 C 6.367188 -27.941406 8.242188 -29.820312 10.609375 -31.0625 C 12.972656 -32.3125 15.628906 -32.9375 18.578125 -32.9375 C 23.148438 -32.9375 26.648438 -31.722656 29.078125 -29.296875 C 31.503906 -26.878906 32.71875 -23.328125 32.71875 -18.640625 C 32.71875 -16.929688 32.660156 -15.609375 32.546875 -14.671875 Z M 24.96875 -19.578125 C 24.882812 -22.035156 24.3125 -23.820312 23.25 -24.9375 C 22.1875 -26.0625 20.628906 -26.625 18.578125 -26.625 C 14.472656 -26.625 12.0625 -24.273438 11.34375 -19.578125 Z M 24.96875 -19.578125 "/></g></g></g><g fill="#ffde59" fill-opacity="1"><g transform="translate(21.023447, 194.549985)"><g><path d="M 15.1875 0.5 C 12.8125 0.5 10.695312 0.207031 8.84375 -0.375 C 7 -0.96875 5.457031 -1.738281 4.21875 -2.6875 C 2.988281 -3.644531 2.046875 -4.695312 1.390625 -5.84375 L 5.109375 -10.390625 L 5.703125 -10.390625 C 6.734375 -8.859375 8.039062 -7.640625 9.625 -6.734375 C 11.207031 -5.828125 13.0625 -5.375 15.1875 -5.375 C 17 -5.375 18.363281 -5.753906 19.28125 -6.515625 C 20.207031 -7.285156 20.671875 -8.34375 20.671875 -9.6875 C 20.671875 -10.5 20.519531 -11.175781 20.21875 -11.71875 C 19.925781 -12.269531 19.4375 -12.738281 18.75 -13.125 C 18.0625 -13.519531 17.132812 -13.859375 15.96875 -14.140625 L 11.5625 -15.140625 C 8.476562 -15.847656 6.179688 -17.015625 4.671875 -18.640625 C 3.171875 -20.273438 2.421875 -22.398438 2.421875 -25.015625 C 2.421875 -26.953125 2.90625 -28.65625 3.875 -30.125 C 4.84375 -31.59375 6.25 -32.734375 8.09375 -33.546875 C 9.945312 -34.359375 12.164062 -34.765625 14.75 -34.765625 C 17.382812 -34.765625 19.644531 -34.414062 21.53125 -33.71875 C 23.414062 -33.019531 25.003906 -31.953125 26.296875 -30.515625 L 22.953125 -25.921875 L 22.359375 -25.921875 C 21.390625 -26.941406 20.28125 -27.703125 19.03125 -28.203125 C 17.78125 -28.710938 16.351562 -28.96875 14.75 -28.96875 C 12.882812 -28.96875 11.46875 -28.640625 10.5 -27.984375 C 9.53125 -27.328125 9.046875 -26.421875 9.046875 -25.265625 C 9.046875 -24.191406 9.382812 -23.332031 10.0625 -22.6875 C 10.75 -22.050781 11.925781 -21.550781 13.59375 -21.1875 L 18.09375 -20.25 C 21.425781 -19.550781 23.84375 -18.359375 25.34375 -16.671875 C 26.84375 -14.992188 27.59375 -12.804688 27.59375 -10.109375 C 27.59375 -7.960938 27.128906 -6.097656 26.203125 -4.515625 C 25.285156 -2.929688 23.894531 -1.695312 22.03125 -0.8125 C 20.175781 0.0625 17.894531 0.5 15.1875 0.5 Z M 15.1875 0.5 "/></g></g><g transform="translate(50.460944, 194.549985)"><g><path d="M 17.84375 -6.171875 L 19.53125 -1.359375 C 18.820312 -0.785156 17.9375 -0.332031 16.875 0 C 15.8125 0.332031 14.609375 0.5 13.265625 0.5 C 10.472656 0.5 8.347656 -0.257812 6.890625 -1.78125 C 5.441406 -3.3125 4.71875 -5.53125 4.71875 -8.4375 L 4.71875 -20.71875 L 0.78125 -20.71875 L 0.78125 -25.875 L 4.71875 -25.875 L 4.71875 -30.921875 L 11.203125 -31.96875 L 11.203125 -25.875 L 18.546875 -25.875 L 18.546875 -20.71875 L 11.203125 -20.71875 L 11.203125 -8.90625 C 11.203125 -7.625 11.46875 -6.691406 12 -6.109375 C 12.53125 -5.523438 13.304688 -5.234375 14.328125 -5.234375 C 15.484375 -5.234375 16.488281 -5.546875 17.34375 -6.171875 Z M 17.84375 -6.171875 "/></g></g><g transform="translate(70.54688, 194.549985)"><g><path d="M 15.03125 0.5 C 12.5 0.5 10.273438 -0.0195312 8.359375 -1.0625 C 6.441406 -2.101562 4.957031 -3.628906 3.90625 -5.640625 C 2.851562 -7.648438 2.328125 -10.078125 2.328125 -12.921875 C 2.328125 -15.765625 2.851562 -18.191406 3.90625 -20.203125 C 4.957031 -22.222656 6.441406 -23.75 8.359375 -24.78125 C 10.273438 -25.820312 12.5 -26.34375 15.03125 -26.34375 C 17.5625 -26.34375 19.78125 -25.820312 21.6875 -24.78125 C 23.601562 -23.75 25.09375 -22.222656 26.15625 -20.203125 C 27.21875 -18.191406 27.75 -15.765625 27.75 -12.921875 C 27.75 -10.078125 27.21875 -7.648438 26.15625 -5.640625 C 25.09375 -3.628906 23.601562 -2.101562 21.6875 -1.0625 C 19.78125 -0.0195312 17.5625 0.5 15.03125 0.5 Z M 15.03125 -5.015625 C 19.039062 -5.015625 21.046875 -7.648438 21.046875 -12.921875 C 21.046875 -15.648438 20.53125 -17.648438 19.5 -18.921875 C 18.46875 -20.203125 16.976562 -20.84375 15.03125 -20.84375 C 11.007812 -20.84375 9 -18.203125 9 -12.921875 C 9 -7.648438 11.007812 -5.015625 15.03125 -5.015625 Z M 15.03125 -5.015625 "/></g></g><g transform="translate(100.593753, 194.549985)"><g><path d="M 3.734375 0 L 3.734375 -25.859375 L 10.03125 -25.859375 L 10.03125 -22.015625 L 10.53125 -21.921875 C 11.15625 -23.359375 11.972656 -24.410156 12.984375 -25.078125 C 14.003906 -25.753906 15.238281 -26.09375 16.6875 -26.09375 C 18.15625 -26.09375 19.273438 -25.84375 20.046875 -25.34375 L 18.9375 -19.734375 L 18.453125 -19.640625 C 18.023438 -19.816406 17.613281 -19.941406 17.21875 -20.015625 C 16.832031 -20.097656 16.359375 -20.140625 15.796875 -20.140625 C 13.984375 -20.140625 12.597656 -19.5 11.640625 -18.21875 C 10.691406 -16.945312 10.21875 -14.90625 10.21875 -12.09375 L 10.21875 0 Z M 3.734375 0 "/></g></g><g transform="translate(120.867189, 194.549985)"><g><path d="M 25.546875 -11.46875 L 8.9375 -11.46875 C 9.125 -9.21875 9.765625 -7.578125 10.859375 -6.546875 C 11.953125 -5.523438 13.441406 -5.015625 15.328125 -5.015625 C 16.816406 -5.015625 18.019531 -5.289062 18.9375 -5.84375 C 19.863281 -6.40625 20.609375 -7.25 21.171875 -8.375 L 21.65625 -8.375 L 25.96875 -5.609375 C 25.125 -3.796875 23.847656 -2.320312 22.140625 -1.1875 C 20.441406 -0.0625 18.171875 0.5 15.328125 0.5 C 12.660156 0.5 10.351562 -0.0078125 8.40625 -1.03125 C 6.457031 -2.050781 4.957031 -3.5625 3.90625 -5.5625 C 2.851562 -7.570312 2.328125 -10.023438 2.328125 -12.921875 C 2.328125 -15.859375 2.878906 -18.332031 3.984375 -20.34375 C 5.097656 -22.363281 6.597656 -23.867188 8.484375 -24.859375 C 10.378906 -25.847656 12.503906 -26.34375 14.859375 -26.34375 C 18.515625 -26.34375 21.316406 -25.375 23.265625 -23.4375 C 25.210938 -21.5 26.1875 -18.65625 26.1875 -14.90625 C 26.1875 -13.550781 26.140625 -12.5 26.046875 -11.75 Z M 19.96875 -15.65625 C 19.90625 -17.625 19.445312 -19.054688 18.59375 -19.953125 C 17.75 -20.859375 16.503906 -21.3125 14.859375 -21.3125 C 11.578125 -21.3125 9.648438 -19.425781 9.078125 -15.65625 Z M 19.96875 -15.65625 "/></g></g><g transform="translate(148.968749, 194.549985)"><g><path d="M 12.09375 0.5 C 10.332031 0.5 8.71875 0.289062 7.25 -0.125 C 5.78125 -0.539062 4.523438 -1.113281 3.484375 -1.84375 C 2.441406 -2.570312 1.671875 -3.40625 1.171875 -4.34375 L 4.78125 -8.234375 L 5.28125 -8.234375 C 6.132812 -7.078125 7.144531 -6.207031 8.3125 -5.625 C 9.488281 -5.050781 10.765625 -4.765625 12.140625 -4.765625 C 13.410156 -4.765625 14.363281 -4.988281 15 -5.4375 C 15.644531 -5.894531 15.96875 -6.546875 15.96875 -7.390625 C 15.96875 -8.046875 15.734375 -8.59375 15.265625 -9.03125 C 14.804688 -9.476562 14.0625 -9.828125 13.03125 -10.078125 L 9.609375 -10.90625 C 7.046875 -11.507812 5.175781 -12.441406 4 -13.703125 C 2.820312 -14.960938 2.234375 -16.5625 2.234375 -18.5 C 2.234375 -20.101562 2.640625 -21.5 3.453125 -22.6875 C 4.273438 -23.875 5.429688 -24.78125 6.921875 -25.40625 C 8.421875 -26.03125 10.160156 -26.34375 12.140625 -26.34375 C 14.472656 -26.34375 16.40625 -26.003906 17.9375 -25.328125 C 19.46875 -24.660156 20.660156 -23.765625 21.515625 -22.640625 L 18.046875 -18.890625 L 17.578125 -18.890625 C 16.859375 -19.703125 16.050781 -20.296875 15.15625 -20.671875 C 14.257812 -21.046875 13.253906 -21.234375 12.140625 -21.234375 C 9.578125 -21.234375 8.296875 -20.4375 8.296875 -18.84375 C 8.296875 -18.175781 8.535156 -17.628906 9.015625 -17.203125 C 9.492188 -16.785156 10.332031 -16.441406 11.53125 -16.171875 L 14.71875 -15.46875 C 17.34375 -14.90625 19.257812 -14.003906 20.46875 -12.765625 C 21.6875 -11.523438 22.296875 -9.859375 22.296875 -7.765625 C 22.296875 -6.117188 21.890625 -4.671875 21.078125 -3.421875 C 20.265625 -2.171875 19.09375 -1.203125 17.5625 -0.515625 C 16.03125 0.160156 14.207031 0.5 12.09375 0.5 Z M 12.09375 0.5 "/></g></g><g transform="translate(172.804685, 194.549985)"><g/></g><g transform="translate(184.124996, 194.549985)"><g><path d="M 10.734375 0.5 C 8.410156 0.5 6.632812 -0.128906 5.40625 -1.390625 C 4.175781 -2.648438 3.5625 -4.5625 3.5625 -7.125 L 3.5625 -36.234375 L 10.0625 -36.234375 L 10.0625 -7.390625 C 10.0625 -5.804688 10.71875 -5.015625 12.03125 -5.015625 C 12.40625 -5.015625 12.800781 -5.078125 13.21875 -5.203125 L 13.546875 -5.109375 L 14.140625 -0.125 C 13.773438 0.0703125 13.296875 0.222656 12.703125 0.328125 C 12.109375 0.441406 11.453125 0.5 10.734375 0.5 Z M 10.734375 0.5 "/></g></g><g transform="translate(198.98437, 194.549985)"><g><path d="M 10.078125 0.5 C 8.421875 0.5 6.984375 0.191406 5.765625 -0.421875 C 4.546875 -1.035156 3.609375 -1.929688 2.953125 -3.109375 C 2.296875 -4.285156 1.96875 -5.703125 1.96875 -7.359375 C 1.96875 -8.890625 2.296875 -10.175781 2.953125 -11.21875 C 3.609375 -12.257812 4.625 -13.109375 6 -13.765625 C 7.375 -14.429688 9.171875 -14.945312 11.390625 -15.3125 C 12.941406 -15.5625 14.117188 -15.832031 14.921875 -16.125 C 15.722656 -16.425781 16.265625 -16.765625 16.546875 -17.140625 C 16.828125 -17.515625 16.96875 -17.988281 16.96875 -18.5625 C 16.96875 -19.394531 16.675781 -20.03125 16.09375 -20.46875 C 15.519531 -20.90625 14.5625 -21.125 13.21875 -21.125 C 11.78125 -21.125 10.410156 -20.800781 9.109375 -20.15625 C 7.816406 -19.519531 6.695312 -18.675781 5.75 -17.625 L 5.28125 -17.625 L 2.5625 -21.734375 C 3.875 -23.179688 5.472656 -24.3125 7.359375 -25.125 C 9.253906 -25.9375 11.316406 -26.34375 13.546875 -26.34375 C 16.972656 -26.34375 19.453125 -25.613281 20.984375 -24.15625 C 22.515625 -22.707031 23.28125 -20.648438 23.28125 -17.984375 L 23.28125 -6.75 C 23.28125 -5.59375 23.785156 -5.015625 24.796875 -5.015625 C 25.191406 -5.015625 25.578125 -5.085938 25.953125 -5.234375 L 26.28125 -5.140625 L 26.75 -0.609375 C 26.382812 -0.378906 25.878906 -0.1875 25.234375 -0.03125 C 24.597656 0.113281 23.898438 0.1875 23.140625 0.1875 C 21.585938 0.1875 20.378906 -0.109375 19.515625 -0.703125 C 18.648438 -1.296875 18.03125 -2.226562 17.65625 -3.5 L 17.15625 -3.546875 C 15.894531 -0.847656 13.535156 0.5 10.078125 0.5 Z M 12.140625 -4.359375 C 13.640625 -4.359375 14.835938 -4.863281 15.734375 -5.875 C 16.640625 -6.882812 17.09375 -8.285156 17.09375 -10.078125 L 17.09375 -12.703125 L 16.640625 -12.796875 C 16.253906 -12.484375 15.742188 -12.222656 15.109375 -12.015625 C 14.472656 -11.804688 13.5625 -11.597656 12.375 -11.390625 C 10.96875 -11.160156 9.957031 -10.757812 9.34375 -10.1875 C 8.726562 -9.613281 8.421875 -8.804688 8.421875 -7.765625 C 8.421875 -6.648438 8.75 -5.800781 9.40625 -5.21875 C 10.0625 -4.644531 10.972656 -4.359375 12.140625 -4.359375 Z M 12.140625 -4.359375 "/></g></g><g transform="translate(226.24218, 194.549985)"><g><path d="M 3.734375 0 L 3.734375 -25.859375 L 10.03125 -25.859375 L 10.03125 -22.015625 L 10.53125 -21.921875 C 11.15625 -23.359375 11.972656 -24.410156 12.984375 -25.078125 C 14.003906 -25.753906 15.238281 -26.09375 16.6875 -26.09375 C 18.15625 -26.09375 19.273438 -25.84375 20.046875 -25.34375 L 18.9375 -19.734375 L 18.453125 -19.640625 C 18.023438 -19.816406 17.613281 -19.941406 17.21875 -20.015625 C 16.832031 -20.097656 16.359375 -20.140625 15.796875 -20.140625 C 13.984375 -20.140625 12.597656 -19.5 11.640625 -18.21875 C 10.691406 -16.945312 10.21875 -14.90625 10.21875 -12.09375 L 10.21875 0 Z M 3.734375 0 "/></g></g><g transform="translate(246.515616, 194.549985)"><g><path d="M 13.40625 10.96875 C 9.144531 10.96875 6 10.34375 3.96875 9.09375 C 1.9375 7.84375 0.921875 6.101562 0.921875 3.875 C 0.921875 2.507812 1.351562 1.390625 2.21875 0.515625 C 3.082031 -0.347656 4.328125 -0.925781 5.953125 -1.21875 L 5.953125 -1.71875 C 5.078125 -2.25 4.445312 -2.835938 4.0625 -3.484375 C 3.6875 -4.128906 3.5 -4.882812 3.5 -5.75 C 3.5 -7.820312 4.847656 -9.21875 7.546875 -9.9375 L 7.546875 -10.4375 C 6.160156 -11.226562 5.113281 -12.210938 4.40625 -13.390625 C 3.707031 -14.578125 3.359375 -16.003906 3.359375 -17.671875 C 3.359375 -19.390625 3.75 -20.898438 4.53125 -22.203125 C 5.320312 -23.515625 6.476562 -24.53125 8 -25.25 C 9.53125 -25.976562 11.359375 -26.34375 13.484375 -26.34375 C 15.640625 -26.34375 17.359375 -25.96875 18.640625 -25.21875 C 19.429688 -26.375 19.890625 -27.710938 20.015625 -29.234375 L 20.515625 -29.53125 L 25.171875 -28.390625 C 25.035156 -27.148438 24.675781 -26.113281 24.09375 -25.28125 C 23.519531 -24.445312 22.625 -23.703125 21.40625 -23.046875 L 21.40625 -22.53125 C 22.851562 -21.25 23.578125 -19.457031 23.578125 -17.15625 C 23.578125 -15.5625 23.175781 -14.128906 22.375 -12.859375 C 21.582031 -11.597656 20.425781 -10.597656 18.90625 -9.859375 C 17.382812 -9.128906 15.578125 -8.765625 13.484375 -8.765625 L 12.5 -8.796875 C 11.875 -8.828125 11.4375 -8.84375 11.1875 -8.84375 C 10.59375 -8.84375 10.125 -8.679688 9.78125 -8.359375 C 9.445312 -8.035156 9.28125 -7.625 9.28125 -7.125 C 9.28125 -6.582031 9.5 -6.15625 9.9375 -5.84375 C 10.375 -5.539062 11.015625 -5.375 11.859375 -5.34375 L 17.65625 -5.140625 C 23.375 -4.960938 26.234375 -2.5 26.234375 2.25 C 26.234375 3.925781 25.804688 5.414062 24.953125 6.71875 C 24.097656 8.019531 22.71875 9.050781 20.8125 9.8125 C 18.90625 10.582031 16.4375 10.96875 13.40625 10.96875 Z M 13.484375 -13.3125 C 14.734375 -13.3125 15.707031 -13.675781 16.40625 -14.40625 C 17.113281 -15.144531 17.46875 -16.195312 17.46875 -17.5625 C 17.46875 -18.914062 17.113281 -19.957031 16.40625 -20.6875 C 15.707031 -21.414062 14.734375 -21.78125 13.484375 -21.78125 C 12.210938 -21.78125 11.234375 -21.414062 10.546875 -20.6875 C 9.859375 -19.957031 9.515625 -18.914062 9.515625 -17.5625 C 9.515625 -16.1875 9.859375 -15.132812 10.546875 -14.40625 C 11.234375 -13.675781 12.210938 -13.3125 13.484375 -13.3125 Z M 13.40625 6.265625 C 15.625 6.265625 17.238281 5.953125 18.25 5.328125 C 19.257812 4.703125 19.765625 3.890625 19.765625 2.890625 C 19.765625 2.078125 19.503906 1.476562 18.984375 1.09375 C 18.472656 0.707031 17.65625 0.5 16.53125 0.46875 L 11.421875 0.234375 C 11.242188 0.234375 11.082031 0.222656 10.9375 0.203125 C 10.789062 0.191406 10.644531 0.1875 10.5 0.1875 C 9.40625 0.1875 8.570312 0.421875 8 0.890625 C 7.4375 1.359375 7.15625 2.007812 7.15625 2.84375 C 7.15625 3.9375 7.675781 4.78125 8.71875 5.375 C 9.769531 5.96875 11.332031 6.265625 13.40625 6.265625 Z M 13.40625 6.265625 "/></g></g><g transform="translate(273.398426, 194.549985)"><g><path d="M 25.546875 -11.46875 L 8.9375 -11.46875 C 9.125 -9.21875 9.765625 -7.578125 10.859375 -6.546875 C 11.953125 -5.523438 13.441406 -5.015625 15.328125 -5.015625 C 16.816406 -5.015625 18.019531 -5.289062 18.9375 -5.84375 C 19.863281 -6.40625 20.609375 -7.25 21.171875 -8.375 L 21.65625 -8.375 L 25.96875 -5.609375 C 25.125 -3.796875 23.847656 -2.320312 22.140625 -1.1875 C 20.441406 -0.0625 18.171875 0.5 15.328125 0.5 C 12.660156 0.5 10.351562 -0.0078125 8.40625 -1.03125 C 6.457031 -2.050781 4.957031 -3.5625 3.90625 -5.5625 C 2.851562 -7.570312 2.328125 -10.023438 2.328125 -12.921875 C 2.328125 -15.859375 2.878906 -18.332031 3.984375 -20.34375 C 5.097656 -22.363281 6.597656 -23.867188 8.484375 -24.859375 C 10.378906 -25.847656 12.503906 -26.34375 14.859375 -26.34375 C 18.515625 -26.34375 21.316406 -25.375 23.265625 -23.4375 C 25.210938 -21.5 26.1875 -18.65625 26.1875 -14.90625 C 26.1875 -13.550781 26.140625 -12.5 26.046875 -11.75 Z M 19.96875 -15.65625 C 19.90625 -17.625 19.445312 -19.054688 18.59375 -19.953125 C 17.75 -20.859375 16.503906 -21.3125 14.859375 -21.3125 C 11.578125 -21.3125 9.648438 -19.425781 9.078125 -15.65625 Z M 19.96875 -15.65625 "/></g></g><g transform="translate(301.499986, 194.549985)"><g/></g><g transform="translate(312.820298, 194.549985)"><g><path d="M 10.078125 0.5 C 8.421875 0.5 6.984375 0.191406 5.765625 -0.421875 C 4.546875 -1.035156 3.609375 -1.929688 2.953125 -3.109375 C 2.296875 -4.285156 1.96875 -5.703125 1.96875 -7.359375 C 1.96875 -8.890625 2.296875 -10.175781 2.953125 -11.21875 C 3.609375 -12.257812 4.625 -13.109375 6 -13.765625 C 7.375 -14.429688 9.171875 -14.945312 11.390625 -15.3125 C 12.941406 -15.5625 14.117188 -15.832031 14.921875 -16.125 C 15.722656 -16.425781 16.265625 -16.765625 16.546875 -17.140625 C 16.828125 -17.515625 16.96875 -17.988281 16.96875 -18.5625 C 16.96875 -19.394531 16.675781 -20.03125 16.09375 -20.46875 C 15.519531 -20.90625 14.5625 -21.125 13.21875 -21.125 C 11.78125 -21.125 10.410156 -20.800781 9.109375 -20.15625 C 7.816406 -19.519531 6.695312 -18.675781 5.75 -17.625 L 5.28125 -17.625 L 2.5625 -21.734375 C 3.875 -23.179688 5.472656 -24.3125 7.359375 -25.125 C 9.253906 -25.9375 11.316406 -26.34375 13.546875 -26.34375 C 16.972656 -26.34375 19.453125 -25.613281 20.984375 -24.15625 C 22.515625 -22.707031 23.28125 -20.648438 23.28125 -17.984375 L 23.28125 -6.75 C 23.28125 -5.59375 23.785156 -5.015625 24.796875 -5.015625 C 25.191406 -5.015625 25.578125 -5.085938 25.953125 -5.234375 L 26.28125 -5.140625 L 26.75 -0.609375 C 26.382812 -0.378906 25.878906 -0.1875 25.234375 -0.03125 C 24.597656 0.113281 23.898438 0.1875 23.140625 0.1875 C 21.585938 0.1875 20.378906 -0.109375 19.515625 -0.703125 C 18.648438 -1.296875 18.03125 -2.226562 17.65625 -3.5 L 17.15625 -3.546875 C 15.894531 -0.847656 13.535156 0.5 10.078125 0.5 Z M 12.140625 -4.359375 C 13.640625 -4.359375 14.835938 -4.863281 15.734375 -5.875 C 16.640625 -6.882812 17.09375 -8.285156 17.09375 -10.078125 L 17.09375 -12.703125 L 16.640625 -12.796875 C 16.253906 -12.484375 15.742188 -12.222656 15.109375 -12.015625 C 14.472656 -11.804688 13.5625 -11.597656 12.375 -11.390625 C 10.96875 -11.160156 9.957031 -10.757812 9.34375 -10.1875 C 8.726562 -9.613281 8.421875 -8.804688 8.421875 -7.765625 C 8.421875 -6.648438 8.75 -5.800781 9.40625 -5.21875 C 10.0625 -4.644531 10.972656 -4.359375 12.140625 -4.359375 Z M 12.140625 -4.359375 "/></g></g><g transform="translate(340.078108, 194.549985)"><g><path d="M 3.734375 0 L 3.734375 -25.859375 L 9.96875 -25.859375 L 9.96875 -22.390625 L 10.453125 -22.296875 C 11.296875 -23.679688 12.285156 -24.703125 13.421875 -25.359375 C 14.554688 -26.015625 16.003906 -26.34375 17.765625 -26.34375 C 19.722656 -26.34375 21.296875 -25.957031 22.484375 -25.1875 C 23.671875 -24.414062 24.535156 -23.285156 25.078125 -21.796875 L 25.578125 -21.796875 C 26.367188 -23.347656 27.394531 -24.492188 28.65625 -25.234375 C 29.914062 -25.972656 31.484375 -26.34375 33.359375 -26.34375 C 38.710938 -26.34375 41.390625 -23.359375 41.390625 -17.390625 L 41.390625 0 L 34.90625 0 L 34.90625 -16.578125 C 34.90625 -18.085938 34.609375 -19.175781 34.015625 -19.84375 C 33.421875 -20.519531 32.46875 -20.859375 31.15625 -20.859375 C 27.59375 -20.859375 25.8125 -18.476562 25.8125 -13.71875 L 25.8125 0 L 19.3125 0 L 19.3125 -16.578125 C 19.3125 -18.085938 19.007812 -19.175781 18.40625 -19.84375 C 17.8125 -20.519531 16.859375 -20.859375 15.546875 -20.859375 C 13.867188 -20.859375 12.5625 -20.300781 11.625 -19.1875 C 10.6875 -18.070312 10.21875 -16.296875 10.21875 -13.859375 L 10.21875 0 Z M 3.734375 0 "/></g></g><g transform="translate(384.796855, 194.549985)"><g><path d="M 15.03125 0.5 C 12.5 0.5 10.273438 -0.0195312 8.359375 -1.0625 C 6.441406 -2.101562 4.957031 -3.628906 3.90625 -5.640625 C 2.851562 -7.648438 2.328125 -10.078125 2.328125 -12.921875 C 2.328125 -15.765625 2.851562 -18.191406 3.90625 -20.203125 C 4.957031 -22.222656 6.441406 -23.75 8.359375 -24.78125 C 10.273438 -25.820312 12.5 -26.34375 15.03125 -26.34375 C 17.5625 -26.34375 19.78125 -25.820312 21.6875 -24.78125 C 23.601562 -23.75 25.09375 -22.222656 26.15625 -20.203125 C 27.21875 -18.191406 27.75 -15.765625 27.75 -12.921875 C 27.75 -10.078125 27.21875 -7.648438 26.15625 -5.640625 C 25.09375 -3.628906 23.601562 -2.101562 21.6875 -1.0625 C 19.78125 -0.0195312 17.5625 0.5 15.03125 0.5 Z M 15.03125 -5.015625 C 19.039062 -5.015625 21.046875 -7.648438 21.046875 -12.921875 C 21.046875 -15.648438 20.53125 -17.648438 19.5 -18.921875 C 18.46875 -20.203125 16.976562 -20.84375 15.03125 -20.84375 C 11.007812 -20.84375 9 -18.203125 9 -12.921875 C 9 -7.648438 11.007812 -5.015625 15.03125 -5.015625 Z M 15.03125 -5.015625 "/></g></g><g transform="translate(414.843727, 194.549985)"><g><path d="M 11.84375 0.5 C 8.9375 0.5 6.789062 -0.289062 5.40625 -1.875 C 4.019531 -3.46875 3.328125 -5.75 3.328125 -8.71875 L 3.328125 -25.859375 L 9.828125 -25.859375 L 9.828125 -9.546875 C 9.828125 -7.960938 10.164062 -6.804688 10.84375 -6.078125 C 11.519531 -5.359375 12.570312 -5 14 -5 C 15.789062 -5 17.1875 -5.585938 18.1875 -6.765625 C 19.1875 -7.941406 19.6875 -9.796875 19.6875 -12.328125 L 19.6875 -25.859375 L 26.1875 -25.859375 L 26.1875 0 L 19.953125 0 L 19.953125 -3.796875 L 19.453125 -3.921875 C 18.628906 -2.429688 17.617188 -1.320312 16.421875 -0.59375 C 15.222656 0.132812 13.695312 0.5 11.84375 0.5 Z M 11.84375 0.5 "/></g></g><g transform="translate(444.749975, 194.549985)"><g><path d="M 3.734375 0 L 3.734375 -25.859375 L 9.96875 -25.859375 L 9.96875 -22.0625 L 10.453125 -21.9375 C 12.066406 -24.875 14.675781 -26.34375 18.28125 -26.34375 C 21.269531 -26.34375 23.460938 -25.53125 24.859375 -23.90625 C 26.253906 -22.28125 26.953125 -19.914062 26.953125 -16.8125 L 26.953125 0 L 20.46875 0 L 20.46875 -16.015625 C 20.46875 -17.734375 20.125 -18.96875 19.4375 -19.71875 C 18.75 -20.476562 17.644531 -20.859375 16.125 -20.859375 C 14.269531 -20.859375 12.820312 -20.253906 11.78125 -19.046875 C 10.738281 -17.847656 10.21875 -15.960938 10.21875 -13.390625 L 10.21875 0 Z M 3.734375 0 "/></g></g><g transform="translate(475.031223, 194.549985)"><g><path d="M 17.84375 -6.171875 L 19.53125 -1.359375 C 18.820312 -0.785156 17.9375 -0.332031 16.875 0 C 15.8125 0.332031 14.609375 0.5 13.265625 0.5 C 10.472656 0.5 8.347656 -0.257812 6.890625 -1.78125 C 5.441406 -3.3125 4.71875 -5.53125 4.71875 -8.4375 L 4.71875 -20.71875 L 0.78125 -20.71875 L 0.78125 -25.875 L 4.71875 -25.875 L 4.71875 -30.921875 L 11.203125 -31.96875 L 11.203125 -25.875 L 18.546875 -25.875 L 18.546875 -20.71875 L 11.203125 -20.71875 L 11.203125 -8.90625 C 11.203125 -7.625 11.46875 -6.691406 12 -6.109375 C 12.53125 -5.523438 13.304688 -5.234375 14.328125 -5.234375 C 15.484375 -5.234375 16.488281 -5.546875 17.34375 -6.171875 Z M 17.84375 -6.171875 "/></g></g><g transform="translate(495.117159, 194.549985)"><g><path d="M 12.09375 0.5 C 10.332031 0.5 8.71875 0.289062 7.25 -0.125 C 5.78125 -0.539062 4.523438 -1.113281 3.484375 -1.84375 C 2.441406 -2.570312 1.671875 -3.40625 1.171875 -4.34375 L 4.78125 -8.234375 L 5.28125 -8.234375 C 6.132812 -7.078125 7.144531 -6.207031 8.3125 -5.625 C 9.488281 -5.050781 10.765625 -4.765625 12.140625 -4.765625 C 13.410156 -4.765625 14.363281 -4.988281 15 -5.4375 C 15.644531 -5.894531 15.96875 -6.546875 15.96875 -7.390625 C 15.96875 -8.046875 15.734375 -8.59375 15.265625 -9.03125 C 14.804688 -9.476562 14.0625 -9.828125 13.03125 -10.078125 L 9.609375 -10.90625 C 7.046875 -11.507812 5.175781 -12.441406 4 -13.703125 C 2.820312 -14.960938 2.234375 -16.5625 2.234375 -18.5 C 2.234375 -20.101562 2.640625 -21.5 3.453125 -22.6875 C 4.273438 -23.875 5.429688 -24.78125 6.921875 -25.40625 C 8.421875 -26.03125 10.160156 -26.34375 12.140625 -26.34375 C 14.472656 -26.34375 16.40625 -26.003906 17.9375 -25.328125 C 19.46875 -24.660156 20.660156 -23.765625 21.515625 -22.640625 L 18.046875 -18.890625 L 17.578125 -18.890625 C 16.859375 -19.703125 16.050781 -20.296875 15.15625 -20.671875 C 14.257812 -21.046875 13.253906 -21.234375 12.140625 -21.234375 C 9.578125 -21.234375 8.296875 -20.4375 8.296875 -18.84375 C 8.296875 -18.175781 8.535156 -17.628906 9.015625 -17.203125 C 9.492188 -16.785156 10.332031 -16.441406 11.53125 -16.171875 L 14.71875 -15.46875 C 17.34375 -14.90625 19.257812 -14.003906 20.46875 -12.765625 C 21.6875 -11.523438 22.296875 -9.859375 22.296875 -7.765625 C 22.296875 -6.117188 21.890625 -4.671875 21.078125 -3.421875 C 20.265625 -2.171875 19.09375 -1.203125 17.5625 -0.515625 C 16.03125 0.160156 14.207031 0.5 12.09375 0.5 Z M 12.09375 0.5 "/></g></g><g transform="translate(518.953095, 194.549985)"><g/></g><g transform="translate(530.273406, 194.549985)"><g><path d="M 15.03125 0.5 C 12.5 0.5 10.273438 -0.0195312 8.359375 -1.0625 C 6.441406 -2.101562 4.957031 -3.628906 3.90625 -5.640625 C 2.851562 -7.648438 2.328125 -10.078125 2.328125 -12.921875 C 2.328125 -15.765625 2.851562 -18.191406 3.90625 -20.203125 C 4.957031 -22.222656 6.441406 -23.75 8.359375 -24.78125 C 10.273438 -25.820312 12.5 -26.34375 15.03125 -26.34375 C 17.5625 -26.34375 19.78125 -25.820312 21.6875 -24.78125 C 23.601562 -23.75 25.09375 -22.222656 26.15625 -20.203125 C 27.21875 -18.191406 27.75 -15.765625 27.75 -12.921875 C 27.75 -10.078125 27.21875 -7.648438 26.15625 -5.640625 C 25.09375 -3.628906 23.601562 -2.101562 21.6875 -1.0625 C 19.78125 -0.0195312 17.5625 0.5 15.03125 0.5 Z M 15.03125 -5.015625 C 19.039062 -5.015625 21.046875 -7.648438 21.046875 -12.921875 C 21.046875 -15.648438 20.53125 -17.648438 19.5 -18.921875 C 18.46875 -20.203125 16.976562 -20.84375 15.03125 -20.84375 C 11.007812 -20.84375 9 -18.203125 9 -12.921875 C 9 -7.648438 11.007812 -5.015625 15.03125 -5.015625 Z M 15.03125 -5.015625 "/></g></g><g transform="translate(560.320279, 194.549985)"><g><path d="M 4.53125 0 L 4.53125 -20.71875 L 0.875 -20.71875 L 0.875 -25.875 L 4.53125 -25.875 C 4.257812 -26.96875 4.125 -27.992188 4.125 -28.953125 C 4.125 -30.585938 4.5 -31.988281 5.25 -33.15625 C 6 -34.320312 7.078125 -35.207031 8.484375 -35.8125 C 9.890625 -36.425781 11.5625 -36.734375 13.5 -36.734375 C 16.363281 -36.734375 18.5 -36.238281 19.90625 -35.25 L 18.375 -30.46875 L 17.890625 -30.375 C 16.921875 -31.0625 15.675781 -31.40625 14.15625 -31.40625 C 12.988281 -31.40625 12.109375 -31.117188 11.515625 -30.546875 C 10.929688 -29.984375 10.640625 -29.207031 10.640625 -28.21875 C 10.640625 -27.800781 10.664062 -27.414062 10.71875 -27.0625 C 10.78125 -26.707031 10.878906 -26.3125 11.015625 -25.875 L 18.40625 -25.875 L 18.40625 -20.71875 L 11.015625 -20.71875 L 11.015625 0 Z M 4.53125 0 "/></g></g></g><g fill="#ffde59" fill-opacity="1"><g transform="translate(15.175791, 261.29998)"><g><path d="M 12.78125 0.5 C 10.726562 0.5 8.914062 0.00390625 7.34375 -0.984375 C 5.78125 -1.984375 4.550781 -3.488281 3.65625 -5.5 C 2.769531 -7.507812 2.328125 -9.984375 2.328125 -12.921875 C 2.328125 -15.867188 2.78125 -18.347656 3.6875 -20.359375 C 4.601562 -22.367188 5.867188 -23.867188 7.484375 -24.859375 C 9.109375 -25.847656 10.984375 -26.34375 13.109375 -26.34375 C 14.710938 -26.34375 16.101562 -26.066406 17.28125 -25.515625 C 18.46875 -24.960938 19.46875 -24.097656 20.28125 -22.921875 L 20.765625 -23.046875 L 20.765625 -36.234375 L 27.265625 -36.234375 L 27.265625 0 L 20.765625 0 L 20.765625 -3.359375 L 20.28125 -3.453125 C 19.5625 -2.234375 18.578125 -1.269531 17.328125 -0.5625 C 16.078125 0.144531 14.5625 0.5 12.78125 0.5 Z M 14.890625 -5.015625 C 16.710938 -5.015625 18.15625 -5.664062 19.21875 -6.96875 C 20.28125 -8.28125 20.8125 -10.265625 20.8125 -12.921875 C 20.8125 -15.578125 20.28125 -17.5625 19.21875 -18.875 C 18.15625 -20.1875 16.710938 -20.84375 14.890625 -20.84375 C 12.984375 -20.84375 11.523438 -20.203125 10.515625 -18.921875 C 9.503906 -17.648438 9 -15.648438 9 -12.921875 C 9 -10.203125 9.503906 -8.203125 10.515625 -6.921875 C 11.523438 -5.648438 12.984375 -5.015625 14.890625 -5.015625 Z M 14.890625 -5.015625 "/></g></g><g transform="translate(46.160163, 261.29998)"><g><path d="M 10.078125 0.5 C 8.421875 0.5 6.984375 0.191406 5.765625 -0.421875 C 4.546875 -1.035156 3.609375 -1.929688 2.953125 -3.109375 C 2.296875 -4.285156 1.96875 -5.703125 1.96875 -7.359375 C 1.96875 -8.890625 2.296875 -10.175781 2.953125 -11.21875 C 3.609375 -12.257812 4.625 -13.109375 6 -13.765625 C 7.375 -14.429688 9.171875 -14.945312 11.390625 -15.3125 C 12.941406 -15.5625 14.117188 -15.832031 14.921875 -16.125 C 15.722656 -16.425781 16.265625 -16.765625 16.546875 -17.140625 C 16.828125 -17.515625 16.96875 -17.988281 16.96875 -18.5625 C 16.96875 -19.394531 16.675781 -20.03125 16.09375 -20.46875 C 15.519531 -20.90625 14.5625 -21.125 13.21875 -21.125 C 11.78125 -21.125 10.410156 -20.800781 9.109375 -20.15625 C 7.816406 -19.519531 6.695312 -18.675781 5.75 -17.625 L 5.28125 -17.625 L 2.5625 -21.734375 C 3.875 -23.179688 5.472656 -24.3125 7.359375 -25.125 C 9.253906 -25.9375 11.316406 -26.34375 13.546875 -26.34375 C 16.972656 -26.34375 19.453125 -25.613281 20.984375 -24.15625 C 22.515625 -22.707031 23.28125 -20.648438 23.28125 -17.984375 L 23.28125 -6.75 C 23.28125 -5.59375 23.785156 -5.015625 24.796875 -5.015625 C 25.191406 -5.015625 25.578125 -5.085938 25.953125 -5.234375 L 26.28125 -5.140625 L 26.75 -0.609375 C 26.382812 -0.378906 25.878906 -0.1875 25.234375 -0.03125 C 24.597656 0.113281 23.898438 0.1875 23.140625 0.1875 C 21.585938 0.1875 20.378906 -0.109375 19.515625 -0.703125 C 18.648438 -1.296875 18.03125 -2.226562 17.65625 -3.5 L 17.15625 -3.546875 C 15.894531 -0.847656 13.535156 0.5 10.078125 0.5 Z M 12.140625 -4.359375 C 13.640625 -4.359375 14.835938 -4.863281 15.734375 -5.875 C 16.640625 -6.882812 17.09375 -8.285156 17.09375 -10.078125 L 17.09375 -12.703125 L 16.640625 -12.796875 C 16.253906 -12.484375 15.742188 -12.222656 15.109375 -12.015625 C 14.472656 -11.804688 13.5625 -11.597656 12.375 -11.390625 C 10.96875 -11.160156 9.957031 -10.757812 9.34375 -10.1875 C 8.726562 -9.613281 8.421875 -8.804688 8.421875 -7.765625 C 8.421875 -6.648438 8.75 -5.800781 9.40625 -5.21875 C 10.0625 -4.644531 10.972656 -4.359375 12.140625 -4.359375 Z M 12.140625 -4.359375 "/></g></g><g transform="translate(73.417974, 261.29998)"><g><path d="M 17.84375 -6.171875 L 19.53125 -1.359375 C 18.820312 -0.785156 17.9375 -0.332031 16.875 0 C 15.8125 0.332031 14.609375 0.5 13.265625 0.5 C 10.472656 0.5 8.347656 -0.257812 6.890625 -1.78125 C 5.441406 -3.3125 4.71875 -5.53125 4.71875 -8.4375 L 4.71875 -20.71875 L 0.78125 -20.71875 L 0.78125 -25.875 L 4.71875 -25.875 L 4.71875 -30.921875 L 11.203125 -31.96875 L 11.203125 -25.875 L 18.546875 -25.875 L 18.546875 -20.71875 L 11.203125 -20.71875 L 11.203125 -8.90625 C 11.203125 -7.625 11.46875 -6.691406 12 -6.109375 C 12.53125 -5.523438 13.304688 -5.234375 14.328125 -5.234375 C 15.484375 -5.234375 16.488281 -5.546875 17.34375 -6.171875 Z M 17.84375 -6.171875 "/></g></g><g transform="translate(93.503909, 261.29998)"><g><path d="M 10.078125 0.5 C 8.421875 0.5 6.984375 0.191406 5.765625 -0.421875 C 4.546875 -1.035156 3.609375 -1.929688 2.953125 -3.109375 C 2.296875 -4.285156 1.96875 -5.703125 1.96875 -7.359375 C 1.96875 -8.890625 2.296875 -10.175781 2.953125 -11.21875 C 3.609375 -12.257812 4.625 -13.109375 6 -13.765625 C 7.375 -14.429688 9.171875 -14.945312 11.390625 -15.3125 C 12.941406 -15.5625 14.117188 -15.832031 14.921875 -16.125 C 15.722656 -16.425781 16.265625 -16.765625 16.546875 -17.140625 C 16.828125 -17.515625 16.96875 -17.988281 16.96875 -18.5625 C 16.96875 -19.394531 16.675781 -20.03125 16.09375 -20.46875 C 15.519531 -20.90625 14.5625 -21.125 13.21875 -21.125 C 11.78125 -21.125 10.410156 -20.800781 9.109375 -20.15625 C 7.816406 -19.519531 6.695312 -18.675781 5.75 -17.625 L 5.28125 -17.625 L 2.5625 -21.734375 C 3.875 -23.179688 5.472656 -24.3125 7.359375 -25.125 C 9.253906 -25.9375 11.316406 -26.34375 13.546875 -26.34375 C 16.972656 -26.34375 19.453125 -25.613281 20.984375 -24.15625 C 22.515625 -22.707031 23.28125 -20.648438 23.28125 -17.984375 L 23.28125 -6.75 C 23.28125 -5.59375 23.785156 -5.015625 24.796875 -5.015625 C 25.191406 -5.015625 25.578125 -5.085938 25.953125 -5.234375 L 26.28125 -5.140625 L 26.75 -0.609375 C 26.382812 -0.378906 25.878906 -0.1875 25.234375 -0.03125 C 24.597656 0.113281 23.898438 0.1875 23.140625 0.1875 C 21.585938 0.1875 20.378906 -0.109375 19.515625 -0.703125 C 18.648438 -1.296875 18.03125 -2.226562 17.65625 -3.5 L 17.15625 -3.546875 C 15.894531 -0.847656 13.535156 0.5 10.078125 0.5 Z M 12.140625 -4.359375 C 13.640625 -4.359375 14.835938 -4.863281 15.734375 -5.875 C 16.640625 -6.882812 17.09375 -8.285156 17.09375 -10.078125 L 17.09375 -12.703125 L 16.640625 -12.796875 C 16.253906 -12.484375 15.742188 -12.222656 15.109375 -12.015625 C 14.472656 -11.804688 13.5625 -11.597656 12.375 -11.390625 C 10.96875 -11.160156 9.957031 -10.757812 9.34375 -10.1875 C 8.726562 -9.613281 8.421875 -8.804688 8.421875 -7.765625 C 8.421875 -6.648438 8.75 -5.800781 9.40625 -5.21875 C 10.0625 -4.644531 10.972656 -4.359375 12.140625 -4.359375 Z M 12.140625 -4.359375 "/></g></g><g transform="translate(120.76172, 261.29998)"><g/></g><g transform="translate(132.082031, 261.29998)"><g><path d="M 17.84375 -6.171875 L 19.53125 -1.359375 C 18.820312 -0.785156 17.9375 -0.332031 16.875 0 C 15.8125 0.332031 14.609375 0.5 13.265625 0.5 C 10.472656 0.5 8.347656 -0.257812 6.890625 -1.78125 C 5.441406 -3.3125 4.71875 -5.53125 4.71875 -8.4375 L 4.71875 -20.71875 L 0.78125 -20.71875 L 0.78125 -25.875 L 4.71875 -25.875 L 4.71875 -30.921875 L 11.203125 -31.96875 L 11.203125 -25.875 L 18.546875 -25.875 L 18.546875 -20.71875 L 11.203125 -20.71875 L 11.203125 -8.90625 C 11.203125 -7.625 11.46875 -6.691406 12 -6.109375 C 12.53125 -5.523438 13.304688 -5.234375 14.328125 -5.234375 C 15.484375 -5.234375 16.488281 -5.546875 17.34375 -6.171875 Z M 17.84375 -6.171875 "/></g></g><g transform="translate(152.167967, 261.29998)"><g><path d="M 3.734375 0 L 3.734375 -36.234375 L 10.21875 -36.234375 L 10.21875 -22.484375 L 10.71875 -22.390625 C 11.570312 -23.648438 12.625 -24.625 13.875 -25.3125 C 15.125 -26 16.632812 -26.34375 18.40625 -26.34375 C 24.101562 -26.34375 26.953125 -23.109375 26.953125 -16.640625 L 26.953125 0 L 20.46875 0 L 20.46875 -15.828125 C 20.46875 -17.585938 20.113281 -18.863281 19.40625 -19.65625 C 18.707031 -20.457031 17.613281 -20.859375 16.125 -20.859375 C 14.3125 -20.859375 12.875 -20.253906 11.8125 -19.046875 C 10.75 -17.835938 10.21875 -15.953125 10.21875 -13.390625 L 10.21875 0 Z M 3.734375 0 "/></g></g><g transform="translate(182.449215, 261.29998)"><g><path d="M 10.078125 0.5 C 8.421875 0.5 6.984375 0.191406 5.765625 -0.421875 C 4.546875 -1.035156 3.609375 -1.929688 2.953125 -3.109375 C 2.296875 -4.285156 1.96875 -5.703125 1.96875 -7.359375 C 1.96875 -8.890625 2.296875 -10.175781 2.953125 -11.21875 C 3.609375 -12.257812 4.625 -13.109375 6 -13.765625 C 7.375 -14.429688 9.171875 -14.945312 11.390625 -15.3125 C 12.941406 -15.5625 14.117188 -15.832031 14.921875 -16.125 C 15.722656 -16.425781 16.265625 -16.765625 16.546875 -17.140625 C 16.828125 -17.515625 16.96875 -17.988281 16.96875 -18.5625 C 16.96875 -19.394531 16.675781 -20.03125 16.09375 -20.46875 C 15.519531 -20.90625 14.5625 -21.125 13.21875 -21.125 C 11.78125 -21.125 10.410156 -20.800781 9.109375 -20.15625 C 7.816406 -19.519531 6.695312 -18.675781 5.75 -17.625 L 5.28125 -17.625 L 2.5625 -21.734375 C 3.875 -23.179688 5.472656 -24.3125 7.359375 -25.125 C 9.253906 -25.9375 11.316406 -26.34375 13.546875 -26.34375 C 16.972656 -26.34375 19.453125 -25.613281 20.984375 -24.15625 C 22.515625 -22.707031 23.28125 -20.648438 23.28125 -17.984375 L 23.28125 -6.75 C 23.28125 -5.59375 23.785156 -5.015625 24.796875 -5.015625 C 25.191406 -5.015625 25.578125 -5.085938 25.953125 -5.234375 L 26.28125 -5.140625 L 26.75 -0.609375 C 26.382812 -0.378906 25.878906 -0.1875 25.234375 -0.03125 C 24.597656 0.113281 23.898438 0.1875 23.140625 0.1875 C 21.585938 0.1875 20.378906 -0.109375 19.515625 -0.703125 C 18.648438 -1.296875 18.03125 -2.226562 17.65625 -3.5 L 17.15625 -3.546875 C 15.894531 -0.847656 13.535156 0.5 10.078125 0.5 Z M 12.140625 -4.359375 C 13.640625 -4.359375 14.835938 -4.863281 15.734375 -5.875 C 16.640625 -6.882812 17.09375 -8.285156 17.09375 -10.078125 L 17.09375 -12.703125 L 16.640625 -12.796875 C 16.253906 -12.484375 15.742188 -12.222656 15.109375 -12.015625 C 14.472656 -11.804688 13.5625 -11.597656 12.375 -11.390625 C 10.96875 -11.160156 9.957031 -10.757812 9.34375 -10.1875 C 8.726562 -9.613281 8.421875 -8.804688 8.421875 -7.765625 C 8.421875 -6.648438 8.75 -5.800781 9.40625 -5.21875 C 10.0625 -4.644531 10.972656 -4.359375 12.140625 -4.359375 Z M 12.140625 -4.359375 "/></g></g><g transform="translate(209.707025, 261.29998)"><g><path d="M 17.84375 -6.171875 L 19.53125 -1.359375 C 18.820312 -0.785156 17.9375 -0.332031 16.875 0 C 15.8125 0.332031 14.609375 0.5 13.265625 0.5 C 10.472656 0.5 8.347656 -0.257812 6.890625 -1.78125 C 5.441406 -3.3125 4.71875 -5.53125 4.71875 -8.4375 L 4.71875 -20.71875 L 0.78125 -20.71875 L 0.78125 -25.875 L 4.71875 -25.875 L 4.71875 -30.921875 L 11.203125 -31.96875 L 11.203125 -25.875 L 18.546875 -25.875 L 18.546875 -20.71875 L 11.203125 -20.71875 L 11.203125 -8.90625 C 11.203125 -7.625 11.46875 -6.691406 12 -6.109375 C 12.53125 -5.523438 13.304688 -5.234375 14.328125 -5.234375 C 15.484375 -5.234375 16.488281 -5.546875 17.34375 -6.171875 Z M 17.84375 -6.171875 "/></g></g><g transform="translate(229.792961, 261.29998)"><g/></g><g transform="translate(241.113272, 261.29998)"><g><path d="M 13.875 0 L 7.078125 0 L 0.9375 -25.859375 L 6.96875 -25.859375 L 10.765625 -8.375 L 11.25 -8.375 L 16.171875 -25.859375 L 21.796875 -25.859375 L 26.890625 -8.375 L 27.375 -8.375 L 31.03125 -25.859375 L 36.890625 -25.859375 L 30.828125 0 L 24 0 L 19.109375 -17.609375 L 18.609375 -17.609375 Z M 13.875 0 "/></g></g><g transform="translate(278.917957, 261.29998)"><g><path d="M 6.96875 -28.953125 C 5.789062 -28.953125 4.832031 -29.304688 4.09375 -30.015625 C 3.363281 -30.722656 3 -31.640625 3 -32.765625 C 3 -33.878906 3.363281 -34.789062 4.09375 -35.5 C 4.832031 -36.207031 5.789062 -36.5625 6.96875 -36.5625 C 7.75 -36.5625 8.441406 -36.394531 9.046875 -36.0625 C 9.660156 -35.738281 10.132812 -35.289062 10.46875 -34.71875 C 10.800781 -34.15625 10.96875 -33.503906 10.96875 -32.765625 C 10.96875 -32.035156 10.800781 -31.378906 10.46875 -30.796875 C 10.132812 -30.222656 9.660156 -29.769531 9.046875 -29.4375 C 8.441406 -29.113281 7.75 -28.953125 6.96875 -28.953125 Z M 3.734375 0 L 3.734375 -25.859375 L 10.21875 -25.859375 L 10.21875 0 Z M 3.734375 0 "/></g></g><g transform="translate(292.839831, 261.29998)"><g><path d="M 10.734375 0.5 C 8.410156 0.5 6.632812 -0.128906 5.40625 -1.390625 C 4.175781 -2.648438 3.5625 -4.5625 3.5625 -7.125 L 3.5625 -36.234375 L 10.0625 -36.234375 L 10.0625 -7.390625 C 10.0625 -5.804688 10.71875 -5.015625 12.03125 -5.015625 C 12.40625 -5.015625 12.800781 -5.078125 13.21875 -5.203125 L 13.546875 -5.109375 L 14.140625 -0.125 C 13.773438 0.0703125 13.296875 0.222656 12.703125 0.328125 C 12.109375 0.441406 11.453125 0.5 10.734375 0.5 Z M 10.734375 0.5 "/></g></g><g transform="translate(307.699205, 261.29998)"><g><path d="M 10.734375 0.5 C 8.410156 0.5 6.632812 -0.128906 5.40625 -1.390625 C 4.175781 -2.648438 3.5625 -4.5625 3.5625 -7.125 L 3.5625 -36.234375 L 10.0625 -36.234375 L 10.0625 -7.390625 C 10.0625 -5.804688 10.71875 -5.015625 12.03125 -5.015625 C 12.40625 -5.015625 12.800781 -5.078125 13.21875 -5.203125 L 13.546875 -5.109375 L 14.140625 -0.125 C 13.773438 0.0703125 13.296875 0.222656 12.703125 0.328125 C 12.109375 0.441406 11.453125 0.5 10.734375 0.5 Z M 10.734375 0.5 "/></g></g><g transform="translate(322.558578, 261.29998)"><g/></g><g transform="translate(333.87889, 261.29998)"><g><path d="M 3.734375 0 L 3.734375 -25.859375 L 9.96875 -25.859375 L 9.96875 -22.0625 L 10.453125 -21.9375 C 12.066406 -24.875 14.675781 -26.34375 18.28125 -26.34375 C 21.269531 -26.34375 23.460938 -25.53125 24.859375 -23.90625 C 26.253906 -22.28125 26.953125 -19.914062 26.953125 -16.8125 L 26.953125 0 L 20.46875 0 L 20.46875 -16.015625 C 20.46875 -17.734375 20.125 -18.96875 19.4375 -19.71875 C 18.75 -20.476562 17.644531 -20.859375 16.125 -20.859375 C 14.269531 -20.859375 12.820312 -20.253906 11.78125 -19.046875 C 10.738281 -17.847656 10.21875 -15.960938 10.21875 -13.390625 L 10.21875 0 Z M 3.734375 0 "/></g></g><g transform="translate(364.160138, 261.29998)"><g><path d="M 15.03125 0.5 C 12.5 0.5 10.273438 -0.0195312 8.359375 -1.0625 C 6.441406 -2.101562 4.957031 -3.628906 3.90625 -5.640625 C 2.851562 -7.648438 2.328125 -10.078125 2.328125 -12.921875 C 2.328125 -15.765625 2.851562 -18.191406 3.90625 -20.203125 C 4.957031 -22.222656 6.441406 -23.75 8.359375 -24.78125 C 10.273438 -25.820312 12.5 -26.34375 15.03125 -26.34375 C 17.5625 -26.34375 19.78125 -25.820312 21.6875 -24.78125 C 23.601562 -23.75 25.09375 -22.222656 26.15625 -20.203125 C 27.21875 -18.191406 27.75 -15.765625 27.75 -12.921875 C 27.75 -10.078125 27.21875 -7.648438 26.15625 -5.640625 C 25.09375 -3.628906 23.601562 -2.101562 21.6875 -1.0625 C 19.78125 -0.0195312 17.5625 0.5 15.03125 0.5 Z M 15.03125 -5.015625 C 19.039062 -5.015625 21.046875 -7.648438 21.046875 -12.921875 C 21.046875 -15.648438 20.53125 -17.648438 19.5 -18.921875 C 18.46875 -20.203125 16.976562 -20.84375 15.03125 -20.84375 C 11.007812 -20.84375 9 -18.203125 9 -12.921875 C 9 -7.648438 11.007812 -5.015625 15.03125 -5.015625 Z M 15.03125 -5.015625 "/></g></g><g transform="translate(394.20701, 261.29998)"><g><path d="M 17.84375 -6.171875 L 19.53125 -1.359375 C 18.820312 -0.785156 17.9375 -0.332031 16.875 0 C 15.8125 0.332031 14.609375 0.5 13.265625 0.5 C 10.472656 0.5 8.347656 -0.257812 6.890625 -1.78125 C 5.441406 -3.3125 4.71875 -5.53125 4.71875 -8.4375 L 4.71875 -20.71875 L 0.78125 -20.71875 L 0.78125 -25.875 L 4.71875 -25.875 L 4.71875 -30.921875 L 11.203125 -31.96875 L 11.203125 -25.875 L 18.546875 -25.875 L 18.546875 -20.71875 L 11.203125 -20.71875 L 11.203125 -8.90625 C 11.203125 -7.625 11.46875 -6.691406 12 -6.109375 C 12.53125 -5.523438 13.304688 -5.234375 14.328125 -5.234375 C 15.484375 -5.234375 16.488281 -5.546875 17.34375 -6.171875 Z M 17.84375 -6.171875 "/></g></g><g transform="translate(414.292946, 261.29998)"><g/></g><g transform="translate(425.613258, 261.29998)"><g><path d="M 18.078125 0.5 C 14.773438 0.5 12.320312 -0.738281 10.71875 -3.21875 L 10.21875 -3.125 L 10.21875 0 L 3.734375 0 L 3.734375 -36.234375 L 10.21875 -36.234375 L 10.21875 -22.8125 L 10.71875 -22.71875 C 11.601562 -23.945312 12.648438 -24.859375 13.859375 -25.453125 C 15.078125 -26.046875 16.53125 -26.34375 18.21875 -26.34375 C 20.3125 -26.34375 22.140625 -25.847656 23.703125 -24.859375 C 25.265625 -23.878906 26.484375 -22.382812 27.359375 -20.375 C 28.234375 -18.375 28.671875 -15.890625 28.671875 -12.921875 C 28.671875 -9.984375 28.21875 -7.507812 27.3125 -5.5 C 26.40625 -3.488281 25.15625 -1.984375 23.5625 -0.984375 C 21.96875 0.00390625 20.140625 0.5 18.078125 0.5 Z M 16.109375 -5.015625 C 18.015625 -5.015625 19.46875 -5.648438 20.46875 -6.921875 C 21.46875 -8.203125 21.96875 -10.203125 21.96875 -12.921875 C 21.96875 -15.648438 21.46875 -17.648438 20.46875 -18.921875 C 19.46875 -20.203125 18.015625 -20.84375 16.109375 -20.84375 C 14.273438 -20.84375 12.820312 -20.1875 11.75 -18.875 C 10.6875 -17.5625 10.15625 -15.578125 10.15625 -12.921875 C 10.15625 -10.265625 10.6875 -8.28125 11.75 -6.96875 C 12.820312 -5.664062 14.273438 -5.015625 16.109375 -5.015625 Z M 16.109375 -5.015625 "/></g></g><g transform="translate(456.574193, 261.29998)"><g><path d="M 25.546875 -11.46875 L 8.9375 -11.46875 C 9.125 -9.21875 9.765625 -7.578125 10.859375 -6.546875 C 11.953125 -5.523438 13.441406 -5.015625 15.328125 -5.015625 C 16.816406 -5.015625 18.019531 -5.289062 18.9375 -5.84375 C 19.863281 -6.40625 20.609375 -7.25 21.171875 -8.375 L 21.65625 -8.375 L 25.96875 -5.609375 C 25.125 -3.796875 23.847656 -2.320312 22.140625 -1.1875 C 20.441406 -0.0625 18.171875 0.5 15.328125 0.5 C 12.660156 0.5 10.351562 -0.0078125 8.40625 -1.03125 C 6.457031 -2.050781 4.957031 -3.5625 3.90625 -5.5625 C 2.851562 -7.570312 2.328125 -10.023438 2.328125 -12.921875 C 2.328125 -15.859375 2.878906 -18.332031 3.984375 -20.34375 C 5.097656 -22.363281 6.597656 -23.867188 8.484375 -24.859375 C 10.378906 -25.847656 12.503906 -26.34375 14.859375 -26.34375 C 18.515625 -26.34375 21.316406 -25.375 23.265625 -23.4375 C 25.210938 -21.5 26.1875 -18.65625 26.1875 -14.90625 C 26.1875 -13.550781 26.140625 -12.5 26.046875 -11.75 Z M 19.96875 -15.65625 C 19.90625 -17.625 19.445312 -19.054688 18.59375 -19.953125 C 17.75 -20.859375 16.503906 -21.3125 14.859375 -21.3125 C 11.578125 -21.3125 9.648438 -19.425781 9.078125 -15.65625 Z M 19.96875 -15.65625 "/></g></g><g transform="translate(484.675753, 261.29998)"><g/></g><g transform="translate(495.996064, 261.29998)"><g><path d="M 10.734375 0.5 C 8.410156 0.5 6.632812 -0.128906 5.40625 -1.390625 C 4.175781 -2.648438 3.5625 -4.5625 3.5625 -7.125 L 3.5625 -36.234375 L 10.0625 -36.234375 L 10.0625 -7.390625 C 10.0625 -5.804688 10.71875 -5.015625 12.03125 -5.015625 C 12.40625 -5.015625 12.800781 -5.078125 13.21875 -5.203125 L 13.546875 -5.109375 L 14.140625 -0.125 C 13.773438 0.0703125 13.296875 0.222656 12.703125 0.328125 C 12.109375 0.441406 11.453125 0.5 10.734375 0.5 Z M 10.734375 0.5 "/></g></g><g transform="translate(510.855438, 261.29998)"><g><path d="M 15.03125 0.5 C 12.5 0.5 10.273438 -0.0195312 8.359375 -1.0625 C 6.441406 -2.101562 4.957031 -3.628906 3.90625 -5.640625 C 2.851562 -7.648438 2.328125 -10.078125 2.328125 -12.921875 C 2.328125 -15.765625 2.851562 -18.191406 3.90625 -20.203125 C 4.957031 -22.222656 6.441406 -23.75 8.359375 -24.78125 C 10.273438 -25.820312 12.5 -26.34375 15.03125 -26.34375 C 17.5625 -26.34375 19.78125 -25.820312 21.6875 -24.78125 C 23.601562 -23.75 25.09375 -22.222656 26.15625 -20.203125 C 27.21875 -18.191406 27.75 -15.765625 27.75 -12.921875 C 27.75 -10.078125 27.21875 -7.648438 26.15625 -5.640625 C 25.09375 -3.628906 23.601562 -2.101562 21.6875 -1.0625 C 19.78125 -0.0195312 17.5625 0.5 15.03125 0.5 Z M 15.03125 -5.015625 C 19.039062 -5.015625 21.046875 -7.648438 21.046875 -12.921875 C 21.046875 -15.648438 20.53125 -17.648438 19.5 -18.921875 C 18.46875 -20.203125 16.976562 -20.84375 15.03125 -20.84375 C 11.007812 -20.84375 9 -18.203125 9 -12.921875 C 9 -7.648438 11.007812 -5.015625 15.03125 -5.015625 Z M 15.03125 -5.015625 "/></g></g><g transform="translate(540.902311, 261.29998)"><g><path d="M 12.09375 0.5 C 10.332031 0.5 8.71875 0.289062 7.25 -0.125 C 5.78125 -0.539062 4.523438 -1.113281 3.484375 -1.84375 C 2.441406 -2.570312 1.671875 -3.40625 1.171875 -4.34375 L 4.78125 -8.234375 L 5.28125 -8.234375 C 6.132812 -7.078125 7.144531 -6.207031 8.3125 -5.625 C 9.488281 -5.050781 10.765625 -4.765625 12.140625 -4.765625 C 13.410156 -4.765625 14.363281 -4.988281 15 -5.4375 C 15.644531 -5.894531 15.96875 -6.546875 15.96875 -7.390625 C 15.96875 -8.046875 15.734375 -8.59375 15.265625 -9.03125 C 14.804688 -9.476562 14.0625 -9.828125 13.03125 -10.078125 L 9.609375 -10.90625 C 7.046875 -11.507812 5.175781 -12.441406 4 -13.703125 C 2.820312 -14.960938 2.234375 -16.5625 2.234375 -18.5 C 2.234375 -20.101562 2.640625 -21.5 3.453125 -22.6875 C 4.273438 -23.875 5.429688 -24.78125 6.921875 -25.40625 C 8.421875 -26.03125 10.160156 -26.34375 12.140625 -26.34375 C 14.472656 -26.34375 16.40625 -26.003906 17.9375 -25.328125 C 19.46875 -24.660156 20.660156 -23.765625 21.515625 -22.640625 L 18.046875 -18.890625 L 17.578125 -18.890625 C 16.859375 -19.703125 16.050781 -20.296875 15.15625 -20.671875 C 14.257812 -21.046875 13.253906 -21.234375 12.140625 -21.234375 C 9.578125 -21.234375 8.296875 -20.4375 8.296875 -18.84375 C 8.296875 -18.175781 8.535156 -17.628906 9.015625 -17.203125 C 9.492188 -16.785156 10.332031 -16.441406 11.53125 -16.171875 L 14.71875 -15.46875 C 17.34375 -14.90625 19.257812 -14.003906 20.46875 -12.765625 C 21.6875 -11.523438 22.296875 -9.859375 22.296875 -7.765625 C 22.296875 -6.117188 21.890625 -4.671875 21.078125 -3.421875 C 20.265625 -2.171875 19.09375 -1.203125 17.5625 -0.515625 C 16.03125 0.160156 14.207031 0.5 12.09375 0.5 Z M 12.09375 0.5 "/></g></g><g transform="translate(564.738246, 261.29998)"><g><path d="M 17.84375 -6.171875 L 19.53125 -1.359375 C 18.820312 -0.785156 17.9375 -0.332031 16.875 0 C 15.8125 0.332031 14.609375 0.5 13.265625 0.5 C 10.472656 0.5 8.347656 -0.257812 6.890625 -1.78125 C 5.441406 -3.3125 4.71875 -5.53125 4.71875 -8.4375 L 4.71875 -20.71875 L 0.78125 -20.71875 L 0.78125 -25.875 L 4.71875 -25.875 L 4.71875 -30.921875 L 11.203125 -31.96875 L 11.203125 -25.875 L 18.546875 -25.875 L 18.546875 -20.71875 L 11.203125 -20.71875 L 11.203125 -8.90625 C 11.203125 -7.625 11.46875 -6.691406 12 -6.109375 C 12.53125 -5.523438 13.304688 -5.234375 14.328125 -5.234375 C 15.484375 -5.234375 16.488281 -5.546875 17.34375 -6.171875 Z M 17.84375 -6.171875 "/></g></g></g><g fill="#ffde59" fill-opacity="1"><g transform="translate(48.175788, 328.049974)"><g><path d="M 13.875 0 L 7.078125 0 L 0.9375 -25.859375 L 6.96875 -25.859375 L 10.765625 -8.375 L 11.25 -8.375 L 16.171875 -25.859375 L 21.796875 -25.859375 L 26.890625 -8.375 L 27.375 -8.375 L 31.03125 -25.859375 L 36.890625 -25.859375 L 30.828125 0 L 24 0 L 19.109375 -17.609375 L 18.609375 -17.609375 Z M 13.875 0 "/></g></g><g transform="translate(85.980473, 328.049974)"><g><path d="M 3.734375 0 L 3.734375 -36.234375 L 10.21875 -36.234375 L 10.21875 -22.484375 L 10.71875 -22.390625 C 11.570312 -23.648438 12.625 -24.625 13.875 -25.3125 C 15.125 -26 16.632812 -26.34375 18.40625 -26.34375 C 24.101562 -26.34375 26.953125 -23.109375 26.953125 -16.640625 L 26.953125 0 L 20.46875 0 L 20.46875 -15.828125 C 20.46875 -17.585938 20.113281 -18.863281 19.40625 -19.65625 C 18.707031 -20.457031 17.613281 -20.859375 16.125 -20.859375 C 14.3125 -20.859375 12.875 -20.253906 11.8125 -19.046875 C 10.75 -17.835938 10.21875 -15.953125 10.21875 -13.390625 L 10.21875 0 Z M 3.734375 0 "/></g></g><g transform="translate(116.261721, 328.049974)"><g><path d="M 25.546875 -11.46875 L 8.9375 -11.46875 C 9.125 -9.21875 9.765625 -7.578125 10.859375 -6.546875 C 11.953125 -5.523438 13.441406 -5.015625 15.328125 -5.015625 C 16.816406 -5.015625 18.019531 -5.289062 18.9375 -5.84375 C 19.863281 -6.40625 20.609375 -7.25 21.171875 -8.375 L 21.65625 -8.375 L 25.96875 -5.609375 C 25.125 -3.796875 23.847656 -2.320312 22.140625 -1.1875 C 20.441406 -0.0625 18.171875 0.5 15.328125 0.5 C 12.660156 0.5 10.351562 -0.0078125 8.40625 -1.03125 C 6.457031 -2.050781 4.957031 -3.5625 3.90625 -5.5625 C 2.851562 -7.570312 2.328125 -10.023438 2.328125 -12.921875 C 2.328125 -15.859375 2.878906 -18.332031 3.984375 -20.34375 C 5.097656 -22.363281 6.597656 -23.867188 8.484375 -24.859375 C 10.378906 -25.847656 12.503906 -26.34375 14.859375 -26.34375 C 18.515625 -26.34375 21.316406 -25.375 23.265625 -23.4375 C 25.210938 -21.5 26.1875 -18.65625 26.1875 -14.90625 C 26.1875 -13.550781 26.140625 -12.5 26.046875 -11.75 Z M 19.96875 -15.65625 C 19.90625 -17.625 19.445312 -19.054688 18.59375 -19.953125 C 17.75 -20.859375 16.503906 -21.3125 14.859375 -21.3125 C 11.578125 -21.3125 9.648438 -19.425781 9.078125 -15.65625 Z M 19.96875 -15.65625 "/></g></g><g transform="translate(144.363281, 328.049974)"><g><path d="M 3.734375 0 L 3.734375 -25.859375 L 9.96875 -25.859375 L 9.96875 -22.0625 L 10.453125 -21.9375 C 12.066406 -24.875 14.675781 -26.34375 18.28125 -26.34375 C 21.269531 -26.34375 23.460938 -25.53125 24.859375 -23.90625 C 26.253906 -22.28125 26.953125 -19.914062 26.953125 -16.8125 L 26.953125 0 L 20.46875 0 L 20.46875 -16.015625 C 20.46875 -17.734375 20.125 -18.96875 19.4375 -19.71875 C 18.75 -20.476562 17.644531 -20.859375 16.125 -20.859375 C 14.269531 -20.859375 12.820312 -20.253906 11.78125 -19.046875 C 10.738281 -17.847656 10.21875 -15.960938 10.21875 -13.390625 L 10.21875 0 Z M 3.734375 0 "/></g></g><g transform="translate(174.644529, 328.049974)"><g/></g><g transform="translate(185.964841, 328.049974)"><g><path d="M 3.734375 10.484375 L 3.734375 -25.859375 L 10.21875 -25.859375 L 10.21875 -22.484375 L 10.71875 -22.390625 C 11.476562 -23.703125 12.5 -24.6875 13.78125 -25.34375 C 15.0625 -26.007812 16.5625 -26.34375 18.28125 -26.34375 C 20.363281 -26.34375 22.179688 -25.847656 23.734375 -24.859375 C 25.285156 -23.878906 26.492188 -22.382812 27.359375 -20.375 C 28.234375 -18.375 28.671875 -15.890625 28.671875 -12.921875 C 28.671875 -9.960938 28.210938 -7.484375 27.296875 -5.484375 C 26.378906 -3.484375 25.109375 -1.984375 23.484375 -0.984375 C 21.859375 0.00390625 19.984375 0.5 17.859375 0.5 C 16.253906 0.5 14.863281 0.226562 13.6875 -0.3125 C 12.519531 -0.851562 11.53125 -1.695312 10.71875 -2.84375 L 10.21875 -2.75 L 10.21875 10.484375 Z M 16.0625 -5.015625 C 18 -5.015625 19.46875 -5.644531 20.46875 -6.90625 C 21.46875 -8.175781 21.96875 -10.179688 21.96875 -12.921875 C 21.96875 -15.648438 21.46875 -17.648438 20.46875 -18.921875 C 19.46875 -20.203125 18 -20.84375 16.0625 -20.84375 C 14.25 -20.84375 12.8125 -20.1875 11.75 -18.875 C 10.6875 -17.5625 10.15625 -15.578125 10.15625 -12.921875 C 10.15625 -10.273438 10.6875 -8.296875 11.75 -6.984375 C 12.8125 -5.671875 14.25 -5.015625 16.0625 -5.015625 Z M 16.0625 -5.015625 "/></g></g><g transform="translate(216.925776, 328.049974)"><g><path d="M 15.03125 0.5 C 12.5 0.5 10.273438 -0.0195312 8.359375 -1.0625 C 6.441406 -2.101562 4.957031 -3.628906 3.90625 -5.640625 C 2.851562 -7.648438 2.328125 -10.078125 2.328125 -12.921875 C 2.328125 -15.765625 2.851562 -18.191406 3.90625 -20.203125 C 4.957031 -22.222656 6.441406 -23.75 8.359375 -24.78125 C 10.273438 -25.820312 12.5 -26.34375 15.03125 -26.34375 C 17.5625 -26.34375 19.78125 -25.820312 21.6875 -24.78125 C 23.601562 -23.75 25.09375 -22.222656 26.15625 -20.203125 C 27.21875 -18.191406 27.75 -15.765625 27.75 -12.921875 C 27.75 -10.078125 27.21875 -7.648438 26.15625 -5.640625 C 25.09375 -3.628906 23.601562 -2.101562 21.6875 -1.0625 C 19.78125 -0.0195312 17.5625 0.5 15.03125 0.5 Z M 15.03125 -5.015625 C 19.039062 -5.015625 21.046875 -7.648438 21.046875 -12.921875 C 21.046875 -15.648438 20.53125 -17.648438 19.5 -18.921875 C 18.46875 -20.203125 16.976562 -20.84375 15.03125 -20.84375 C 11.007812 -20.84375 9 -18.203125 9 -12.921875 C 9 -7.648438 11.007812 -5.015625 15.03125 -5.015625 Z M 15.03125 -5.015625 "/></g></g><g transform="translate(246.972648, 328.049974)"><g><path d="M 13.875 0 L 7.078125 0 L 0.9375 -25.859375 L 6.96875 -25.859375 L 10.765625 -8.375 L 11.25 -8.375 L 16.171875 -25.859375 L 21.796875 -25.859375 L 26.890625 -8.375 L 27.375 -8.375 L 31.03125 -25.859375 L 36.890625 -25.859375 L 30.828125 0 L 24 0 L 19.109375 -17.609375 L 18.609375 -17.609375 Z M 13.875 0 "/></g></g><g transform="translate(284.777333, 328.049974)"><g><path d="M 25.546875 -11.46875 L 8.9375 -11.46875 C 9.125 -9.21875 9.765625 -7.578125 10.859375 -6.546875 C 11.953125 -5.523438 13.441406 -5.015625 15.328125 -5.015625 C 16.816406 -5.015625 18.019531 -5.289062 18.9375 -5.84375 C 19.863281 -6.40625 20.609375 -7.25 21.171875 -8.375 L 21.65625 -8.375 L 25.96875 -5.609375 C 25.125 -3.796875 23.847656 -2.320312 22.140625 -1.1875 C 20.441406 -0.0625 18.171875 0.5 15.328125 0.5 C 12.660156 0.5 10.351562 -0.0078125 8.40625 -1.03125 C 6.457031 -2.050781 4.957031 -3.5625 3.90625 -5.5625 C 2.851562 -7.570312 2.328125 -10.023438 2.328125 -12.921875 C 2.328125 -15.859375 2.878906 -18.332031 3.984375 -20.34375 C 5.097656 -22.363281 6.597656 -23.867188 8.484375 -24.859375 C 10.378906 -25.847656 12.503906 -26.34375 14.859375 -26.34375 C 18.515625 -26.34375 21.316406 -25.375 23.265625 -23.4375 C 25.210938 -21.5 26.1875 -18.65625 26.1875 -14.90625 C 26.1875 -13.550781 26.140625 -12.5 26.046875 -11.75 Z M 19.96875 -15.65625 C 19.90625 -17.625 19.445312 -19.054688 18.59375 -19.953125 C 17.75 -20.859375 16.503906 -21.3125 14.859375 -21.3125 C 11.578125 -21.3125 9.648438 -19.425781 9.078125 -15.65625 Z M 19.96875 -15.65625 "/></g></g><g transform="translate(312.878893, 328.049974)"><g><path d="M 3.734375 0 L 3.734375 -25.859375 L 10.03125 -25.859375 L 10.03125 -22.015625 L 10.53125 -21.921875 C 11.15625 -23.359375 11.972656 -24.410156 12.984375 -25.078125 C 14.003906 -25.753906 15.238281 -26.09375 16.6875 -26.09375 C 18.15625 -26.09375 19.273438 -25.84375 20.046875 -25.34375 L 18.9375 -19.734375 L 18.453125 -19.640625 C 18.023438 -19.816406 17.613281 -19.941406 17.21875 -20.015625 C 16.832031 -20.097656 16.359375 -20.140625 15.796875 -20.140625 C 13.984375 -20.140625 12.597656 -19.5 11.640625 -18.21875 C 10.691406 -16.945312 10.21875 -14.90625 10.21875 -12.09375 L 10.21875 0 Z M 3.734375 0 "/></g></g><g transform="translate(333.152329, 328.049974)"><g/></g><g transform="translate(344.472641, 328.049974)"><g><path d="M 12.09375 0.5 C 10.332031 0.5 8.71875 0.289062 7.25 -0.125 C 5.78125 -0.539062 4.523438 -1.113281 3.484375 -1.84375 C 2.441406 -2.570312 1.671875 -3.40625 1.171875 -4.34375 L 4.78125 -8.234375 L 5.28125 -8.234375 C 6.132812 -7.078125 7.144531 -6.207031 8.3125 -5.625 C 9.488281 -5.050781 10.765625 -4.765625 12.140625 -4.765625 C 13.410156 -4.765625 14.363281 -4.988281 15 -5.4375 C 15.644531 -5.894531 15.96875 -6.546875 15.96875 -7.390625 C 15.96875 -8.046875 15.734375 -8.59375 15.265625 -9.03125 C 14.804688 -9.476562 14.0625 -9.828125 13.03125 -10.078125 L 9.609375 -10.90625 C 7.046875 -11.507812 5.175781 -12.441406 4 -13.703125 C 2.820312 -14.960938 2.234375 -16.5625 2.234375 -18.5 C 2.234375 -20.101562 2.640625 -21.5 3.453125 -22.6875 C 4.273438 -23.875 5.429688 -24.78125 6.921875 -25.40625 C 8.421875 -26.03125 10.160156 -26.34375 12.140625 -26.34375 C 14.472656 -26.34375 16.40625 -26.003906 17.9375 -25.328125 C 19.46875 -24.660156 20.660156 -23.765625 21.515625 -22.640625 L 18.046875 -18.890625 L 17.578125 -18.890625 C 16.859375 -19.703125 16.050781 -20.296875 15.15625 -20.671875 C 14.257812 -21.046875 13.253906 -21.234375 12.140625 -21.234375 C 9.578125 -21.234375 8.296875 -20.4375 8.296875 -18.84375 C 8.296875 -18.175781 8.535156 -17.628906 9.015625 -17.203125 C 9.492188 -16.785156 10.332031 -16.441406 11.53125 -16.171875 L 14.71875 -15.46875 C 17.34375 -14.90625 19.257812 -14.003906 20.46875 -12.765625 C 21.6875 -11.523438 22.296875 -9.859375 22.296875 -7.765625 C 22.296875 -6.117188 21.890625 -4.671875 21.078125 -3.421875 C 20.265625 -2.171875 19.09375 -1.203125 17.5625 -0.515625 C 16.03125 0.160156 14.207031 0.5 12.09375 0.5 Z M 12.09375 0.5 "/></g></g><g transform="translate(368.308576, 328.049974)"><g><path d="M 11.84375 0.5 C 8.9375 0.5 6.789062 -0.289062 5.40625 -1.875 C 4.019531 -3.46875 3.328125 -5.75 3.328125 -8.71875 L 3.328125 -25.859375 L 9.828125 -25.859375 L 9.828125 -9.546875 C 9.828125 -7.960938 10.164062 -6.804688 10.84375 -6.078125 C 11.519531 -5.359375 12.570312 -5 14 -5 C 15.789062 -5 17.1875 -5.585938 18.1875 -6.765625 C 19.1875 -7.941406 19.6875 -9.796875 19.6875 -12.328125 L 19.6875 -25.859375 L 26.1875 -25.859375 L 26.1875 0 L 19.953125 0 L 19.953125 -3.796875 L 19.453125 -3.921875 C 18.628906 -2.429688 17.617188 -1.320312 16.421875 -0.59375 C 15.222656 0.132812 13.695312 0.5 11.84375 0.5 Z M 11.84375 0.5 "/></g></g><g transform="translate(398.214824, 328.049974)"><g><path d="M 3.734375 10.484375 L 3.734375 -25.859375 L 10.21875 -25.859375 L 10.21875 -22.484375 L 10.71875 -22.390625 C 11.476562 -23.703125 12.5 -24.6875 13.78125 -25.34375 C 15.0625 -26.007812 16.5625 -26.34375 18.28125 -26.34375 C 20.363281 -26.34375 22.179688 -25.847656 23.734375 -24.859375 C 25.285156 -23.878906 26.492188 -22.382812 27.359375 -20.375 C 28.234375 -18.375 28.671875 -15.890625 28.671875 -12.921875 C 28.671875 -9.960938 28.210938 -7.484375 27.296875 -5.484375 C 26.378906 -3.484375 25.109375 -1.984375 23.484375 -0.984375 C 21.859375 0.00390625 19.984375 0.5 17.859375 0.5 C 16.253906 0.5 14.863281 0.226562 13.6875 -0.3125 C 12.519531 -0.851562 11.53125 -1.695312 10.71875 -2.84375 L 10.21875 -2.75 L 10.21875 10.484375 Z M 16.0625 -5.015625 C 18 -5.015625 19.46875 -5.644531 20.46875 -6.90625 C 21.46875 -8.175781 21.96875 -10.179688 21.96875 -12.921875 C 21.96875 -15.648438 21.46875 -17.648438 20.46875 -18.921875 C 19.46875 -20.203125 18 -20.84375 16.0625 -20.84375 C 14.25 -20.84375 12.8125 -20.1875 11.75 -18.875 C 10.6875 -17.5625 10.15625 -15.578125 10.15625 -12.921875 C 10.15625 -10.273438 10.6875 -8.296875 11.75 -6.984375 C 12.8125 -5.671875 14.25 -5.015625 16.0625 -5.015625 Z M 16.0625 -5.015625 "/></g></g><g transform="translate(429.175759, 328.049974)"><g><path d="M 3.734375 10.484375 L 3.734375 -25.859375 L 10.21875 -25.859375 L 10.21875 -22.484375 L 10.71875 -22.390625 C 11.476562 -23.703125 12.5 -24.6875 13.78125 -25.34375 C 15.0625 -26.007812 16.5625 -26.34375 18.28125 -26.34375 C 20.363281 -26.34375 22.179688 -25.847656 23.734375 -24.859375 C 25.285156 -23.878906 26.492188 -22.382812 27.359375 -20.375 C 28.234375 -18.375 28.671875 -15.890625 28.671875 -12.921875 C 28.671875 -9.960938 28.210938 -7.484375 27.296875 -5.484375 C 26.378906 -3.484375 25.109375 -1.984375 23.484375 -0.984375 C 21.859375 0.00390625 19.984375 0.5 17.859375 0.5 C 16.253906 0.5 14.863281 0.226562 13.6875 -0.3125 C 12.519531 -0.851562 11.53125 -1.695312 10.71875 -2.84375 L 10.21875 -2.75 L 10.21875 10.484375 Z M 16.0625 -5.015625 C 18 -5.015625 19.46875 -5.644531 20.46875 -6.90625 C 21.46875 -8.175781 21.96875 -10.179688 21.96875 -12.921875 C 21.96875 -15.648438 21.46875 -17.648438 20.46875 -18.921875 C 19.46875 -20.203125 18 -20.84375 16.0625 -20.84375 C 14.25 -20.84375 12.8125 -20.1875 11.75 -18.875 C 10.6875 -17.5625 10.15625 -15.578125 10.15625 -12.921875 C 10.15625 -10.273438 10.6875 -8.296875 11.75 -6.984375 C 12.8125 -5.671875 14.25 -5.015625 16.0625 -5.015625 Z M 16.0625 -5.015625 "/></g></g><g transform="translate(460.136694, 328.049974)"><g><path d="M 10.734375 0.5 C 8.410156 0.5 6.632812 -0.128906 5.40625 -1.390625 C 4.175781 -2.648438 3.5625 -4.5625 3.5625 -7.125 L 3.5625 -36.234375 L 10.0625 -36.234375 L 10.0625 -7.390625 C 10.0625 -5.804688 10.71875 -5.015625 12.03125 -5.015625 C 12.40625 -5.015625 12.800781 -5.078125 13.21875 -5.203125 L 13.546875 -5.109375 L 14.140625 -0.125 C 13.773438 0.0703125 13.296875 0.222656 12.703125 0.328125 C 12.109375 0.441406 11.453125 0.5 10.734375 0.5 Z M 10.734375 0.5 "/></g></g><g transform="translate(474.996068, 328.049974)"><g><path d="M 5.71875 10.96875 C 4.613281 10.96875 3.609375 10.878906 2.703125 10.703125 C 1.804688 10.535156 1.078125 10.3125 0.515625 10.03125 L 1.546875 4.78125 L 1.96875 4.640625 C 2.363281 4.847656 2.847656 5.015625 3.421875 5.140625 C 4.003906 5.265625 4.597656 5.328125 5.203125 5.328125 C 6.253906 5.328125 7.125 5.1875 7.8125 4.90625 C 8.507812 4.632812 9.097656 4.179688 9.578125 3.546875 C 10.066406 2.921875 10.5 2.046875 10.875 0.921875 L 0.5625 -25.859375 L 7.359375 -25.859375 L 13.78125 -7.875 L 14.34375 -7.875 L 20.609375 -25.859375 L 27.21875 -25.859375 L 16.828125 1.625 C 16.003906 3.84375 15.09375 5.625 14.09375 6.96875 C 13.101562 8.320312 11.929688 9.328125 10.578125 9.984375 C 9.234375 10.640625 7.613281 10.96875 5.71875 10.96875 Z M 5.71875 10.96875 "/></g></g><g transform="translate(502.746066, 328.049974)"><g/></g><g transform="translate(514.066377, 328.049974)"><g><path d="M 6.96875 -28.953125 C 5.789062 -28.953125 4.832031 -29.304688 4.09375 -30.015625 C 3.363281 -30.722656 3 -31.640625 3 -32.765625 C 3 -33.878906 3.363281 -34.789062 4.09375 -35.5 C 4.832031 -36.207031 5.789062 -36.5625 6.96875 -36.5625 C 7.75 -36.5625 8.441406 -36.394531 9.046875 -36.0625 C 9.660156 -35.738281 10.132812 -35.289062 10.46875 -34.71875 C 10.800781 -34.15625 10.96875 -33.503906 10.96875 -32.765625 C 10.96875 -32.035156 10.800781 -31.378906 10.46875 -30.796875 C 10.132812 -30.222656 9.660156 -29.769531 9.046875 -29.4375 C 8.441406 -29.113281 7.75 -28.953125 6.96875 -28.953125 Z M 3.734375 0 L 3.734375 -25.859375 L 10.21875 -25.859375 L 10.21875 0 Z M 3.734375 0 "/></g></g><g transform="translate(527.988251, 328.049974)"><g><path d="M 12.09375 0.5 C 10.332031 0.5 8.71875 0.289062 7.25 -0.125 C 5.78125 -0.539062 4.523438 -1.113281 3.484375 -1.84375 C 2.441406 -2.570312 1.671875 -3.40625 1.171875 -4.34375 L 4.78125 -8.234375 L 5.28125 -8.234375 C 6.132812 -7.078125 7.144531 -6.207031 8.3125 -5.625 C 9.488281 -5.050781 10.765625 -4.765625 12.140625 -4.765625 C 13.410156 -4.765625 14.363281 -4.988281 15 -5.4375 C 15.644531 -5.894531 15.96875 -6.546875 15.96875 -7.390625 C 15.96875 -8.046875 15.734375 -8.59375 15.265625 -9.03125 C 14.804688 -9.476562 14.0625 -9.828125 13.03125 -10.078125 L 9.609375 -10.90625 C 7.046875 -11.507812 5.175781 -12.441406 4 -13.703125 C 2.820312 -14.960938 2.234375 -16.5625 2.234375 -18.5 C 2.234375 -20.101562 2.640625 -21.5 3.453125 -22.6875 C 4.273438 -23.875 5.429688 -24.78125 6.921875 -25.40625 C 8.421875 -26.03125 10.160156 -26.34375 12.140625 -26.34375 C 14.472656 -26.34375 16.40625 -26.003906 17.9375 -25.328125 C 19.46875 -24.660156 20.660156 -23.765625 21.515625 -22.640625 L 18.046875 -18.890625 L 17.578125 -18.890625 C 16.859375 -19.703125 16.050781 -20.296875 15.15625 -20.671875 C 14.257812 -21.046875 13.253906 -21.234375 12.140625 -21.234375 C 9.578125 -21.234375 8.296875 -20.4375 8.296875 -18.84375 C 8.296875 -18.175781 8.535156 -17.628906 9.015625 -17.203125 C 9.492188 -16.785156 10.332031 -16.441406 11.53125 -16.171875 L 14.71875 -15.46875 C 17.34375 -14.90625 19.257812 -14.003906 20.46875 -12.765625 C 21.6875 -11.523438 22.296875 -9.859375 22.296875 -7.765625 C 22.296875 -6.117188 21.890625 -4.671875 21.078125 -3.421875 C 20.265625 -2.171875 19.09375 -1.203125 17.5625 -0.515625 C 16.03125 0.160156 14.207031 0.5 12.09375 0.5 Z M 12.09375 0.5 "/></g></g></g><g fill="#ffde59" fill-opacity="1"><g transform="translate(163.511721, 394.799969)"><g><path d="M 6.96875 -28.953125 C 5.789062 -28.953125 4.832031 -29.304688 4.09375 -30.015625 C 3.363281 -30.722656 3 -31.640625 3 -32.765625 C 3 -33.878906 3.363281 -34.789062 4.09375 -35.5 C 4.832031 -36.207031 5.789062 -36.5625 6.96875 -36.5625 C 7.75 -36.5625 8.441406 -36.394531 9.046875 -36.0625 C 9.660156 -35.738281 10.132812 -35.289062 10.46875 -34.71875 C 10.800781 -34.15625 10.96875 -33.503906 10.96875 -32.765625 C 10.96875 -32.035156 10.800781 -31.378906 10.46875 -30.796875 C 10.132812 -30.222656 9.660156 -29.769531 9.046875 -29.4375 C 8.441406 -29.113281 7.75 -28.953125 6.96875 -28.953125 Z M 3.734375 0 L 3.734375 -25.859375 L 10.21875 -25.859375 L 10.21875 0 Z M 3.734375 0 "/></g></g><g transform="translate(177.433594, 394.799969)"><g><path d="M 3.734375 0 L 3.734375 -25.859375 L 9.96875 -25.859375 L 9.96875 -22.0625 L 10.453125 -21.9375 C 12.066406 -24.875 14.675781 -26.34375 18.28125 -26.34375 C 21.269531 -26.34375 23.460938 -25.53125 24.859375 -23.90625 C 26.253906 -22.28125 26.953125 -19.914062 26.953125 -16.8125 L 26.953125 0 L 20.46875 0 L 20.46875 -16.015625 C 20.46875 -17.734375 20.125 -18.96875 19.4375 -19.71875 C 18.75 -20.476562 17.644531 -20.859375 16.125 -20.859375 C 14.269531 -20.859375 12.820312 -20.253906 11.78125 -19.046875 C 10.738281 -17.847656 10.21875 -15.960938 10.21875 -13.390625 L 10.21875 0 Z M 3.734375 0 "/></g></g><g transform="translate(207.714842, 394.799969)"><g><path d="M 17.84375 -6.171875 L 19.53125 -1.359375 C 18.820312 -0.785156 17.9375 -0.332031 16.875 0 C 15.8125 0.332031 14.609375 0.5 13.265625 0.5 C 10.472656 0.5 8.347656 -0.257812 6.890625 -1.78125 C 5.441406 -3.3125 4.71875 -5.53125 4.71875 -8.4375 L 4.71875 -20.71875 L 0.78125 -20.71875 L 0.78125 -25.875 L 4.71875 -25.875 L 4.71875 -30.921875 L 11.203125 -31.96875 L 11.203125 -25.875 L 18.546875 -25.875 L 18.546875 -20.71875 L 11.203125 -20.71875 L 11.203125 -8.90625 C 11.203125 -7.625 11.46875 -6.691406 12 -6.109375 C 12.53125 -5.523438 13.304688 -5.234375 14.328125 -5.234375 C 15.484375 -5.234375 16.488281 -5.546875 17.34375 -6.171875 Z M 17.84375 -6.171875 "/></g></g><g transform="translate(227.800778, 394.799969)"><g><path d="M 25.546875 -11.46875 L 8.9375 -11.46875 C 9.125 -9.21875 9.765625 -7.578125 10.859375 -6.546875 C 11.953125 -5.523438 13.441406 -5.015625 15.328125 -5.015625 C 16.816406 -5.015625 18.019531 -5.289062 18.9375 -5.84375 C 19.863281 -6.40625 20.609375 -7.25 21.171875 -8.375 L 21.65625 -8.375 L 25.96875 -5.609375 C 25.125 -3.796875 23.847656 -2.320312 22.140625 -1.1875 C 20.441406 -0.0625 18.171875 0.5 15.328125 0.5 C 12.660156 0.5 10.351562 -0.0078125 8.40625 -1.03125 C 6.457031 -2.050781 4.957031 -3.5625 3.90625 -5.5625 C 2.851562 -7.570312 2.328125 -10.023438 2.328125 -12.921875 C 2.328125 -15.859375 2.878906 -18.332031 3.984375 -20.34375 C 5.097656 -22.363281 6.597656 -23.867188 8.484375 -24.859375 C 10.378906 -25.847656 12.503906 -26.34375 14.859375 -26.34375 C 18.515625 -26.34375 21.316406 -25.375 23.265625 -23.4375 C 25.210938 -21.5 26.1875 -18.65625 26.1875 -14.90625 C 26.1875 -13.550781 26.140625 -12.5 26.046875 -11.75 Z M 19.96875 -15.65625 C 19.90625 -17.625 19.445312 -19.054688 18.59375 -19.953125 C 17.75 -20.859375 16.503906 -21.3125 14.859375 -21.3125 C 11.578125 -21.3125 9.648438 -19.425781 9.078125 -15.65625 Z M 19.96875 -15.65625 "/></g></g><g transform="translate(255.902339, 394.799969)"><g><path d="M 3.734375 0 L 3.734375 -25.859375 L 10.03125 -25.859375 L 10.03125 -22.015625 L 10.53125 -21.921875 C 11.15625 -23.359375 11.972656 -24.410156 12.984375 -25.078125 C 14.003906 -25.753906 15.238281 -26.09375 16.6875 -26.09375 C 18.15625 -26.09375 19.273438 -25.84375 20.046875 -25.34375 L 18.9375 -19.734375 L 18.453125 -19.640625 C 18.023438 -19.816406 17.613281 -19.941406 17.21875 -20.015625 C 16.832031 -20.097656 16.359375 -20.140625 15.796875 -20.140625 C 13.984375 -20.140625 12.597656 -19.5 11.640625 -18.21875 C 10.691406 -16.945312 10.21875 -14.90625 10.21875 -12.09375 L 10.21875 0 Z M 3.734375 0 "/></g></g><g transform="translate(276.175774, 394.799969)"><g><path d="M 3.734375 0 L 3.734375 -25.859375 L 10.03125 -25.859375 L 10.03125 -22.015625 L 10.53125 -21.921875 C 11.15625 -23.359375 11.972656 -24.410156 12.984375 -25.078125 C 14.003906 -25.753906 15.238281 -26.09375 16.6875 -26.09375 C 18.15625 -26.09375 19.273438 -25.84375 20.046875 -25.34375 L 18.9375 -19.734375 L 18.453125 -19.640625 C 18.023438 -19.816406 17.613281 -19.941406 17.21875 -20.015625 C 16.832031 -20.097656 16.359375 -20.140625 15.796875 -20.140625 C 13.984375 -20.140625 12.597656 -19.5 11.640625 -18.21875 C 10.691406 -16.945312 10.21875 -14.90625 10.21875 -12.09375 L 10.21875 0 Z M 3.734375 0 "/></g></g><g transform="translate(296.44921, 394.799969)"><g><path d="M 11.84375 0.5 C 8.9375 0.5 6.789062 -0.289062 5.40625 -1.875 C 4.019531 -3.46875 3.328125 -5.75 3.328125 -8.71875 L 3.328125 -25.859375 L 9.828125 -25.859375 L 9.828125 -9.546875 C 9.828125 -7.960938 10.164062 -6.804688 10.84375 -6.078125 C 11.519531 -5.359375 12.570312 -5 14 -5 C 15.789062 -5 17.1875 -5.585938 18.1875 -6.765625 C 19.1875 -7.941406 19.6875 -9.796875 19.6875 -12.328125 L 19.6875 -25.859375 L 26.1875 -25.859375 L 26.1875 0 L 19.953125 0 L 19.953125 -3.796875 L 19.453125 -3.921875 C 18.628906 -2.429688 17.617188 -1.320312 16.421875 -0.59375 C 15.222656 0.132812 13.695312 0.5 11.84375 0.5 Z M 11.84375 0.5 "/></g></g><g transform="translate(326.355458, 394.799969)"><g><path d="M 3.734375 10.484375 L 3.734375 -25.859375 L 10.21875 -25.859375 L 10.21875 -22.484375 L 10.71875 -22.390625 C 11.476562 -23.703125 12.5 -24.6875 13.78125 -25.34375 C 15.0625 -26.007812 16.5625 -26.34375 18.28125 -26.34375 C 20.363281 -26.34375 22.179688 -25.847656 23.734375 -24.859375 C 25.285156 -23.878906 26.492188 -22.382812 27.359375 -20.375 C 28.234375 -18.375 28.671875 -15.890625 28.671875 -12.921875 C 28.671875 -9.960938 28.210938 -7.484375 27.296875 -5.484375 C 26.378906 -3.484375 25.109375 -1.984375 23.484375 -0.984375 C 21.859375 0.00390625 19.984375 0.5 17.859375 0.5 C 16.253906 0.5 14.863281 0.226562 13.6875 -0.3125 C 12.519531 -0.851562 11.53125 -1.695312 10.71875 -2.84375 L 10.21875 -2.75 L 10.21875 10.484375 Z M 16.0625 -5.015625 C 18 -5.015625 19.46875 -5.644531 20.46875 -6.90625 C 21.46875 -8.175781 21.96875 -10.179688 21.96875 -12.921875 C 21.96875 -15.648438 21.46875 -17.648438 20.46875 -18.921875 C 19.46875 -20.203125 18 -20.84375 16.0625 -20.84375 C 14.25 -20.84375 12.8125 -20.1875 11.75 -18.875 C 10.6875 -17.5625 10.15625 -15.578125 10.15625 -12.921875 C 10.15625 -10.273438 10.6875 -8.296875 11.75 -6.984375 C 12.8125 -5.671875 14.25 -5.015625 16.0625 -5.015625 Z M 16.0625 -5.015625 "/></g></g><g transform="translate(357.316393, 394.799969)"><g><path d="M 17.84375 -6.171875 L 19.53125 -1.359375 C 18.820312 -0.785156 17.9375 -0.332031 16.875 0 C 15.8125 0.332031 14.609375 0.5 13.265625 0.5 C 10.472656 0.5 8.347656 -0.257812 6.890625 -1.78125 C 5.441406 -3.3125 4.71875 -5.53125 4.71875 -8.4375 L 4.71875 -20.71875 L 0.78125 -20.71875 L 0.78125 -25.875 L 4.71875 -25.875 L 4.71875 -30.921875 L 11.203125 -31.96875 L 11.203125 -25.875 L 18.546875 -25.875 L 18.546875 -20.71875 L 11.203125 -20.71875 L 11.203125 -8.90625 C 11.203125 -7.625 11.46875 -6.691406 12 -6.109375 C 12.53125 -5.523438 13.304688 -5.234375 14.328125 -5.234375 C 15.484375 -5.234375 16.488281 -5.546875 17.34375 -6.171875 Z M 17.84375 -6.171875 "/></g></g><g transform="translate(377.402329, 394.799969)"><g><path d="M 25.546875 -11.46875 L 8.9375 -11.46875 C 9.125 -9.21875 9.765625 -7.578125 10.859375 -6.546875 C 11.953125 -5.523438 13.441406 -5.015625 15.328125 -5.015625 C 16.816406 -5.015625 18.019531 -5.289062 18.9375 -5.84375 C 19.863281 -6.40625 20.609375 -7.25 21.171875 -8.375 L 21.65625 -8.375 L 25.96875 -5.609375 C 25.125 -3.796875 23.847656 -2.320312 22.140625 -1.1875 C 20.441406 -0.0625 18.171875 0.5 15.328125 0.5 C 12.660156 0.5 10.351562 -0.0078125 8.40625 -1.03125 C 6.457031 -2.050781 4.957031 -3.5625 3.90625 -5.5625 C 2.851562 -7.570312 2.328125 -10.023438 2.328125 -12.921875 C 2.328125 -15.859375 2.878906 -18.332031 3.984375 -20.34375 C 5.097656 -22.363281 6.597656 -23.867188 8.484375 -24.859375 C 10.378906 -25.847656 12.503906 -26.34375 14.859375 -26.34375 C 18.515625 -26.34375 21.316406 -25.375 23.265625 -23.4375 C 25.210938 -21.5 26.1875 -18.65625 26.1875 -14.90625 C 26.1875 -13.550781 26.140625 -12.5 26.046875 -11.75 Z M 19.96875 -15.65625 C 19.90625 -17.625 19.445312 -19.054688 18.59375 -19.953125 C 17.75 -20.859375 16.503906 -21.3125 14.859375 -21.3125 C 11.578125 -21.3125 9.648438 -19.425781 9.078125 -15.65625 Z M 19.96875 -15.65625 "/></g></g><g transform="translate(405.503889, 394.799969)"><g><path d="M 12.78125 0.5 C 10.726562 0.5 8.914062 0.00390625 7.34375 -0.984375 C 5.78125 -1.984375 4.550781 -3.488281 3.65625 -5.5 C 2.769531 -7.507812 2.328125 -9.984375 2.328125 -12.921875 C 2.328125 -15.867188 2.78125 -18.347656 3.6875 -20.359375 C 4.601562 -22.367188 5.867188 -23.867188 7.484375 -24.859375 C 9.109375 -25.847656 10.984375 -26.34375 13.109375 -26.34375 C 14.710938 -26.34375 16.101562 -26.066406 17.28125 -25.515625 C 18.46875 -24.960938 19.46875 -24.097656 20.28125 -22.921875 L 20.765625 -23.046875 L 20.765625 -36.234375 L 27.265625 -36.234375 L 27.265625 0 L 20.765625 0 L 20.765625 -3.359375 L 20.28125 -3.453125 C 19.5625 -2.234375 18.578125 -1.269531 17.328125 -0.5625 C 16.078125 0.144531 14.5625 0.5 12.78125 0.5 Z M 14.890625 -5.015625 C 16.710938 -5.015625 18.15625 -5.664062 19.21875 -6.96875 C 20.28125 -8.28125 20.8125 -10.265625 20.8125 -12.921875 C 20.8125 -15.578125 20.28125 -17.5625 19.21875 -18.875 C 18.15625 -20.1875 16.710938 -20.84375 14.890625 -20.84375 C 12.984375 -20.84375 11.523438 -20.203125 10.515625 -18.921875 C 9.503906 -17.648438 9 -15.648438 9 -12.921875 C 9 -10.203125 9.503906 -8.203125 10.515625 -6.921875 C 11.523438 -5.648438 12.984375 -5.015625 14.890625 -5.015625 Z M 14.890625 -5.015625 "/></g></g></g></svg>